<?xml version="1.0" encoding="utf-8" standalone="no"?>
<!DOCTYPE svg PUBLIC "-//W3C//DTD SVG 1.1//EN"
  "http://www.w3.org/Graphics/SVG/1.1/DTD/svg11.dtd">
<svg xmlns:xlink="http://www.w3.org/1999/xlink" width="306.532982pt" height="142.157747pt" viewBox="0 0 306.532982 142.157747" xmlns="http://www.w3.org/2000/svg" version="1.1">
 <metadata>
  <rdf:RDF xmlns:dc="http://purl.org/dc/elements/1.1/" xmlns:cc="http://creativecommons.org/ns#" xmlns:rdf="http://www.w3.org/1999/02/22-rdf-syntax-ns#">
   <cc:Work>
    <dc:type rdf:resource="http://purl.org/dc/dcmitype/StillImage"/>
    <dc:date>2024-09-24T12:10:37.034091</dc:date>
    <dc:format>image/svg+xml</dc:format>
    <dc:creator>
     <cc:Agent>
      <dc:title>Matplotlib v3.9.2, https://matplotlib.org/</dc:title>
     </cc:Agent>
    </dc:creator>
   </cc:Work>
  </rdf:RDF>
 </metadata>
 <defs>
  <style type="text/css">*{stroke-linejoin: round; stroke-linecap: butt}</style>
 </defs>
 <g id="figure_1">
  <g id="patch_1">
   <path d="M 0 142.157747 
L 306.532982 142.157747 
L 306.532982 0 
L 0 0 
L 0 142.157747 
z
" style="fill: none"/>
  </g>
  <g id="axes_1">
   <g id="patch_2">
    <path d="M 29.06375 119.892747 
L 251.389723 119.892747 
L 251.389723 22.202759 
L 29.06375 22.202759 
L 29.06375 119.892747 
z
" style="fill: none"/>
   </g>
   <g id="matplotlib.axis_1">
    <g id="xtick_1">
     <g id="line2d_1">
      <defs>
       <path id="m6c1655583b" d="M 0 0 
L 0 2 
" style="stroke: #000000; stroke-width: 0.35"/>
      </defs>
      <g>
       <use xlink:href="#m6c1655583b" x="29.06375" y="119.892747" style="stroke: #000000; stroke-width: 0.35"/>
      </g>
     </g>
     <g id="text_1">
      <!-- 0.0 -->
      <g transform="translate(23.951875 129.445247) scale(0.08 -0.08)">
       <defs>
        <path id="CMUSerif-Roman-30" d="M 250 2048 
C 250 1568 275 992 538 506 
C 813 -13 1280 -141 1594 -141 
C 1939 -141 2426 -6 2707 602 
C 2912 1043 2944 1542 2944 2048 
C 2944 2560 2912 3072 2688 3546 
C 2394 4160 1869 4262 1600 4262 
C 1216 4262 749 4096 486 3501 
C 282 3059 250 2560 250 2048 
z
M 781 2125 
C 781 2534 781 2957 832 3302 
C 954 4064 1434 4122 1594 4122 
C 1805 4122 2227 4006 2349 3373 
C 2413 3014 2413 2528 2413 2125 
C 2413 1645 2413 1210 2342 800 
C 2246 192 1882 0 1594 0 
C 1344 0 966 160 851 774 
C 781 1158 781 1747 781 2125 
z
" transform="scale(0.015625)"/>
        <path id="CMUSerif-Roman-2e" d="M 544 339 
C 544 166 685 0 883 0 
C 1050 0 1216 141 1216 339 
C 1216 538 1062 672 883 672 
C 685 672 544 512 544 339 
z
" transform="scale(0.015625)"/>
       </defs>
       <use xlink:href="#CMUSerif-Roman-30"/>
       <use xlink:href="#CMUSerif-Roman-2e" x="49.999985"/>
       <use xlink:href="#CMUSerif-Roman-30" x="77.799973"/>
      </g>
     </g>
    </g>
    <g id="xtick_2">
     <g id="line2d_2">
      <g>
       <use xlink:href="#m6c1655583b" x="73.528945" y="119.892747" style="stroke: #000000; stroke-width: 0.35"/>
      </g>
     </g>
     <g id="text_2">
      <!-- 0.2 -->
      <g transform="translate(68.41707 129.445247) scale(0.08 -0.08)">
       <defs>
        <path id="CMUSerif-Roman-32" d="M 320 0 
L 2694 0 
L 2874 1114 
L 2714 1114 
C 2682 922 2637 640 2573 544 
C 2528 493 2106 493 1965 493 
L 813 493 
L 1491 1152 
C 2490 2035 2874 2381 2874 3021 
C 2874 3750 2298 4262 1517 4262 
C 794 4262 320 3674 320 3104 
C 320 2746 640 2746 659 2746 
C 768 2746 992 2822 992 3085 
C 992 3251 877 3418 653 3418 
C 602 3418 589 3418 570 3411 
C 717 3827 1062 4064 1434 4064 
C 2016 4064 2291 3546 2291 3021 
C 2291 2509 1971 2003 1619 1606 
L 390 237 
C 320 166 320 154 320 0 
z
" transform="scale(0.015625)"/>
       </defs>
       <use xlink:href="#CMUSerif-Roman-30"/>
       <use xlink:href="#CMUSerif-Roman-2e" x="49.999985"/>
       <use xlink:href="#CMUSerif-Roman-32" x="77.799973"/>
      </g>
     </g>
    </g>
    <g id="xtick_3">
     <g id="line2d_3">
      <g>
       <use xlink:href="#m6c1655583b" x="117.994139" y="119.892747" style="stroke: #000000; stroke-width: 0.35"/>
      </g>
     </g>
     <g id="text_3">
      <!-- 0.4 -->
      <g transform="translate(112.882264 129.445247) scale(0.08 -0.08)">
       <defs>
        <path id="CMUSerif-Roman-34" d="M 179 1056 
L 1882 1056 
L 1882 499 
C 1882 269 1869 198 1395 198 
L 1261 198 
L 1261 0 
C 1523 19 1856 19 2125 19 
C 2394 19 2733 19 2995 0 
L 2995 198 
L 2861 198 
C 2387 198 2374 269 2374 499 
L 2374 1056 
L 3014 1056 
L 3014 1254 
L 2374 1254 
L 2374 4166 
C 2374 4294 2374 4333 2272 4333 
C 2214 4333 2195 4333 2144 4256 
L 179 1254 
L 179 1056 
z
M 358 1254 
L 1920 3642 
L 1920 1254 
L 358 1254 
z
" transform="scale(0.015625)"/>
       </defs>
       <use xlink:href="#CMUSerif-Roman-30"/>
       <use xlink:href="#CMUSerif-Roman-2e" x="49.999985"/>
       <use xlink:href="#CMUSerif-Roman-34" x="77.799973"/>
      </g>
     </g>
    </g>
    <g id="xtick_4">
     <g id="line2d_4">
      <g>
       <use xlink:href="#m6c1655583b" x="162.459334" y="119.892747" style="stroke: #000000; stroke-width: 0.35"/>
      </g>
     </g>
     <g id="text_4">
      <!-- 0.6 -->
      <g transform="translate(157.347459 129.445247) scale(0.08 -0.08)">
       <defs>
        <path id="CMUSerif-Roman-36" d="M 269 2022 
C 269 314 1011 -141 1606 -141 
C 2317 -141 2925 461 2925 1306 
C 2925 2118 2355 2733 1645 2733 
C 1210 2733 973 2406 845 2099 
L 845 2253 
C 845 3872 1638 4102 1965 4102 
C 2118 4102 2387 4064 2528 3846 
C 2432 3846 2176 3846 2176 3558 
C 2176 3360 2330 3264 2470 3264 
C 2573 3264 2765 3322 2765 3571 
C 2765 3955 2483 4262 1952 4262 
C 1133 4262 269 3437 269 2022 
z
M 858 1446 
C 858 1946 1062 2586 1638 2586 
C 1741 2586 2035 2586 2234 2189 
C 2349 1952 2349 1626 2349 1312 
C 2349 1005 2349 685 2240 454 
C 2048 70 1754 38 1606 38 
C 1203 38 1011 422 973 518 
C 858 819 858 1331 858 1446 
z
" transform="scale(0.015625)"/>
       </defs>
       <use xlink:href="#CMUSerif-Roman-30"/>
       <use xlink:href="#CMUSerif-Roman-2e" x="49.999985"/>
       <use xlink:href="#CMUSerif-Roman-36" x="77.799973"/>
      </g>
     </g>
    </g>
    <g id="xtick_5">
     <g id="line2d_5">
      <g>
       <use xlink:href="#m6c1655583b" x="206.924528" y="119.892747" style="stroke: #000000; stroke-width: 0.35"/>
      </g>
     </g>
     <g id="text_5">
      <!-- 0.8 -->
      <g transform="translate(201.812653 129.445247) scale(0.08 -0.08)">
       <defs>
        <path id="CMUSerif-Roman-38" d="M 269 966 
C 269 288 922 -141 1594 -141 
C 2317 -141 2925 390 2925 1075 
C 2925 1306 2854 1594 2611 1862 
C 2490 1997 2387 2061 1978 2317 
C 2438 2554 2752 2886 2752 3309 
C 2752 3898 2182 4262 1600 4262 
C 960 4262 442 3789 442 3194 
C 442 3078 454 2790 723 2490 
C 794 2413 1030 2253 1190 2144 
C 819 1958 269 1600 269 966 
z
M 589 966 
C 589 1338 794 1747 1338 2048 
L 2125 1549 
C 2304 1427 2605 1235 2605 845 
C 2605 371 2125 38 1600 38 
C 1050 38 589 435 589 966 
z
M 723 3443 
C 723 3834 1139 4102 1594 4102 
C 2061 4102 2470 3770 2470 3309 
C 2470 2944 2221 2637 1837 2413 
L 1043 2925 
C 749 3117 723 3334 723 3443 
z
" transform="scale(0.015625)"/>
       </defs>
       <use xlink:href="#CMUSerif-Roman-30"/>
       <use xlink:href="#CMUSerif-Roman-2e" x="49.999985"/>
       <use xlink:href="#CMUSerif-Roman-38" x="77.799973"/>
      </g>
     </g>
    </g>
    <g id="xtick_6">
     <g id="line2d_6">
      <g>
       <use xlink:href="#m6c1655583b" x="251.389723" y="119.892747" style="stroke: #000000; stroke-width: 0.35"/>
      </g>
     </g>
     <g id="text_6">
      <!-- 1.0 -->
      <g transform="translate(246.277848 129.445247) scale(0.08 -0.08)">
       <defs>
        <path id="CMUSerif-Roman-31" d="M 570 3654 
C 698 3654 1075 3654 1408 3821 
L 1408 506 
C 1408 275 1389 198 813 198 
L 608 198 
L 608 0 
C 832 19 1389 19 1645 19 
C 1901 19 2458 19 2682 0 
L 2682 198 
L 2477 198 
C 1901 198 1882 269 1882 506 
L 1882 4096 
C 1882 4250 1882 4262 1734 4262 
C 1338 3853 774 3853 570 3853 
L 570 3654 
z
" transform="scale(0.015625)"/>
       </defs>
       <use xlink:href="#CMUSerif-Roman-31"/>
       <use xlink:href="#CMUSerif-Roman-2e" x="49.999985"/>
       <use xlink:href="#CMUSerif-Roman-30" x="77.799973"/>
      </g>
     </g>
    </g>
    <g id="text_7">
     <!-- $^4$He Distance from Axis  $\;\;r/R_0$ -->
     <g transform="translate(85.506736 139.797747) scale(0.08 -0.08)">
      <defs>
       <path id="Cmr10-34" d="M 178 1056 
L 178 1281 
L 2156 4231 
Q 2178 4263 2222 4263 
L 2316 4263 
Q 2388 4263 2388 4191 
L 2388 1281 
L 3016 1281 
L 3016 1056 
L 2388 1056 
L 2388 428 
Q 2388 297 2575 261 
Q 2763 225 3009 225 
L 3009 0 
L 1247 0 
L 1247 225 
Q 1494 225 1681 261 
Q 1869 297 1869 428 
L 1869 1056 
L 178 1056 
z
M 391 1281 
L 1906 1281 
L 1906 3547 
L 391 1281 
z
" transform="scale(0.015625)"/>
       <path id="CMUSerif-Roman-48" d="M 211 0 
C 435 19 909 19 1152 19 
C 1395 19 1875 19 2099 0 
L 2099 198 
L 1946 198 
C 1453 198 1440 269 1440 499 
L 1440 2176 
L 3354 2176 
L 3354 499 
C 3354 269 3341 198 2848 198 
L 2694 198 
L 2694 0 
C 2918 19 3392 19 3635 19 
C 3878 19 4358 19 4582 0 
L 4582 198 
L 4429 198 
C 3936 198 3923 269 3923 499 
L 3923 3872 
C 3923 4102 3936 4173 4429 4173 
L 4582 4173 
L 4582 4371 
C 4358 4352 3885 4352 3642 4352 
C 3398 4352 2918 4352 2694 4371 
L 2694 4173 
L 2848 4173 
C 3341 4173 3354 4102 3354 3872 
L 3354 2374 
L 1440 2374 
L 1440 3872 
C 1440 4102 1453 4173 1946 4173 
L 2099 4173 
L 2099 4371 
C 1875 4352 1402 4352 1158 4352 
C 915 4352 435 4352 211 4371 
L 211 4173 
L 365 4173 
C 858 4173 870 4102 870 3872 
L 870 499 
C 870 269 858 198 365 198 
L 211 198 
L 211 0 
z
" transform="scale(0.015625)"/>
       <path id="CMUSerif-Roman-65" d="M 179 1408 
C 179 550 851 -70 1587 -70 
C 2368 -70 2656 640 2656 762 
C 2656 826 2605 838 2573 838 
C 2515 838 2502 800 2490 749 
C 2266 90 1690 90 1626 90 
C 1306 90 1050 282 902 518 
C 710 826 710 1248 710 1478 
L 2496 1478 
C 2637 1478 2656 1478 2656 1613 
C 2656 2246 2310 2867 1510 2867 
C 768 2867 179 2208 179 1408 
z
M 717 1613 
C 755 2566 1293 2726 1510 2726 
C 2170 2726 2234 1862 2234 1613 
L 717 1613 
z
" transform="scale(0.015625)"/>
       <path id="CMUSerif-Roman-20" transform="scale(0.015625)"/>
       <path id="CMUSerif-Roman-44" d="M 224 0 
L 2566 0 
C 3642 0 4525 947 4525 2150 
C 4525 3366 3661 4371 2566 4371 
L 224 4371 
L 224 4173 
L 378 4173 
C 870 4173 883 4102 883 3872 
L 883 499 
C 883 269 870 198 378 198 
L 224 198 
L 224 0 
z
M 1434 454 
L 1434 3917 
C 1434 4128 1446 4173 1747 4173 
L 2387 4173 
C 2784 4173 3226 4032 3552 3578 
C 3827 3200 3885 2650 3885 2150 
C 3885 1440 3763 1056 3533 742 
C 3405 570 3040 198 2394 198 
L 1747 198 
C 1446 198 1434 243 1434 454 
z
" transform="scale(0.015625)"/>
       <path id="CMUSerif-Roman-69" d="M 480 3942 
C 480 3770 621 3603 819 3603 
C 998 3603 1158 3738 1158 3942 
C 1158 4147 998 4282 819 4282 
C 621 4282 480 4109 480 3942 
z
M 211 0 
C 416 6 762 19 915 19 
C 1139 19 1363 6 1581 0 
L 1581 198 
C 1158 198 1133 230 1133 480 
L 1133 2829 
L 237 2758 
L 237 2560 
C 653 2560 710 2522 710 2208 
L 710 486 
C 710 198 640 198 211 198 
L 211 0 
z
" transform="scale(0.015625)"/>
       <path id="CMUSerif-Roman-73" d="M 211 83 
C 211 -26 211 -70 282 -70 
C 314 -70 320 -64 442 58 
C 454 70 454 83 570 205 
C 851 -64 1139 -70 1274 -70 
C 2010 -70 2304 358 2304 819 
C 2304 1158 2112 1350 2035 1427 
C 1824 1632 1574 1683 1306 1734 
C 947 1805 518 1888 518 2259 
C 518 2483 685 2746 1235 2746 
C 1939 2746 1971 2170 1984 1971 
C 1990 1914 2048 1914 2061 1914 
C 2144 1914 2144 1946 2144 2067 
L 2144 2714 
C 2144 2822 2144 2867 2074 2867 
C 2042 2867 2029 2867 1946 2790 
C 1926 2765 1862 2707 1837 2688 
C 1594 2867 1331 2867 1235 2867 
C 454 2867 211 2438 211 2080 
C 211 1856 314 1677 486 1536 
C 691 1370 870 1331 1331 1242 
C 1472 1216 1997 1114 1997 653 
C 1997 326 1773 70 1274 70 
C 736 70 506 435 384 979 
C 365 1062 358 1088 294 1088 
C 211 1088 211 1043 211 928 
L 211 83 
z
" transform="scale(0.015625)"/>
       <path id="CMUSerif-Roman-74" d="M 122 2560 
L 666 2560 
L 666 794 
C 666 6 1261 -70 1491 -70 
C 1946 -70 2125 384 2125 794 
L 2125 1158 
L 1965 1158 
L 1965 806 
C 1965 333 1773 90 1536 90 
C 1107 90 1107 672 1107 781 
L 1107 2560 
L 2022 2560 
L 2022 2758 
L 1107 2758 
L 1107 3936 
L 947 3936 
C 941 3411 749 2726 122 2701 
L 122 2560 
z
" transform="scale(0.015625)"/>
       <path id="CMUSerif-Roman-61" d="M 269 608 
C 269 90 890 -70 1293 -70 
C 1715 -70 2010 186 2131 486 
C 2157 230 2330 -38 2630 -38 
C 2765 -38 3155 51 3155 570 
L 3155 928 
L 2995 928 
L 2995 570 
C 2995 198 2835 160 2765 160 
C 2554 160 2528 448 2528 480 
L 2528 1760 
C 2528 2029 2528 2278 2298 2515 
C 2048 2765 1728 2867 1421 2867 
C 896 2867 454 2566 454 2144 
C 454 1952 582 1843 749 1843 
C 928 1843 1043 1971 1043 2138 
C 1043 2214 1011 2426 717 2432 
C 890 2656 1203 2726 1408 2726 
C 1722 2726 2086 2477 2086 1907 
L 2086 1670 
C 1760 1651 1312 1632 909 1440 
C 429 1222 269 890 269 608 
z
M 762 614 
C 762 966 1030 1498 2086 1536 
L 2086 896 
C 2086 288 1626 70 1338 70 
C 1024 70 762 294 762 614 
z
" transform="scale(0.015625)"/>
       <path id="CMUSerif-Roman-6e" d="M 205 0 
C 429 6 755 19 928 19 
C 1094 19 1427 6 1645 0 
L 1645 198 
C 1216 198 1146 198 1146 486 
L 1146 1664 
C 1146 2330 1600 2688 2010 2688 
C 2413 2688 2483 2342 2483 1978 
L 2483 486 
C 2483 198 2413 198 1984 198 
L 1984 0 
C 2208 6 2534 19 2707 19 
C 2874 19 3206 6 3424 0 
L 3424 198 
C 3091 198 2931 198 2925 390 
L 2925 1613 
C 2925 2163 2925 2362 2726 2592 
C 2637 2701 2426 2829 2054 2829 
C 1587 2829 1286 2554 1107 2157 
L 1107 2829 
L 205 2758 
L 205 2560 
C 653 2560 704 2515 704 2202 
L 704 486 
C 704 198 634 198 205 198 
L 205 0 
z
" transform="scale(0.015625)"/>
       <path id="CMUSerif-Roman-63" d="M 218 1382 
C 218 563 851 -70 1594 -70 
C 2451 -70 2656 698 2656 762 
C 2656 826 2592 826 2573 826 
C 2515 826 2502 800 2490 762 
C 2304 166 1888 90 1651 90 
C 1312 90 749 365 749 1395 
C 749 2438 1274 2707 1613 2707 
C 1670 2707 2074 2701 2298 2470 
C 2035 2451 1997 2259 1997 2176 
C 1997 2010 2112 1882 2291 1882 
C 2458 1882 2586 1990 2586 2182 
C 2586 2618 2099 2867 1606 2867 
C 806 2867 218 2176 218 1382 
z
" transform="scale(0.015625)"/>
       <path id="CMUSerif-Roman-66" d="M 211 2560 
L 717 2560 
L 717 486 
C 717 198 646 198 218 198 
L 218 0 
C 467 6 768 19 947 19 
C 1203 19 1504 19 1760 0 
L 1760 198 
L 1626 198 
C 1152 198 1139 269 1139 499 
L 1139 2560 
L 1869 2560 
L 1869 2758 
L 1120 2758 
L 1120 3501 
C 1120 4064 1427 4371 1709 4371 
C 1728 4371 1824 4371 1920 4326 
C 1843 4301 1728 4218 1728 4058 
C 1728 3910 1830 3782 2003 3782 
C 2189 3782 2285 3910 2285 4064 
C 2285 4301 2048 4512 1709 4512 
C 1261 4512 717 4173 717 3494 
L 717 2758 
L 211 2758 
L 211 2560 
z
" transform="scale(0.015625)"/>
       <path id="CMUSerif-Roman-72" d="M 179 0 
C 429 6 730 19 909 19 
C 1165 19 1466 19 1722 0 
L 1722 198 
L 1587 198 
C 1114 198 1101 269 1101 499 
L 1101 1485 
C 1101 2118 1370 2688 1856 2688 
C 1901 2688 1914 2688 1926 2682 
C 1907 2675 1779 2598 1779 2432 
C 1779 2253 1914 2157 2054 2157 
C 2170 2157 2330 2234 2330 2438 
C 2330 2643 2131 2829 1856 2829 
C 1389 2829 1158 2400 1069 2125 
L 1069 2829 
L 179 2758 
L 179 2560 
C 627 2560 678 2515 678 2202 
L 678 486 
C 678 198 608 198 179 198 
L 179 0 
z
" transform="scale(0.015625)"/>
       <path id="CMUSerif-Roman-6f" d="M 179 1370 
C 179 544 845 -70 1594 -70 
C 2368 -70 3014 557 3014 1370 
C 3014 2189 2374 2867 1600 2867 
C 800 2867 179 2170 179 1370 
z
M 710 1421 
C 710 1670 710 2016 864 2298 
C 1037 2592 1338 2726 1594 2726 
C 1875 2726 2150 2586 2317 2310 
C 2483 2035 2483 1664 2483 1421 
C 2483 1190 2483 845 2342 563 
C 2202 275 1920 90 1600 90 
C 1325 90 1043 224 870 518 
C 710 800 710 1190 710 1421 
z
" transform="scale(0.015625)"/>
       <path id="CMUSerif-Roman-6d" d="M 205 0 
C 429 6 755 19 928 19 
C 1094 19 1427 6 1645 0 
L 1645 198 
C 1216 198 1146 198 1146 486 
L 1146 1664 
C 1146 2330 1600 2688 2010 2688 
C 2413 2688 2483 2342 2483 1978 
L 2483 486 
C 2483 198 2413 198 1984 198 
L 1984 0 
C 2208 6 2534 19 2707 19 
C 2874 19 3206 6 3424 0 
L 3424 198 
C 2995 198 2925 198 2925 486 
L 2925 1664 
C 2925 2330 3379 2688 3789 2688 
C 4192 2688 4262 2342 4262 1978 
L 4262 486 
C 4262 198 4192 198 3763 198 
L 3763 0 
C 3987 6 4314 19 4486 19 
C 4653 19 4986 6 5203 0 
L 5203 198 
C 4870 198 4710 198 4704 390 
L 4704 1613 
C 4704 2163 4704 2362 4506 2592 
C 4416 2701 4205 2829 3834 2829 
C 3296 2829 3014 2445 2906 2202 
C 2816 2758 2342 2829 2054 2829 
C 1587 2829 1286 2554 1107 2157 
L 1107 2829 
L 205 2758 
L 205 2560 
C 653 2560 704 2515 704 2202 
L 704 486 
C 704 198 634 198 205 198 
L 205 0 
z
" transform="scale(0.015625)"/>
       <path id="CMUSerif-Roman-41" d="M 205 0 
C 352 6 627 19 858 19 
C 1056 19 1389 6 1594 0 
L 1594 198 
C 1274 198 1114 358 1114 525 
C 1114 544 1120 608 1126 621 
L 1421 1459 
L 3002 1459 
L 3341 480 
C 3347 454 3360 416 3360 390 
C 3360 198 3002 198 2829 198 
L 2829 0 
C 3059 19 3507 19 3750 19 
C 4026 19 4320 13 4589 0 
L 4589 198 
L 4474 198 
C 4090 198 4000 243 3930 454 
L 2547 4454 
C 2515 4538 2502 4582 2400 4582 
C 2298 4582 2278 4544 2246 4454 
L 922 627 
C 806 301 550 205 205 198 
L 205 0 
z
M 1491 1658 
L 2208 3738 
L 2931 1658 
L 1491 1658 
z
" transform="scale(0.015625)"/>
       <path id="CMUSerif-Roman-78" d="M 77 0 
C 243 13 442 19 608 19 
C 794 19 1062 6 1216 0 
L 1216 198 
C 1075 218 1030 301 1030 397 
C 1030 538 1216 749 1606 1210 
L 2093 570 
C 2144 499 2227 397 2227 358 
C 2227 301 2170 205 1997 198 
L 1997 0 
C 2189 6 2547 19 2688 19 
C 2861 19 3110 13 3302 0 
L 3302 198 
C 2957 198 2842 211 2694 397 
L 1837 1504 
C 2029 1747 2272 2061 2426 2227 
C 2624 2458 2886 2554 3187 2560 
L 3187 2758 
C 3021 2746 2829 2739 2662 2739 
C 2470 2739 2131 2752 2048 2758 
L 2048 2560 
C 2182 2547 2234 2464 2234 2362 
C 2234 2259 2170 2176 2138 2138 
L 1741 1638 
L 1242 2285 
C 1184 2349 1184 2362 1184 2400 
C 1184 2496 1280 2554 1408 2560 
L 1408 2758 
C 1242 2752 819 2739 717 2739 
C 582 2739 282 2746 109 2758 
L 109 2560 
C 557 2560 563 2554 864 2170 
L 1498 1344 
L 896 582 
C 589 211 211 198 77 198 
L 77 0 
z
" transform="scale(0.015625)"/>
       <path id="Cmmi10-72" d="M 494 109 
Q 494 147 500 166 
L 978 2075 
Q 1025 2253 1025 2388 
Q 1025 2663 838 2663 
Q 638 2663 541 2423 
Q 444 2184 353 1819 
Q 353 1800 334 1789 
Q 316 1778 300 1778 
L 225 1778 
Q 203 1778 187 1801 
Q 172 1825 172 1844 
Q 241 2122 305 2315 
Q 369 2509 505 2668 
Q 641 2828 844 2828 
Q 1066 2828 1233 2700 
Q 1400 2572 1441 2363 
Q 1603 2575 1811 2701 
Q 2019 2828 2266 2828 
Q 2469 2828 2623 2709 
Q 2778 2591 2778 2388 
Q 2778 2225 2676 2104 
Q 2575 1984 2406 1984 
Q 2303 1984 2233 2048 
Q 2163 2113 2163 2216 
Q 2163 2356 2266 2467 
Q 2369 2578 2503 2578 
Q 2400 2663 2253 2663 
Q 1978 2663 1775 2467 
Q 1572 2272 1409 1972 
L 953 141 
Q 931 53 854 -9 
Q 778 -72 684 -72 
Q 606 -72 550 -22 
Q 494 28 494 109 
z
" transform="scale(0.015625)"/>
       <path id="Cmmi10-3d" d="M 359 -1472 
Q 359 -1453 366 -1447 
L 2591 4722 
Q 2603 4759 2634 4779 
Q 2666 4800 2706 4800 
Q 2763 4800 2798 4765 
Q 2834 4731 2834 4672 
L 2834 4647 
L 609 -1522 
Q 572 -1600 488 -1600 
Q 434 -1600 396 -1562 
Q 359 -1525 359 -1472 
z
" transform="scale(0.015625)"/>
       <path id="Cmmi10-52" d="M 313 0 
Q 250 0 250 84 
Q 253 100 262 139 
Q 272 178 289 201 
Q 306 225 331 225 
Q 722 225 878 269 
Q 959 297 997 441 
L 1875 3956 
Q 1888 4019 1888 4044 
Q 1888 4113 1813 4122 
Q 1691 4147 1350 4147 
Q 1288 4147 1288 4231 
Q 1291 4247 1300 4286 
Q 1309 4325 1326 4348 
Q 1344 4372 1369 4372 
L 3309 4372 
Q 3541 4372 3791 4319 
Q 4041 4266 4250 4152 
Q 4459 4038 4593 3848 
Q 4728 3659 4728 3406 
Q 4728 3084 4515 2831 
Q 4303 2578 3978 2408 
Q 3653 2238 3347 2169 
Q 3597 2078 3756 1879 
Q 3916 1681 3916 1422 
Q 3916 1388 3914 1370 
Q 3913 1353 3909 1331 
L 3859 763 
Q 3853 638 3847 550 
Q 3841 463 3841 409 
Q 3841 234 3892 129 
Q 3944 25 4097 25 
Q 4297 25 4448 211 
Q 4600 397 4647 616 
Q 4675 672 4709 672 
L 4769 672 
Q 4831 672 4831 588 
Q 4784 403 4682 237 
Q 4581 72 4426 -34 
Q 4272 -141 4091 -141 
Q 3716 -141 3452 26 
Q 3188 194 3188 550 
Q 3188 684 3213 788 
L 3353 1356 
Q 3378 1434 3378 1538 
Q 3378 1803 3198 1954 
Q 3019 2106 2747 2106 
L 1959 2106 
L 1538 416 
Q 1522 363 1522 325 
Q 1522 259 1600 250 
Q 1722 225 2059 225 
Q 2125 225 2125 141 
Q 2103 50 2090 25 
Q 2078 0 2016 0 
L 313 0 
z
M 1997 2272 
L 2706 2272 
Q 3403 2272 3756 2625 
Q 3919 2788 4014 3039 
Q 4109 3291 4109 3541 
Q 4109 3778 3970 3912 
Q 3831 4047 3626 4097 
Q 3422 4147 3175 4147 
L 2747 4147 
Q 2572 4147 2515 4117 
Q 2459 4088 2413 3928 
L 1997 2272 
z
" transform="scale(0.015625)"/>
       <path id="Cmr10-30" d="M 1600 -141 
Q 816 -141 533 504 
Q 250 1150 250 2041 
Q 250 2597 351 3087 
Q 453 3578 754 3920 
Q 1056 4263 1600 4263 
Q 2022 4263 2290 4056 
Q 2559 3850 2700 3523 
Q 2841 3197 2892 2823 
Q 2944 2450 2944 2041 
Q 2944 1491 2842 1011 
Q 2741 531 2444 195 
Q 2147 -141 1600 -141 
z
M 1600 25 
Q 1956 25 2131 390 
Q 2306 756 2347 1200 
Q 2388 1644 2388 2144 
Q 2388 2625 2347 3031 
Q 2306 3438 2132 3767 
Q 1959 4097 1600 4097 
Q 1238 4097 1063 3765 
Q 888 3434 847 3029 
Q 806 2625 806 2144 
Q 806 1788 823 1472 
Q 841 1156 916 820 
Q 991 484 1158 254 
Q 1325 25 1600 25 
z
" transform="scale(0.015625)"/>
      </defs>
      <use xlink:href="#Cmr10-34" transform="translate(4.464141 38.373438) scale(0.7)"/>
      <use xlink:href="#CMUSerif-Roman-48" transform="translate(45.841484 0.109375)"/>
      <use xlink:href="#CMUSerif-Roman-65" transform="translate(120.841469 0.109375)"/>
      <use xlink:href="#CMUSerif-Roman-20" transform="translate(165.241463 0.109375)"/>
      <use xlink:href="#CMUSerif-Roman-44" transform="translate(198.541451 0.109375)"/>
      <use xlink:href="#CMUSerif-Roman-69" transform="translate(274.841439 0.109375)"/>
      <use xlink:href="#CMUSerif-Roman-73" transform="translate(302.541436 0.109375)"/>
      <use xlink:href="#CMUSerif-Roman-74" transform="translate(341.941429 0.109375)"/>
      <use xlink:href="#CMUSerif-Roman-61" transform="translate(380.741417 0.109375)"/>
      <use xlink:href="#CMUSerif-Roman-6e" transform="translate(430.741402 0.109375)"/>
      <use xlink:href="#CMUSerif-Roman-63" transform="translate(486.241387 0.109375)"/>
      <use xlink:href="#CMUSerif-Roman-65" transform="translate(530.641381 0.109375)"/>
      <use xlink:href="#CMUSerif-Roman-20" transform="translate(575.041375 0.109375)"/>
      <use xlink:href="#CMUSerif-Roman-66" transform="translate(608.341362 0.109375)"/>
      <use xlink:href="#CMUSerif-Roman-72" transform="translate(638.841347 0.109375)"/>
      <use xlink:href="#CMUSerif-Roman-6f" transform="translate(677.941338 0.109375)"/>
      <use xlink:href="#CMUSerif-Roman-6d" transform="translate(727.941323 0.109375)"/>
      <use xlink:href="#CMUSerif-Roman-20" transform="translate(811.24131 0.109375)"/>
      <use xlink:href="#CMUSerif-Roman-41" transform="translate(844.541298 0.109375)"/>
      <use xlink:href="#CMUSerif-Roman-78" transform="translate(919.541283 0.109375)"/>
      <use xlink:href="#CMUSerif-Roman-69" transform="translate(972.24128 0.109375)"/>
      <use xlink:href="#CMUSerif-Roman-73" transform="translate(999.941277 0.109375)"/>
      <use xlink:href="#CMUSerif-Roman-20" transform="translate(1039.341271 0.109375)"/>
      <use xlink:href="#CMUSerif-Roman-20" transform="translate(1072.641259 0.109375)"/>
      <use xlink:href="#Cmmi10-72" transform="translate(1154.715508 0.109375)"/>
      <use xlink:href="#Cmmi10-3d" transform="translate(1199.832696 0.109375)"/>
      <use xlink:href="#Cmmi10-52" transform="translate(1249.832696 0.109375)"/>
      <use xlink:href="#Cmr10-30" transform="translate(1325.711602 -16.896875) scale(0.7)"/>
     </g>
    </g>
   </g>
   <g id="matplotlib.axis_2">
    <g id="ytick_1">
     <g id="line2d_7">
      <defs>
       <path id="md4d70c1039" d="M 0 0 
L -2 0 
" style="stroke: #000000; stroke-width: 0.35"/>
      </defs>
      <g>
       <use xlink:href="#md4d70c1039" x="29.06375" y="117.566795" style="stroke: #000000; stroke-width: 0.35"/>
      </g>
     </g>
     <g id="text_8">
      <!-- −40 -->
      <g transform="translate(10.84 120.343045) scale(0.08 -0.08)">
       <defs>
        <path id="CMUSerif-Roman-2212" d="M 365 1594 
C 365 1530 474 1523 531 1523 
L 563 1523 
C 614 1523 659 1530 710 1530 
L 4314 1530 
C 4352 1530 4384 1523 4422 1523 
L 4435 1523 
C 4506 1523 4602 1530 4602 1600 
C 4602 1683 4499 1670 4416 1670 
L 493 1670 
C 422 1670 365 1658 365 1594 
z
" transform="scale(0.015625)"/>
       </defs>
       <use xlink:href="#CMUSerif-Roman-2212"/>
       <use xlink:href="#CMUSerif-Roman-34" x="77.799988"/>
       <use xlink:href="#CMUSerif-Roman-30" x="127.799973"/>
      </g>
     </g>
    </g>
    <g id="ytick_2">
     <g id="line2d_8">
      <g>
       <use xlink:href="#md4d70c1039" x="29.06375" y="94.307274" style="stroke: #000000; stroke-width: 0.35"/>
      </g>
     </g>
     <g id="text_9">
      <!-- −20 -->
      <g transform="translate(10.84 97.083524) scale(0.08 -0.08)">
       <use xlink:href="#CMUSerif-Roman-2212"/>
       <use xlink:href="#CMUSerif-Roman-32" x="77.799988"/>
       <use xlink:href="#CMUSerif-Roman-30" x="127.799973"/>
      </g>
     </g>
    </g>
    <g id="ytick_3">
     <g id="line2d_9">
      <g>
       <use xlink:href="#md4d70c1039" x="29.06375" y="71.047753" style="stroke: #000000; stroke-width: 0.35"/>
      </g>
     </g>
     <g id="text_10">
      <!-- 0 -->
      <g transform="translate(21.06375 73.824003) scale(0.08 -0.08)">
       <use xlink:href="#CMUSerif-Roman-30"/>
      </g>
     </g>
    </g>
    <g id="ytick_4">
     <g id="line2d_10">
      <g>
       <use xlink:href="#md4d70c1039" x="29.06375" y="47.788232" style="stroke: #000000; stroke-width: 0.35"/>
      </g>
     </g>
     <g id="text_11">
      <!-- 20 -->
      <g transform="translate(17.06375 50.564482) scale(0.08 -0.08)">
       <use xlink:href="#CMUSerif-Roman-32"/>
       <use xlink:href="#CMUSerif-Roman-30" x="49.999985"/>
      </g>
     </g>
    </g>
    <g id="ytick_5">
     <g id="line2d_11">
      <g>
       <use xlink:href="#md4d70c1039" x="29.06375" y="24.528711" style="stroke: #000000; stroke-width: 0.35"/>
      </g>
     </g>
     <g id="text_12">
      <!-- 40 -->
      <g transform="translate(17.06375 27.304961) scale(0.08 -0.08)">
       <use xlink:href="#CMUSerif-Roman-34"/>
       <use xlink:href="#CMUSerif-Roman-30" x="49.999985"/>
      </g>
     </g>
    </g>
    <g id="text_13">
     <!-- Hourglass Potential $\;\; U_{\rm pore}$  (K) -->
     <g transform="translate(6.36 125.927753) rotate(-90) scale(0.08 -0.08)">
      <defs>
       <path id="CMUSerif-Roman-75" d="M 205 2560 
C 704 2560 704 2541 704 1971 
L 704 1011 
C 704 512 704 -70 1677 -70 
C 2035 -70 2317 109 2502 506 
L 2502 -70 
L 3424 0 
L 3424 198 
C 2976 198 2925 243 2925 557 
L 2925 2829 
L 1984 2758 
L 1984 2560 
C 2432 2560 2483 2515 2483 2202 
L 2483 1062 
C 2483 506 2176 70 1709 70 
C 1171 70 1146 371 1146 704 
L 1146 2829 
L 205 2758 
L 205 2560 
z
" transform="scale(0.015625)"/>
       <path id="CMUSerif-Roman-67" d="M 179 -506 
C 179 -966 813 -1318 1594 -1318 
C 2349 -1318 3014 -992 3014 -493 
C 3014 -269 2925 58 2598 237 
C 2259 416 1888 416 1498 416 
C 1338 416 1062 416 1018 422 
C 813 448 678 646 678 851 
C 678 877 678 1024 787 1152 
C 1037 973 1299 954 1421 954 
C 2016 954 2458 1395 2458 1888 
C 2458 2125 2355 2362 2195 2509 
C 2426 2726 2656 2758 2771 2758 
C 2784 2758 2816 2758 2835 2752 
C 2765 2726 2733 2656 2733 2579 
C 2733 2470 2816 2394 2918 2394 
C 2982 2394 3104 2438 3104 2586 
C 3104 2694 3027 2899 2778 2899 
C 2650 2899 2368 2861 2099 2598 
C 1830 2810 1562 2829 1421 2829 
C 826 2829 384 2387 384 1894 
C 384 1613 525 1370 685 1235 
C 602 1139 486 928 486 704 
C 486 506 570 262 768 134 
C 384 26 179 -250 179 -506 
z
M 512 -506 
C 512 -211 755 26 1037 45 
L 1414 45 
C 1965 45 2682 45 2682 -506 
C 2682 -851 2227 -1171 1600 -1171 
C 954 -1171 512 -845 512 -506 
z
M 864 1888 
C 864 2061 870 2266 966 2426 
C 1018 2502 1165 2682 1421 2682 
C 1978 2682 1978 2042 1978 1894 
C 1978 1722 1971 1517 1875 1357 
C 1824 1280 1677 1101 1421 1101 
C 864 1101 864 1741 864 1888 
z
" transform="scale(0.015625)"/>
       <path id="CMUSerif-Roman-6c" d="M 211 0 
C 422 6 762 19 922 19 
C 1082 19 1395 6 1632 0 
L 1632 198 
C 1203 198 1133 198 1133 486 
L 1133 4442 
L 211 4371 
L 211 4173 
C 659 4173 710 4128 710 3814 
L 710 486 
C 710 198 640 198 211 198 
L 211 0 
z
" transform="scale(0.015625)"/>
       <path id="CMUSerif-Roman-50" d="M 224 0 
C 448 19 922 19 1165 19 
C 1408 19 1888 19 2112 0 
L 2112 198 
L 1958 198 
C 1466 198 1453 269 1453 499 
L 1453 2022 
L 2534 2022 
C 3302 2022 3994 2541 3994 3181 
C 3994 3808 3360 4371 2483 4371 
L 224 4371 
L 224 4173 
L 378 4173 
C 870 4173 883 4102 883 3872 
L 883 499 
C 883 269 870 198 378 198 
L 224 198 
L 224 0 
z
M 1434 2189 
L 1434 3917 
C 1434 4128 1446 4173 1747 4173 
L 2317 4173 
C 3334 4173 3334 3494 3334 3181 
C 3334 2880 3334 2189 2317 2189 
L 1434 2189 
z
" transform="scale(0.015625)"/>
       <path id="Cmmi10-55" d="M 941 891 
Q 941 656 1033 472 
Q 1125 288 1300 186 
Q 1475 84 1709 84 
Q 1984 84 2245 196 
Q 2506 309 2715 509 
Q 2925 709 3073 965 
Q 3222 1222 3284 1472 
L 3859 3781 
Q 3872 3850 3872 3878 
Q 3872 4147 3378 4147 
Q 3316 4147 3316 4231 
Q 3338 4313 3350 4342 
Q 3363 4372 3425 4372 
L 4813 4372 
Q 4841 4372 4859 4344 
Q 4878 4316 4878 4288 
Q 4878 4284 4865 4239 
Q 4853 4194 4836 4170 
Q 4819 4147 4794 4147 
Q 4181 4147 4084 3756 
L 3506 1447 
Q 3434 1147 3264 864 
Q 3094 581 2845 351 
Q 2597 122 2298 -9 
Q 2000 -141 1691 -141 
Q 1338 -141 1045 14 
Q 753 169 587 447 
Q 422 725 422 1088 
Q 422 1297 469 1472 
L 1088 3956 
Q 1100 4019 1100 4044 
Q 1100 4113 1025 4122 
Q 903 4147 563 4147 
Q 500 4147 500 4231 
Q 522 4313 534 4342 
Q 547 4372 609 4372 
L 2328 4372 
Q 2394 4372 2394 4288 
Q 2391 4272 2381 4234 
Q 2372 4197 2356 4172 
Q 2341 4147 2309 4147 
Q 1919 4147 1766 4103 
Q 1681 4072 1644 3928 
L 1025 1447 
Q 941 1109 941 891 
z
" transform="scale(0.015625)"/>
       <path id="Cmr10-70" d="M 166 -1241 
L 166 -1019 
Q 384 -1019 525 -981 
Q 666 -944 666 -813 
L 666 2272 
Q 666 2447 541 2490 
Q 416 2534 166 2534 
L 166 2759 
L 1113 2828 
L 1113 2431 
Q 1288 2625 1520 2726 
Q 1753 2828 2016 2828 
Q 2394 2828 2697 2623 
Q 3000 2419 3170 2086 
Q 3341 1753 3341 1381 
Q 3341 994 3152 659 
Q 2963 325 2636 126 
Q 2309 -72 1919 -72 
Q 1453 -72 1131 306 
L 1131 -813 
Q 1131 -944 1273 -981 
Q 1416 -1019 1631 -1019 
L 1631 -1241 
L 166 -1241 
z
M 1131 622 
Q 1244 394 1444 245 
Q 1644 97 1881 97 
Q 2103 97 2273 215 
Q 2444 334 2559 534 
Q 2675 734 2729 954 
Q 2784 1175 2784 1381 
Q 2784 1638 2692 1936 
Q 2600 2234 2411 2439 
Q 2222 2644 1953 2644 
Q 1694 2644 1476 2511 
Q 1259 2378 1131 2150 
L 1131 622 
z
" transform="scale(0.015625)"/>
       <path id="Cmr10-6f" d="M 1600 -72 
Q 1216 -72 887 123 
Q 559 319 368 647 
Q 178 975 178 1363 
Q 178 1656 283 1928 
Q 388 2200 583 2414 
Q 778 2628 1037 2748 
Q 1297 2869 1600 2869 
Q 1994 2869 2317 2661 
Q 2641 2453 2828 2104 
Q 3016 1756 3016 1363 
Q 3016 978 2825 648 
Q 2634 319 2307 123 
Q 1981 -72 1600 -72 
z
M 1600 116 
Q 2113 116 2284 487 
Q 2456 859 2456 1434 
Q 2456 1756 2422 1967 
Q 2388 2178 2272 2350 
Q 2200 2456 2089 2536 
Q 1978 2616 1854 2658 
Q 1731 2700 1600 2700 
Q 1400 2700 1220 2609 
Q 1041 2519 922 2350 
Q 803 2169 770 1951 
Q 738 1734 738 1434 
Q 738 1075 800 789 
Q 863 503 1052 309 
Q 1241 116 1600 116 
z
" transform="scale(0.015625)"/>
       <path id="Cmr10-72" d="M 166 0 
L 166 225 
Q 384 225 525 259 
Q 666 294 666 428 
L 666 2175 
Q 666 2347 614 2423 
Q 563 2500 466 2517 
Q 369 2534 166 2534 
L 166 2759 
L 1081 2828 
L 1081 2203 
Q 1184 2481 1375 2654 
Q 1566 2828 1838 2828 
Q 2028 2828 2178 2715 
Q 2328 2603 2328 2419 
Q 2328 2303 2245 2217 
Q 2163 2131 2041 2131 
Q 1922 2131 1837 2215 
Q 1753 2300 1753 2419 
Q 1753 2591 1875 2663 
L 1838 2663 
Q 1578 2663 1414 2475 
Q 1250 2288 1181 2009 
Q 1113 1731 1113 1478 
L 1113 428 
Q 1113 225 1734 225 
L 1734 0 
L 166 0 
z
" transform="scale(0.015625)"/>
       <path id="Cmr10-65" d="M 1594 -72 
Q 1203 -72 876 133 
Q 550 338 364 680 
Q 178 1022 178 1403 
Q 178 1778 348 2115 
Q 519 2453 823 2661 
Q 1128 2869 1503 2869 
Q 1797 2869 2014 2770 
Q 2231 2672 2372 2497 
Q 2513 2322 2584 2084 
Q 2656 1847 2656 1563 
Q 2656 1478 2591 1478 
L 738 1478 
L 738 1409 
Q 738 878 952 497 
Q 1166 116 1650 116 
Q 1847 116 2014 203 
Q 2181 291 2304 447 
Q 2428 603 2472 781 
Q 2478 803 2495 820 
Q 2513 838 2534 838 
L 2591 838 
Q 2656 838 2656 756 
Q 2566 394 2266 161 
Q 1966 -72 1594 -72 
z
M 744 1638 
L 2203 1638 
Q 2203 1878 2136 2125 
Q 2069 2372 1912 2536 
Q 1756 2700 1503 2700 
Q 1141 2700 942 2361 
Q 744 2022 744 1638 
z
" transform="scale(0.015625)"/>
       <path id="CMUSerif-Roman-28" d="M 634 1600 
C 634 1101 704 326 1056 -397 
C 1440 -1184 1990 -1600 2054 -1600 
C 2093 -1600 2118 -1581 2118 -1536 
C 2118 -1517 2118 -1504 2010 -1395 
C 1210 -589 1005 621 1005 1600 
C 1005 2714 1248 3827 2035 4627 
C 2118 4704 2118 4717 2118 4736 
C 2118 4781 2093 4800 2054 4800 
C 1990 4800 1414 4365 1037 3552 
C 710 2848 634 2138 634 1600 
z
" transform="scale(0.015625)"/>
       <path id="CMUSerif-Roman-4b" d="M 211 0 
C 435 19 909 19 1152 19 
C 1395 19 1875 19 2099 0 
L 2099 198 
L 1946 198 
C 1453 198 1440 269 1440 499 
L 1440 1619 
L 2182 2323 
L 3341 608 
C 3379 550 3437 467 3437 390 
C 3437 198 3187 198 3059 198 
L 3059 0 
C 3283 19 3731 19 3974 19 
C 4198 19 4442 13 4710 0 
L 4710 198 
C 4365 198 4230 224 4038 506 
L 2560 2682 
L 3712 3789 
C 3763 3840 4102 4166 4621 4173 
L 4621 4371 
C 4454 4352 4250 4352 4077 4352 
C 3846 4352 3482 4352 3264 4371 
L 3264 4173 
C 3520 4166 3558 4019 3558 3962 
C 3558 3859 3494 3795 3443 3750 
L 1440 1837 
L 1440 3872 
C 1440 4102 1453 4173 1946 4173 
L 2099 4173 
L 2099 4371 
C 1875 4352 1402 4352 1158 4352 
C 915 4352 435 4352 211 4371 
L 211 4173 
L 365 4173 
C 858 4173 870 4102 870 3872 
L 870 499 
C 870 269 858 198 365 198 
L 211 198 
L 211 0 
z
" transform="scale(0.015625)"/>
       <path id="CMUSerif-Roman-29" d="M 365 -1536 
C 365 -1574 390 -1600 429 -1600 
C 493 -1600 1069 -1165 1446 -352 
C 1773 352 1850 1062 1850 1600 
C 1850 2099 1779 2874 1427 3597 
C 1043 4384 493 4800 429 4800 
C 390 4800 365 4774 365 4736 
C 365 4717 365 4704 486 4589 
C 1114 3955 1478 2938 1478 1600 
C 1478 506 1242 -621 448 -1427 
C 365 -1504 365 -1517 365 -1536 
z
" transform="scale(0.015625)"/>
      </defs>
      <use xlink:href="#CMUSerif-Roman-48"/>
      <use xlink:href="#CMUSerif-Roman-6f" transform="translate(74.999985 0)"/>
      <use xlink:href="#CMUSerif-Roman-75" transform="translate(124.999969 0)"/>
      <use xlink:href="#CMUSerif-Roman-72" transform="translate(180.499954 0)"/>
      <use xlink:href="#CMUSerif-Roman-67" transform="translate(219.599945 0)"/>
      <use xlink:href="#CMUSerif-Roman-6c" transform="translate(269.59993 0)"/>
      <use xlink:href="#CMUSerif-Roman-61" transform="translate(297.299927 0)"/>
      <use xlink:href="#CMUSerif-Roman-73" transform="translate(347.299911 0)"/>
      <use xlink:href="#CMUSerif-Roman-73" transform="translate(386.699905 0)"/>
      <use xlink:href="#CMUSerif-Roman-20" transform="translate(426.099899 0)"/>
      <use xlink:href="#CMUSerif-Roman-50" transform="translate(459.399887 0)"/>
      <use xlink:href="#CMUSerif-Roman-6f" transform="translate(527.399872 0)"/>
      <use xlink:href="#CMUSerif-Roman-74" transform="translate(577.399857 0)"/>
      <use xlink:href="#CMUSerif-Roman-65" transform="translate(616.199844 0)"/>
      <use xlink:href="#CMUSerif-Roman-6e" transform="translate(660.599838 0)"/>
      <use xlink:href="#CMUSerif-Roman-74" transform="translate(716.099823 0)"/>
      <use xlink:href="#CMUSerif-Roman-69" transform="translate(754.899811 0)"/>
      <use xlink:href="#CMUSerif-Roman-61" transform="translate(782.599808 0)"/>
      <use xlink:href="#CMUSerif-Roman-6c" transform="translate(832.599792 0)"/>
      <use xlink:href="#CMUSerif-Roman-20" transform="translate(860.299789 0)"/>
      <use xlink:href="#Cmmi10-55" transform="translate(942.374039 0)"/>
      <use xlink:href="#Cmr10-70" transform="translate(1010.58693 -17.00625) scale(0.7)"/>
      <use xlink:href="#Cmr10-6f" transform="translate(1049.449234 -17.00625) scale(0.7)"/>
      <use xlink:href="#Cmr10-72" transform="translate(1084.449234 -17.00625) scale(0.7)"/>
      <use xlink:href="#Cmr10-65" transform="translate(1111.827164 -17.00625) scale(0.7)"/>
      <use xlink:href="#CMUSerif-Roman-20" transform="translate(1149.273844 0)"/>
      <use xlink:href="#CMUSerif-Roman-20" transform="translate(1182.573831 0)"/>
      <use xlink:href="#CMUSerif-Roman-28" transform="translate(1215.873819 0)"/>
      <use xlink:href="#CMUSerif-Roman-4b" transform="translate(1254.673807 0)"/>
      <use xlink:href="#CMUSerif-Roman-29" transform="translate(1332.373789 0)"/>
     </g>
    </g>
   </g>
   <g id="line2d_12">
    <path d="M 29.06375 76.933192 
L 39.52616 77.044193 
L 49.45586 77.368069 
L 58.4693 77.880165 
L 66.417322 78.549506 
L 73.385159 79.354861 
L 79.479353 80.278238 
L 84.849062 81.311892 
L 89.622137 82.452874 
L 93.90512 83.702194 
L 97.761935 85.055229 
L 101.277816 86.520739 
L 104.516688 88.109106 
L 107.521168 89.828062 
L 110.333873 91.691443 
L 112.997419 93.721313 
L 115.554423 95.950105 
L 118.026194 98.399932 
L 120.476657 101.144623 
L 122.969736 104.277503 
L 125.675899 108.04996 
L 132.750278 118.166565 
L 133.837005 119.190957 
L 134.668031 119.684641 
L 135.328591 119.831612 
L 135.903917 119.733553 
L 136.436626 119.412539 
L 136.969335 118.824695 
L 137.523353 117.873648 
L 138.119987 116.381991 
L 138.73793 114.215273 
L 139.398489 111.038558 
L 140.080357 106.601762 
L 140.783533 100.483308 
L 141.508018 92.11058 
L 142.232502 81.071279 
L 142.978295 66.14644 
L 143.724088 46.580919 
L 144.469881 21.022297 
L 144.984176 -1 
L 144.984176 -1 
" clip-path="url(#p783221ea80)" style="fill: none; stroke: #9e0142; stroke-width: 0.75; stroke-linecap: round"/>
   </g>
   <g id="line2d_13">
    <path d="M 29.06375 75.823219 
L 41.507838 75.934399 
L 53.184825 76.25693 
L 63.562001 76.760491 
L 72.554133 77.413718 
L 80.31038 78.195034 
L 87.001208 79.087163 
L 92.839701 80.085073 
L 97.975018 81.18386 
L 102.535009 82.382578 
L 106.626216 83.683987 
L 110.333873 85.093405 
L 113.721904 86.616292 
L 116.854234 88.266274 
L 119.773481 90.054564 
L 122.52226 91.999444 
L 125.121881 94.109938 
L 127.636269 96.438216 
L 130.086732 99.01106 
L 132.537194 101.907995 
L 135.094199 105.280944 
L 138.141295 109.694029 
L 142.445586 115.934484 
L 143.83063 117.533737 
L 144.810815 118.355329 
L 145.577917 118.730804 
L 146.217168 118.804131 
L 146.771185 118.645903 
L 147.303895 118.25683 
L 147.857912 117.555238 
L 148.433238 116.440287 
L 149.029872 114.779977 
L 149.669124 112.304874 
L 150.329683 108.814326 
L 151.011551 103.973674 
L 151.714727 97.331448 
L 152.439212 88.273743 
L 153.185005 75.958529 
L 153.930798 59.750694 
L 154.676591 38.524758 
L 155.422383 10.809164 
L 155.688435 -1 
L 155.688435 -1 
" clip-path="url(#p783221ea80)" style="fill: none; stroke: #e2514a; stroke-width: 0.75; stroke-linecap: round"/>
   </g>
   <g id="line2d_14">
    <path d="M 29.06375 75.389394 
L 42.53064 75.500657 
L 55.08127 75.82206 
L 66.140314 76.321864 
L 75.643847 76.968323 
L 83.762336 77.73797 
L 90.730172 78.616252 
L 96.78175 79.598141 
L 102.087534 80.679991 
L 106.775375 81.858265 
L 110.973124 83.138703 
L 114.766014 84.524944 
L 118.21797 86.020033 
L 121.392917 87.634106 
L 124.35478 89.387704 
L 127.124868 91.284256 
L 129.767106 93.363178 
L 132.302802 95.643084 
L 134.774573 98.167668 
L 137.225036 100.991494 
L 139.760732 104.260114 
L 142.637362 108.349036 
L 147.879221 115.890427 
L 149.157723 117.29389 
L 150.095291 118.021826 
L 150.841084 118.336225 
L 151.459027 118.362377 
L 152.013044 118.159824 
L 152.545754 117.719936 
L 153.099771 116.955329 
L 153.675097 115.761801 
L 154.29304 113.928939 
L 154.932291 111.297174 
L 155.59285 107.606314 
L 156.296027 102.323943 
L 156.999203 95.287671 
L 157.723687 85.71456 
L 158.46948 72.719335 
L 159.215273 55.634389 
L 159.961066 33.273322 
L 160.706859 4.083146 
L 160.818648 -1 
L 160.818648 -1 
" clip-path="url(#p783221ea80)" style="fill: none; stroke: #fca55d; stroke-width: 0.75; stroke-linecap: round"/>
   </g>
   <g id="line2d_15">
    <path d="M 29.06375 74.72478 
L 44.49101 74.835787 
L 58.725001 75.155197 
L 71.041239 75.647406 
L 81.439723 76.278772 
L 90.218772 77.028366 
L 97.676701 77.882174 
L 104.111829 78.837821 
L 109.694622 79.88656 
L 114.616855 81.032928 
L 119.006379 82.280415 
L 122.948428 83.629249 
L 126.528234 85.087048 
L 129.809723 86.661935 
L 132.835511 88.358346 
L 135.669525 90.20044 
L 138.354379 92.210972 
L 140.911384 94.403373 
L 143.404463 96.836729 
L 145.854925 99.542402 
L 148.348005 102.631435 
L 151.054168 106.349467 
L 157.894154 115.972983 
L 159.00219 117.018641 
L 159.833216 117.52014 
L 160.493775 117.680701 
L 161.069101 117.600948 
L 161.601811 117.303232 
L 162.13452 116.745805 
L 162.688538 115.835188 
L 163.285172 114.398824 
L 163.903115 112.304557 
L 164.563674 109.225696 
L 165.245542 104.916566 
L 165.948718 98.964279 
L 166.673203 90.807705 
L 167.397687 80.040869 
L 168.14348 65.469617 
L 168.889273 46.350358 
L 169.635066 21.354453 
L 170.166837 -1 
L 170.166837 -1 
" clip-path="url(#p783221ea80)" style="fill: none; stroke: #fee999; stroke-width: 0.75; stroke-linecap: round"/>
   </g>
   <g id="line2d_16">
    <path d="M 29.06375 73.789897 
L 48.710067 73.900978 
L 66.396014 74.216728 
L 81.162714 74.694991 
L 93.265868 75.302086 
L 103.238186 76.01806 
L 111.569758 76.832707 
L 118.644137 77.742141 
L 124.738331 78.744995 
L 130.044115 79.838837 
L 134.731956 81.028421 
L 138.908397 82.313819 
L 142.679978 83.704217 
L 146.110626 85.203009 
L 149.264265 86.820508 
L 152.20482 88.577319 
L 154.953599 90.476561 
L 157.574529 92.557392 
L 160.088916 94.837561 
L 162.560687 97.382725 
L 165.032458 100.253355 
L 167.610771 103.598024 
L 170.700485 107.995946 
L 174.749075 113.739901 
L 176.134119 115.31524 
L 177.135612 116.14246 
L 177.902714 116.510651 
L 178.541965 116.581743 
L 179.095982 116.424917 
L 179.628692 116.040577 
L 180.182709 115.347941 
L 180.758035 114.247275 
L 181.35467 112.607944 
L 181.993921 110.163353 
L 182.65448 106.714455 
L 183.336348 101.929341 
L 184.039524 95.359932 
L 184.764009 86.396486 
L 185.509802 74.202061 
L 186.255595 58.142987 
L 187.001388 37.098057 
L 187.747181 9.600217 
L 187.988842 -1 
L 187.988842 -1 
" clip-path="url(#p783221ea80)" style="fill: none; stroke: #edf8a3; stroke-width: 0.75; stroke-linecap: round"/>
   </g>
   <g id="line2d_17">
    <path d="M 29.06375 72.921292 
L 55.912296 73.032429 
L 79.095803 73.342111 
L 97.442309 73.80024 
L 111.868075 74.374264 
L 123.417212 75.048602 
L 132.85682 75.815235 
L 140.740917 76.672139 
L 147.431745 77.616893 
L 153.206313 78.651326 
L 158.256397 79.777018 
L 162.731154 80.998347 
L 166.737128 82.319013 
L 170.359551 83.744577 
L 173.662348 85.280127 
L 176.709445 86.938669 
L 179.564767 88.744664 
L 182.249621 90.704627 
L 184.827934 92.86361 
L 187.321013 95.244102 
L 189.771476 97.893552 
L 192.264555 100.920239 
L 194.992026 104.592517 
L 201.555004 113.626821 
L 202.684348 114.690888 
L 203.536683 115.209872 
L 204.21855 115.380218 
L 204.793876 115.306186 
L 205.326586 115.018658 
L 205.859295 114.476882 
L 206.413313 113.589253 
L 207.009947 112.186547 
L 207.62789 110.138548 
L 208.288449 107.124318 
L 208.970317 102.901497 
L 209.673493 97.063228 
L 210.397978 89.056195 
L 211.122462 78.478348 
L 211.868255 64.151817 
L 212.614048 45.339423 
L 213.359841 20.726469 
L 213.885011 -1 
L 213.885011 -1 
" clip-path="url(#p783221ea80)" style="fill: none; stroke: #a2d9a4; stroke-width: 0.75; stroke-linecap: round"/>
   </g>
   <g id="line2d_18">
    <path d="M 29.06375 72.794365 
L 57.489115 72.90546 
L 81.801965 73.213505 
L 100.851648 73.667499 
L 115.72489 74.235654 
L 127.572344 74.903096 
L 137.225036 75.662748 
L 145.258291 76.511861 
L 152.055661 77.447931 
L 157.915463 78.474144 
L 163.029471 79.590893 
L 167.546846 80.800649 
L 171.595436 82.112047 
L 175.239167 83.522456 
L 178.563273 85.043662 
L 181.631678 86.689009 
L 184.508308 88.483236 
L 187.214471 90.433499 
L 189.792784 92.566294 
L 192.285863 94.918559 
L 194.736326 97.537957 
L 197.229405 100.533172 
L 199.935568 104.144443 
L 206.83948 113.587041 
L 207.926207 114.570974 
L 208.757233 115.044478 
L 209.417793 115.183797 
L 209.993119 115.086321 
L 210.525828 114.772845 
L 211.079846 114.171269 
L 211.655172 113.187416 
L 212.251806 111.69787 
L 212.891057 109.45289 
L 213.551617 106.262199 
L 214.233484 101.812021 
L 214.936661 95.678745 
L 215.661145 87.285977 
L 216.38563 76.21593 
L 217.131423 61.2388 
L 217.877216 41.58554 
L 218.623009 15.881976 
L 219.022897 -1 
L 219.022897 -1 
" clip-path="url(#p783221ea80)" style="fill: none; stroke: #47a0b3; stroke-width: 0.75; stroke-linecap: round"/>
   </g>
   <g id="line2d_19">
    <path d="M 29.06375 72.792024 
L 57.531732 72.903212 
L 81.865891 73.211328 
L 100.936882 73.66562 
L 115.810124 74.233563 
L 127.657577 74.900696 
L 137.310269 75.659952 
L 145.343524 76.508584 
L 152.140894 77.44409 
L 158.000696 78.469651 
L 163.114705 79.585656 
L 167.632079 80.794572 
L 171.68067 82.105027 
L 175.324401 83.514388 
L 178.669815 85.045 
L 181.73822 86.690827 
L 184.61485 88.485595 
L 187.321013 90.436461 
L 189.899326 92.569922 
L 192.392405 94.922915 
L 194.842868 97.543091 
L 197.335947 100.539105 
L 200.04211 104.151101 
L 206.924713 113.568408 
L 208.01144 114.556786 
L 208.842467 115.03522 
L 209.503026 115.179692 
L 210.078352 115.08781 
L 210.611061 114.78062 
L 211.165079 114.186924 
L 211.740405 113.212985 
L 212.337039 111.735964 
L 212.976291 109.507486 
L 213.63685 106.337968 
L 214.318718 101.915115 
L 215.021894 95.817329 
L 215.746379 87.470985 
L 216.470863 76.460173 
L 217.216656 61.561307 
L 217.962449 42.009121 
L 218.708242 16.43652 
L 219.122294 -1 
L 219.122294 -1 
" clip-path="url(#p783221ea80)" style="fill: none; stroke: #5e4fa2; stroke-width: 0.75; stroke-linecap: round"/>
   </g>
   <g id="patch_3">
    <path d="M 29.06375 119.892747 
L 29.06375 22.202759 
" style="fill: none; stroke: #000000; stroke-width: 0.35; stroke-linejoin: miter; stroke-linecap: square"/>
   </g>
   <g id="patch_4">
    <path d="M 251.389723 119.892747 
L 251.389723 22.202759 
" style="fill: none; stroke: #000000; stroke-width: 0.35; stroke-linejoin: miter; stroke-linecap: square"/>
   </g>
   <g id="patch_5">
    <path d="M 29.06375 119.892747 
L 251.389723 119.892747 
" style="fill: none; stroke: #000000; stroke-width: 0.35; stroke-linejoin: miter; stroke-linecap: square"/>
   </g>
   <g id="patch_6">
    <path d="M 29.06375 22.202759 
L 251.389723 22.202759 
" style="fill: none; stroke: #000000; stroke-width: 0.35; stroke-linejoin: miter; stroke-linecap: square"/>
   </g>
   <g id="legend_1">
    <g id="line2d_20">
     <path d="M 256.812982 6.36 
L 260.812982 6.36 
L 264.812982 6.36 
" style="fill: none; stroke: #9e0142; stroke-width: 0.75; stroke-linecap: round"/>
    </g>
    <g id="text_14">
     <!-- $x=0$ -->
     <g transform="translate(271.212982 9.16) scale(0.08 -0.08)">
      <defs>
       <path id="Cmmi10-78" d="M 500 184 
Q 613 97 819 97 
Q 1019 97 1172 289 
Q 1325 481 1381 709 
L 1672 1844 
Q 1741 2153 1741 2266 
Q 1741 2425 1652 2544 
Q 1563 2663 1403 2663 
Q 1200 2663 1022 2536 
Q 844 2409 722 2214 
Q 600 2019 550 1819 
Q 538 1778 500 1778 
L 422 1778 
Q 372 1778 372 1838 
L 372 1856 
Q 434 2094 584 2320 
Q 734 2547 951 2687 
Q 1169 2828 1416 2828 
Q 1650 2828 1839 2703 
Q 2028 2578 2106 2363 
Q 2216 2559 2386 2693 
Q 2556 2828 2759 2828 
Q 2897 2828 3040 2779 
Q 3184 2731 3275 2631 
Q 3366 2531 3366 2381 
Q 3366 2219 3261 2101 
Q 3156 1984 2994 1984 
Q 2891 1984 2822 2050 
Q 2753 2116 2753 2216 
Q 2753 2350 2845 2451 
Q 2938 2553 3066 2572 
Q 2950 2663 2747 2663 
Q 2541 2663 2389 2472 
Q 2238 2281 2175 2047 
L 1894 916 
Q 1825 659 1825 494 
Q 1825 331 1917 214 
Q 2009 97 2163 97 
Q 2463 97 2698 361 
Q 2934 625 3009 941 
Q 3022 978 3059 978 
L 3138 978 
Q 3163 978 3178 961 
Q 3194 944 3194 922 
Q 3194 916 3188 903 
Q 3097 522 2806 225 
Q 2516 -72 2150 -72 
Q 1916 -72 1727 54 
Q 1538 181 1459 397 
Q 1359 209 1182 68 
Q 1006 -72 806 -72 
Q 669 -72 523 -23 
Q 378 25 287 125 
Q 197 225 197 378 
Q 197 528 301 651 
Q 406 775 563 775 
Q 669 775 741 711 
Q 813 647 813 544 
Q 813 409 723 309 
Q 634 209 500 184 
z
" transform="scale(0.015625)"/>
       <path id="Cmr10-3d" d="M 481 850 
Q 428 850 393 890 
Q 359 931 359 978 
Q 359 1031 393 1068 
Q 428 1106 481 1106 
L 4500 1106 
Q 4547 1106 4581 1068 
Q 4616 1031 4616 978 
Q 4616 931 4581 890 
Q 4547 850 4500 850 
L 481 850 
z
M 481 2094 
Q 428 2094 393 2131 
Q 359 2169 359 2222 
Q 359 2269 393 2309 
Q 428 2350 481 2350 
L 4500 2350 
Q 4547 2350 4581 2309 
Q 4616 2269 4616 2222 
Q 4616 2169 4581 2131 
Q 4547 2094 4500 2094 
L 481 2094 
z
" transform="scale(0.015625)"/>
      </defs>
      <use xlink:href="#Cmmi10-78" transform="translate(0 0.390625)"/>
      <use xlink:href="#Cmr10-3d" transform="translate(74.638672 0.390625)"/>
      <use xlink:href="#Cmr10-30" transform="translate(169.882812 0.390625)"/>
     </g>
    </g>
    <g id="line2d_21">
     <path d="M 256.812982 17.9125 
L 260.812982 17.9125 
L 264.812982 17.9125 
" style="fill: none; stroke: #e2514a; stroke-width: 0.75; stroke-linecap: round"/>
    </g>
    <g id="text_15">
     <!-- $|x|=w/5$ -->
     <g transform="translate(271.212982 20.7125) scale(0.08 -0.08)">
      <defs>
       <path id="Cmsy10-6a" d="M 763 -1484 
L 763 4684 
Q 763 4734 800 4767 
Q 838 4800 891 4800 
Q 938 4800 978 4767 
Q 1019 4734 1019 4684 
L 1019 -1484 
Q 1019 -1534 978 -1567 
Q 938 -1600 891 -1600 
Q 838 -1600 800 -1567 
Q 763 -1534 763 -1484 
z
" transform="scale(0.015625)"/>
       <path id="Cmmi10-77" d="M 691 744 
Q 691 878 727 1053 
Q 763 1228 806 1364 
Q 850 1500 954 1781 
Q 1059 2063 1069 2088 
Q 1153 2322 1153 2472 
Q 1153 2663 1013 2663 
Q 759 2663 595 2402 
Q 431 2141 353 1819 
Q 341 1778 300 1778 
L 225 1778 
Q 172 1778 172 1838 
L 172 1856 
Q 275 2238 487 2533 
Q 700 2828 1025 2828 
Q 1253 2828 1411 2678 
Q 1569 2528 1569 2297 
Q 1569 2178 1516 2047 
Q 1441 1853 1339 1581 
Q 1238 1309 1181 1087 
Q 1125 866 1125 659 
Q 1125 409 1256 253 
Q 1388 97 1638 97 
Q 1978 97 2203 616 
Q 2194 653 2194 722 
Q 2194 894 2247 1113 
L 2606 2553 
Q 2628 2638 2706 2698 
Q 2784 2759 2875 2759 
Q 2950 2759 3008 2709 
Q 3066 2659 3066 2578 
Q 3066 2541 3059 2528 
L 2700 1100 
Q 2638 844 2638 641 
Q 2638 400 2748 248 
Q 2859 97 3097 97 
Q 3509 97 3775 641 
Q 3875 834 3998 1212 
Q 4122 1591 4122 1791 
Q 4122 1975 4062 2083 
Q 4003 2191 3898 2316 
Q 3794 2441 3794 2503 
Q 3794 2625 3898 2729 
Q 4003 2834 4128 2834 
Q 4281 2834 4348 2693 
Q 4416 2553 4416 2375 
Q 4416 2159 4344 1826 
Q 4272 1494 4162 1158 
Q 4053 822 3956 622 
Q 3606 -72 3084 -72 
Q 2816 -72 2594 31 
Q 2372 134 2266 359 
Q 2163 175 1995 51 
Q 1828 -72 1625 -72 
Q 1203 -72 947 129 
Q 691 331 691 744 
z
" transform="scale(0.015625)"/>
       <path id="Cmr10-35" d="M 556 728 
Q 622 541 758 387 
Q 894 234 1080 148 
Q 1266 63 1466 63 
Q 1928 63 2103 422 
Q 2278 781 2278 1294 
Q 2278 1516 2270 1667 
Q 2263 1819 2228 1959 
Q 2169 2184 2020 2353 
Q 1872 2522 1656 2522 
Q 1441 2522 1286 2456 
Q 1131 2391 1034 2303 
Q 938 2216 863 2119 
Q 788 2022 769 2016 
L 697 2016 
Q 681 2016 657 2036 
Q 634 2056 634 2075 
L 634 4213 
Q 634 4228 654 4245 
Q 675 4263 697 4263 
L 716 4263 
Q 1147 4056 1631 4056 
Q 2106 4056 2547 4263 
L 2566 4263 
Q 2588 4263 2606 4247 
Q 2625 4231 2625 4213 
L 2625 4153 
Q 2625 4122 2613 4122 
Q 2394 3831 2064 3668 
Q 1734 3506 1381 3506 
Q 1125 3506 856 3578 
L 856 2369 
Q 1069 2541 1236 2614 
Q 1403 2688 1663 2688 
Q 2016 2688 2295 2484 
Q 2575 2281 2725 1954 
Q 2875 1628 2875 1288 
Q 2875 903 2686 575 
Q 2497 247 2172 53 
Q 1847 -141 1466 -141 
Q 1150 -141 886 21 
Q 622 184 470 459 
Q 319 734 319 1044 
Q 319 1188 412 1278 
Q 506 1369 647 1369 
Q 788 1369 883 1276 
Q 978 1184 978 1044 
Q 978 906 883 811 
Q 788 716 647 716 
Q 625 716 597 720 
Q 569 725 556 728 
z
" transform="scale(0.015625)"/>
      </defs>
      <use xlink:href="#Cmsy10-6a"/>
      <use xlink:href="#Cmmi10-78" transform="translate(27.685547 0)"/>
      <use xlink:href="#Cmsy10-6a" transform="translate(84.765625 0)"/>
      <use xlink:href="#Cmr10-3d" transform="translate(130.009766 0)"/>
      <use xlink:href="#Cmmi10-77" transform="translate(225.253906 0)"/>
      <use xlink:href="#Cmmi10-3d" transform="translate(296.738281 0)"/>
      <use xlink:href="#Cmr10-35" transform="translate(346.738281 0)"/>
     </g>
    </g>
    <g id="line2d_22">
     <path d="M 256.812982 29.9125 
L 260.812982 29.9125 
L 264.812982 29.9125 
" style="fill: none; stroke: #fca55d; stroke-width: 0.75; stroke-linecap: round"/>
    </g>
    <g id="text_16">
     <!-- $|x|=w/4$ -->
     <g transform="translate(271.212982 32.7125) scale(0.08 -0.08)">
      <use xlink:href="#Cmsy10-6a"/>
      <use xlink:href="#Cmmi10-78" transform="translate(27.685547 0)"/>
      <use xlink:href="#Cmsy10-6a" transform="translate(84.765625 0)"/>
      <use xlink:href="#Cmr10-3d" transform="translate(130.009766 0)"/>
      <use xlink:href="#Cmmi10-77" transform="translate(225.253906 0)"/>
      <use xlink:href="#Cmmi10-3d" transform="translate(296.738281 0)"/>
      <use xlink:href="#Cmr10-34" transform="translate(346.738281 0)"/>
     </g>
    </g>
    <g id="line2d_23">
     <path d="M 256.812982 41.9125 
L 260.812982 41.9125 
L 264.812982 41.9125 
" style="fill: none; stroke: #fee999; stroke-width: 0.75; stroke-linecap: round"/>
    </g>
    <g id="text_17">
     <!-- $|x|=w/3$ -->
     <g transform="translate(271.212982 44.7125) scale(0.08 -0.08)">
      <defs>
       <path id="Cmr10-33" d="M 609 494 
Q 759 275 1012 169 
Q 1266 63 1556 63 
Q 1928 63 2084 380 
Q 2241 697 2241 1100 
Q 2241 1281 2208 1462 
Q 2175 1644 2097 1800 
Q 2019 1956 1883 2050 
Q 1747 2144 1550 2144 
L 1125 2144 
Q 1069 2144 1069 2203 
L 1069 2259 
Q 1069 2309 1125 2309 
L 1478 2338 
Q 1703 2338 1851 2506 
Q 2000 2675 2069 2917 
Q 2138 3159 2138 3378 
Q 2138 3684 1994 3881 
Q 1850 4078 1556 4078 
Q 1313 4078 1091 3986 
Q 869 3894 738 3706 
Q 750 3709 759 3711 
Q 769 3713 781 3713 
Q 925 3713 1022 3613 
Q 1119 3513 1119 3372 
Q 1119 3234 1022 3134 
Q 925 3034 781 3034 
Q 641 3034 541 3134 
Q 441 3234 441 3372 
Q 441 3647 606 3850 
Q 772 4053 1033 4158 
Q 1294 4263 1556 4263 
Q 1750 4263 1965 4205 
Q 2181 4147 2356 4039 
Q 2531 3931 2642 3762 
Q 2753 3594 2753 3378 
Q 2753 3109 2633 2881 
Q 2513 2653 2303 2487 
Q 2094 2322 1844 2241 
Q 2122 2188 2372 2031 
Q 2622 1875 2773 1631 
Q 2925 1388 2925 1106 
Q 2925 753 2731 467 
Q 2538 181 2222 20 
Q 1906 -141 1556 -141 
Q 1256 -141 954 -26 
Q 653 88 461 316 
Q 269 544 269 863 
Q 269 1022 375 1128 
Q 481 1234 641 1234 
Q 744 1234 830 1186 
Q 916 1138 964 1050 
Q 1013 963 1013 863 
Q 1013 706 903 600 
Q 794 494 641 494 
L 609 494 
z
" transform="scale(0.015625)"/>
      </defs>
      <use xlink:href="#Cmsy10-6a"/>
      <use xlink:href="#Cmmi10-78" transform="translate(27.685547 0)"/>
      <use xlink:href="#Cmsy10-6a" transform="translate(84.765625 0)"/>
      <use xlink:href="#Cmr10-3d" transform="translate(130.009766 0)"/>
      <use xlink:href="#Cmmi10-77" transform="translate(225.253906 0)"/>
      <use xlink:href="#Cmmi10-3d" transform="translate(296.738281 0)"/>
      <use xlink:href="#Cmr10-33" transform="translate(346.738281 0)"/>
     </g>
    </g>
    <g id="line2d_24">
     <path d="M 256.812982 53.9125 
L 260.812982 53.9125 
L 264.812982 53.9125 
" style="fill: none; stroke: #edf8a3; stroke-width: 0.75; stroke-linecap: round"/>
    </g>
    <g id="text_18">
     <!-- $|x|=w/2$ -->
     <g transform="translate(271.212982 56.7125) scale(0.08 -0.08)">
      <defs>
       <path id="Cmr10-32" d="M 319 0 
L 319 172 
Q 319 188 331 206 
L 1325 1306 
Q 1550 1550 1690 1715 
Q 1831 1881 1968 2097 
Q 2106 2313 2186 2536 
Q 2266 2759 2266 3009 
Q 2266 3272 2169 3511 
Q 2072 3750 1880 3894 
Q 1688 4038 1416 4038 
Q 1138 4038 916 3870 
Q 694 3703 603 3438 
Q 628 3444 672 3444 
Q 816 3444 917 3347 
Q 1019 3250 1019 3097 
Q 1019 2950 917 2848 
Q 816 2747 672 2747 
Q 522 2747 420 2851 
Q 319 2956 319 3097 
Q 319 3338 409 3548 
Q 500 3759 670 3923 
Q 841 4088 1055 4175 
Q 1269 4263 1509 4263 
Q 1875 4263 2190 4108 
Q 2506 3953 2690 3670 
Q 2875 3388 2875 3009 
Q 2875 2731 2753 2481 
Q 2631 2231 2440 2026 
Q 2250 1822 1953 1562 
Q 1656 1303 1563 1216 
L 838 519 
L 1453 519 
Q 1906 519 2211 526 
Q 2516 534 2534 550 
Q 2609 631 2688 1141 
L 2875 1141 
L 2694 0 
L 319 0 
z
" transform="scale(0.015625)"/>
      </defs>
      <use xlink:href="#Cmsy10-6a"/>
      <use xlink:href="#Cmmi10-78" transform="translate(27.685547 0)"/>
      <use xlink:href="#Cmsy10-6a" transform="translate(84.765625 0)"/>
      <use xlink:href="#Cmr10-3d" transform="translate(130.009766 0)"/>
      <use xlink:href="#Cmmi10-77" transform="translate(225.253906 0)"/>
      <use xlink:href="#Cmmi10-3d" transform="translate(296.738281 0)"/>
      <use xlink:href="#Cmr10-32" transform="translate(346.738281 0)"/>
     </g>
    </g>
    <g id="line2d_25">
     <path d="M 256.812982 65.9125 
L 260.812982 65.9125 
L 264.812982 65.9125 
" style="fill: none; stroke: #a2d9a4; stroke-width: 0.75; stroke-linecap: round"/>
    </g>
    <g id="text_19">
     <!-- $|x|=w$ -->
     <g transform="translate(271.212982 68.7125) scale(0.08 -0.08)">
      <use xlink:href="#Cmsy10-6a"/>
      <use xlink:href="#Cmmi10-78" transform="translate(27.685547 0)"/>
      <use xlink:href="#Cmsy10-6a" transform="translate(84.765625 0)"/>
      <use xlink:href="#Cmr10-3d" transform="translate(130.009766 0)"/>
      <use xlink:href="#Cmmi10-77" transform="translate(225.253906 0)"/>
     </g>
    </g>
    <g id="line2d_26">
     <path d="M 256.812982 77.9125 
L 260.812982 77.9125 
L 264.812982 77.9125 
" style="fill: none; stroke: #47a0b3; stroke-width: 0.75; stroke-linecap: round"/>
    </g>
    <g id="text_20">
     <!-- $|x|=2w$ -->
     <g transform="translate(271.212982 80.7125) scale(0.08 -0.08)">
      <use xlink:href="#Cmsy10-6a"/>
      <use xlink:href="#Cmmi10-78" transform="translate(27.685547 0)"/>
      <use xlink:href="#Cmsy10-6a" transform="translate(84.765625 0)"/>
      <use xlink:href="#Cmr10-3d" transform="translate(130.009766 0)"/>
      <use xlink:href="#Cmr10-32" transform="translate(225.253906 0)"/>
      <use xlink:href="#Cmmi10-77" transform="translate(275.253906 0)"/>
     </g>
    </g>
    <g id="line2d_27">
     <path d="M 256.812982 89.9125 
L 260.812982 89.9125 
L 264.812982 89.9125 
" style="fill: none; stroke: #5e4fa2; stroke-width: 0.75; stroke-linecap: round"/>
    </g>
    <g id="text_21">
     <!-- $|x|=L/2$ -->
     <g transform="translate(271.212982 92.7125) scale(0.08 -0.08)">
      <defs>
       <path id="Cmmi10-4c" d="M 300 0 
Q 238 0 238 84 
Q 241 100 250 139 
Q 259 178 276 201 
Q 294 225 319 225 
Q 709 225 863 269 
Q 947 297 984 441 
L 1863 3956 
Q 1875 4019 1875 4044 
Q 1875 4113 1797 4122 
Q 1678 4147 1338 4147 
Q 1275 4147 1275 4231 
Q 1297 4313 1309 4342 
Q 1322 4372 1381 4372 
L 3272 4372 
Q 3328 4372 3328 4288 
Q 3319 4222 3306 4184 
Q 3294 4147 3244 4147 
Q 2772 4147 2613 4116 
Q 2456 4088 2419 3928 
L 1544 416 
Q 1516 338 1516 275 
Q 1516 225 1734 225 
L 2328 225 
Q 2831 225 3143 425 
Q 3456 625 3606 876 
Q 3756 1128 3857 1398 
Q 3959 1669 4006 1678 
L 4063 1678 
Q 4128 1678 4128 1594 
L 3559 44 
Q 3550 0 3500 0 
L 300 0 
z
" transform="scale(0.015625)"/>
      </defs>
      <use xlink:href="#Cmsy10-6a"/>
      <use xlink:href="#Cmmi10-78" transform="translate(27.685547 0)"/>
      <use xlink:href="#Cmsy10-6a" transform="translate(84.765625 0)"/>
      <use xlink:href="#Cmr10-3d" transform="translate(130.009766 0)"/>
      <use xlink:href="#Cmmi10-4c" transform="translate(225.253906 0)"/>
      <use xlink:href="#Cmmi10-3d" transform="translate(293.271484 0)"/>
      <use xlink:href="#Cmr10-32" transform="translate(343.271484 0)"/>
     </g>
    </g>
   </g>
  </g>
 </g>
 <defs>
  <clipPath id="p783221ea80">
   <rect x="29.06375" y="22.202759" width="222.325973" height="97.689989"/>
  </clipPath>
 </defs>
</svg>
