<?xml version="1.0" encoding="UTF-8" standalone="no"?>
<svg
   width="306.53352pt"
   height="148.88736pt"
   viewBox="0 0 306.53352 148.88736"
   version="1.1"
   id="svg150"
   sodipodi:docname="hourglass_U.svg"
   xml:space="preserve"
   inkscape:version="1.3.2 (091e20e, 2023-11-25)"
   xmlns:inkscape="http://www.inkscape.org/namespaces/inkscape"
   xmlns:sodipodi="http://sodipodi.sourceforge.net/DTD/sodipodi-0.dtd"
   xmlns:xlink="http://www.w3.org/1999/xlink"
   xmlns="http://www.w3.org/2000/svg"
   xmlns:svg="http://www.w3.org/2000/svg"
   xmlns:rdf="http://www.w3.org/1999/02/22-rdf-syntax-ns#"
   xmlns:cc="http://creativecommons.org/ns#"
   xmlns:dc="http://purl.org/dc/elements/1.1/"><sodipodi:namedview
     id="namedview150"
     pagecolor="#ffffff"
     bordercolor="#666666"
     borderopacity="1.0"
     inkscape:showpageshadow="2"
     inkscape:pageopacity="0.0"
     inkscape:pagecheckerboard="0"
     inkscape:deskcolor="#d1d1d1"
     inkscape:document-units="pt"
     inkscape:zoom="2.3543059"
     inkscape:cx="151.42467"
     inkscape:cy="172.02523"
     inkscape:window-width="2152"
     inkscape:window-height="1207"
     inkscape:window-x="0"
     inkscape:window-y="360"
     inkscape:window-maximized="0"
     inkscape:current-layer="line2d_14" /><metadata
     id="metadata1"><rdf:RDF><cc:Work><dc:type
           rdf:resource="http://purl.org/dc/dcmitype/StillImage" /><dc:date>2024-11-20T09:05:44.917075</dc:date><dc:format>image/svg+xml</dc:format><dc:creator><cc:Agent><dc:title>Matplotlib v3.9.2, https://matplotlib.org/</dc:title></cc:Agent></dc:creator></cc:Work></rdf:RDF></metadata><defs
     id="defs1"><style
       type="text/css"
       id="style1">*{stroke-linejoin: round; stroke-linecap: butt}</style><clipPath
       id="clip-0"><path
         clip-rule="nonzero"
         d="M 0.0390625 0.746094 L 25 0.746094 L 25 20 L 0.0390625 20 Z M 0.0390625 0.746094 "
         id="path1-0" /></clipPath></defs><g
     id="patch_1"><path
       d="M 0,148.88736 H 306.53352 V 0 H 0 Z"
       style="fill:none"
       id="path1" /></g><g
     id="patch_2"><path
       d="M 29.551034,126.78529 H 247.66996 V 0.36 H 29.551034 Z"
       style="fill:none"
       id="path2" /></g><g
     id="matplotlib.axis_1"><g
       id="xtick_1"><g
         id="line2d_1"><defs
           id="defs2"><path
             id="mfb56f74d13"
             d="M 0,0 V 2"
             style="stroke:#000000;stroke-width:0.35" /></defs><g
           id="g2"><use
             xlink:href="#mfb56f74d13"
             x="29.551035"
             y="126.78529"
             style="stroke:#000000;stroke-width:0.35"
             id="use2" /></g></g><g
         id="text_1"><!-- $\mathdefault{0.0}$ --><g
           transform="matrix(0.08,0,0,-0.08,24.140689,136.32009)"
           id="g5"><defs
             id="defs3"><path
               id="CMR17-30"
               d="m 2688,2038 c 0,392 -6,1061 -275,1575 -237,450 -615,611 -947,611 -308,0 -698,-142 -941,-604 C 269,3137 243,2539 243,2038 c 0,-367 7,-926 205,-1415 275,-662 768,-751 1018,-751 294,0 742,121 1004,732 192,444 218,964 218,1434 z M 1466,-26 c -410,0 -653,354 -743,842 -70,380 -70,933 -70,1293 0,495 0,906 83,1298 122,547 480,714 730,714 262,0 601,-174 723,-701 83,-366 89,-797 89,-1311 0,-418 0,-933 -76,-1312 C 2067,96 1690,-26 1466,-26 Z"
               transform="scale(0.015625)" /><path
               id="CMMI12-3a"
               d="M 1178,307 C 1178,492 1024,620 870,620 685,620 557,467 557,313 557,128 710,0 864,0 c 186,0 314,153 314,307 z"
               transform="scale(0.015625)" /></defs><use
             xlink:href="#CMR17-30"
             transform="scale(0.996264)"
             id="use3" /><use
             xlink:href="#CMMI12-3a"
             transform="matrix(0.996264,0,0,0.996264,45.690477,0)"
             id="use4" /><use
             xlink:href="#CMR17-30"
             transform="matrix(0.996264,0,0,0.996264,72.787654,0)"
             id="use5" /></g></g></g><g
       id="xtick_2"><g
         id="line2d_2"><g
           id="g6"><use
             xlink:href="#mfb56f74d13"
             x="73.17482"
             y="126.78529"
             style="stroke:#000000;stroke-width:0.35"
             id="use6" /></g></g><g
         id="text_2"><!-- $\mathdefault{0.2}$ --><g
           transform="matrix(0.08,0,0,-0.08,67.764474,136.32009)"
           id="g9"><defs
             id="defs6"><path
               id="CMR17-32"
               d="M 2669,990 H 2554 C 2490,537 2438,460 2413,422 2381,371 1920,371 1830,371 H 602 c 230,249 678,702 1222,1225 390,370 845,804 845,1437 0,755 -602,1191 -1274,1191 -704,0 -1133,-621 -1133,-1197 0,-250 186,-282 263,-282 64,0 256,38 256,262 0,199 -167,257 -256,257 -39,0 -77,-7 -103,-20 122,544 493,813 884,813 556,0 921,-441 921,-1024 0,-556 -326,-1035 -691,-1450 L 262,147 V 0 h 2253 z"
               transform="scale(0.015625)" /></defs><use
             xlink:href="#CMR17-30"
             transform="scale(0.996264)"
             id="use7" /><use
             xlink:href="#CMMI12-3a"
             transform="matrix(0.996264,0,0,0.996264,45.690477,0)"
             id="use8" /><use
             xlink:href="#CMR17-32"
             transform="matrix(0.996264,0,0,0.996264,72.787654,0)"
             id="use9" /></g></g></g><g
       id="xtick_3"><g
         id="line2d_3"><g
           id="g10"><use
             xlink:href="#mfb56f74d13"
             x="116.79861"
             y="126.78529"
             style="stroke:#000000;stroke-width:0.35"
             id="use10" /></g></g><g
         id="text_3"><!-- $\mathdefault{0.4}$ --><g
           transform="matrix(0.08,0,0,-0.08,111.38826,136.32009)"
           id="g13"><defs
             id="defs10"><path
               id="CMR17-34"
               d="m 2150,4147 c 0,134 -6,141 -121,141 L 128,1254 V 1088 H 1779 V 460 c 0,-230 -13,-294 -461,-294 H 1197 V 0 c 205,12 550,12 768,12 217,0 563,0 768,-12 v 166 h -122 c -448,0 -461,64 -461,294 v 628 h 653 v 166 H 2150 Z M 1798,3723 V 1254 H 256 Z"
               transform="scale(0.015625)" /></defs><use
             xlink:href="#CMR17-30"
             transform="scale(0.996264)"
             id="use11" /><use
             xlink:href="#CMMI12-3a"
             transform="matrix(0.996264,0,0,0.996264,45.690477,0)"
             id="use12" /><use
             xlink:href="#CMR17-34"
             transform="matrix(0.996264,0,0,0.996264,72.787654,0)"
             id="use13" /></g></g></g><g
       id="xtick_4"><g
         id="line2d_4"><g
           id="g14"><use
             xlink:href="#mfb56f74d13"
             x="160.42239"
             y="126.78529"
             style="stroke:#000000;stroke-width:0.35"
             id="use14" /></g></g><g
         id="text_4"><!-- $\mathdefault{0.6}$ --><g
           transform="matrix(0.08,0,0,-0.08,155.01204,136.32009)"
           id="g17"><defs
             id="defs14"><path
               id="CMR17-36"
               d="m 678,2198 c 0,1514 717,1878 1133,1878 135,0 461,-27 589,-294 -102,0 -294,0 -294,-224 0,-173 140,-230 230,-230 58,0 230,25 230,243 0,416 -320,653 -761,653 -762,0 -1562,-813 -1562,-2213 0,-1754 723,-2139 1235,-2139 621,0 1210,559 1210,1423 0,806 -518,1393 -1171,1393 -391,0 -679,-258 -839,-709 z M 1478,25 c -787,0 -787,1187 -787,1425 0,464 218,1135 813,1135 109,0 422,0 634,-445 115,-251 115,-516 115,-838 0,-348 0,-606 -135,-864 C 1978,173 1773,25 1478,25 Z"
               transform="scale(0.015625)" /></defs><use
             xlink:href="#CMR17-30"
             transform="scale(0.996264)"
             id="use15" /><use
             xlink:href="#CMMI12-3a"
             transform="matrix(0.996264,0,0,0.996264,45.690477,0)"
             id="use16" /><use
             xlink:href="#CMR17-36"
             transform="matrix(0.996264,0,0,0.996264,72.787654,0)"
             id="use17" /></g></g></g><g
       id="xtick_5"><g
         id="line2d_5"><g
           id="g18"><use
             xlink:href="#mfb56f74d13"
             x="204.04617"
             y="126.78529"
             style="stroke:#000000;stroke-width:0.35"
             id="use18" /></g></g><g
         id="text_5"><!-- $\mathdefault{0.8}$ --><g
           transform="matrix(0.08,0,0,-0.08,198.63583,136.32009)"
           id="g21"><defs
             id="defs18"><path
               id="CMR17-38"
               d="m 1741,2289 c 403,205 813,514 813,1009 0,586 -564,926 -1082,926 -582,0 -1094,-424 -1094,-1009 0,-161 38,-438 288,-682 64,-64 332,-257 505,-379 C 883,2006 211,1652 211,945 211,282 838,-128 1459,-128 c 685,0 1261,494 1261,1150 0,585 -390,855 -646,1029 z m -839,566 c -51,32 -307,231 -307,533 0,393 403,688 864,688 506,0 877,-360 877,-778 0,-598 -666,-939 -698,-939 -6,0 -12,0 -64,39 z M 2080,1536 c 96,-70 403,-283 403,-675 C 2483,385 2010,25 1472,25 890,25 448,443 448,951 c 0,508 390,933 832,1132 z"
               transform="scale(0.015625)" /></defs><use
             xlink:href="#CMR17-30"
             transform="scale(0.996264)"
             id="use19" /><use
             xlink:href="#CMMI12-3a"
             transform="matrix(0.996264,0,0,0.996264,45.690477,0)"
             id="use20" /><use
             xlink:href="#CMR17-38"
             transform="matrix(0.996264,0,0,0.996264,72.787654,0)"
             id="use21" /></g></g></g><g
       id="xtick_6"><g
         id="line2d_6"><g
           id="g22"><use
             xlink:href="#mfb56f74d13"
             x="247.66997"
             y="126.78529"
             style="stroke:#000000;stroke-width:0.35"
             id="use22" /></g></g><g
         id="text_6"><!-- $\mathdefault{1.0}$ --><g
           transform="matrix(0.08,0,0,-0.08,242.25962,136.32009)"
           id="g25"><defs
             id="defs22"><path
               id="CMR17-31"
               d="m 1702,4083 c 0,134 -6,141 -96,141 -249,-297 -627,-391 -985,-404 -19,0 -51,0 -58,-12 -6,-13 -6,-26 -6,-160 198,0 531,38 787,191 V 467 C 1344,243 1331,166 781,166 H 589 V 0 c 307,6 627,12 934,12 307,0 627,-6 935,-12 v 166 h -192 c -551,0 -564,70 -564,301 z"
               transform="scale(0.015625)" /></defs><use
             xlink:href="#CMR17-31"
             transform="scale(0.996264)"
             id="use23" /><use
             xlink:href="#CMMI12-3a"
             transform="matrix(0.996264,0,0,0.996264,45.690477,0)"
             id="use24" /><use
             xlink:href="#CMR17-30"
             transform="matrix(0.996264,0,0,0.996264,72.787654,0)"
             id="use25" /></g></g></g><g
       id="text_7"><!-- $^4$He Distance from Axis  $\;\;{r}/R_0$ --><g
         transform="matrix(0.08,0,0,-0.08,81.522545,146.53483)"
         id="g48"><defs
           id="defs25"><path
             id="CMR17-48"
             d="m 3590,3898 c 0,287 71,287 512,287 v 167 c -185,-13 -524,-13 -723,-13 -198,0 -537,0 -723,13 v -167 c 442,0 512,0 512,-287 V 2342 H 1261 v 1556 c 0,287 70,287 512,287 v 167 c -186,-13 -525,-13 -723,-13 -199,0 -538,0 -724,13 v -167 c 442,0 512,0 512,-287 V 452 C 838,166 768,166 326,166 V 0 c 186,12 525,12 724,12 198,0 537,0 723,-12 v 166 c -442,0 -512,0 -512,286 V 2176 H 3168 V 452 c 0,-286 -70,-286 -512,-286 V 0 c 186,12 525,12 723,12 199,0 538,0 723,-12 v 166 c -441,0 -512,0 -512,286 z"
             transform="scale(0.015625)" /><path
             id="CMR17-65"
             d="m 2438,1503 c 26,26 26,39 26,103 0,645 -346,1210 -1075,1210 C 710,2816 173,2175 173,1394 173,554 781,-64 1459,-64 c 717,0 999,683 999,819 0,45 -39,45 -52,45 -44,0 -51,-13 -76,-91 C 2189,270 1837,51 1504,51 1229,51 954,206 781,490 582,819 582,1200 582,1503 Z m -1849,97 c 45,911 537,1113 793,1113 436,0 730,-405 736,-1113 z"
             transform="scale(0.015625)" /><path
             id="CMR17-44"
             d="m 333,4352 v -167 c 441,0 512,0 512,-287 V 453 C 845,166 774,166 333,166 V 0 h 2035 c 1030,0 1856,943 1856,2140 0,1204 -813,2212 -1856,2212 z M 1523,166 c -256,0 -269,32 -269,248 v 3522 c 0,217 13,249 269,249 h 717 c 531,0 1510,-312 1510,-2045 C 3750,1242 3488,879 3366,707 3213,510 2848,166 2240,166 Z"
             transform="scale(0.015625)" /><path
             id="CMR17-69"
             d="m 992,3961 c 0,141 -115,263 -262,263 -141,0 -263,-116 -263,-263 0,-141 115,-262 263,-262 140,0 262,115 262,262 z M 243,2745 v -166 c 359,0 410,-39 410,-348 V 443 C 653,198 627,166 218,166 V 0 c 153,12 428,12 588,12 154,0 416,0 564,-12 v 166 c -378,0 -391,39 -391,270 v 2380 z"
             transform="scale(0.015625)" /><path
             id="CMR17-73"
             d="m 1978,2688 c 0,115 -7,121 -45,121 -26,0 -32,-6 -109,-102 -19,-26 -77,-90 -96,-115 -205,217 -493,224 -602,224 -710,0 -966,-372 -966,-743 0,-576 653,-710 838,-749 404,-83 544,-108 679,-224 83,-76 224,-217 224,-448 0,-268 -154,-614 -743,-614 -556,0 -755,422 -870,986 -19,89 -19,96 -70,96 -52,0 -58,-7 -58,-135 V 64 c 0,-116 6,-122 45,-122 32,0 38,6 70,58 39,57 135,211 173,275 128,-173 352,-339 710,-339 634,0 973,345 973,844 0,327 -173,500 -256,576 -192,199 -416,244 -685,295 -352,77 -800,166 -800,557 0,166 90,518 736,518 685,0 724,-640 736,-845 7,-32 39,-38 58,-38 58,0 58,19 58,128 z"
             transform="scale(0.015625)" /><path
             id="CMR17-74"
             d="m 966,2585 h 896 v 167 H 966 V 3968 H 851 C 838,3292 614,2700 70,2687 V 2585 H 627 V 778 c 0,-123 0,-842 743,-842 377,0 595,372 595,848 v 367 H 1850 V 790 C 1850,347 1677,51 1408,51 1222,51 966,179 966,765 Z"
             transform="scale(0.015625)" /><path
             id="CMR17-61"
             d="m 2304,1656 c 0,392 0,619 -269,878 -237,217 -512,282 -729,282 -506,0 -871,-408 -871,-839 0,-237 192,-249 231,-249 83,0 230,51 230,230 0,160 -122,230 -230,230 -26,0 -58,-6 -77,-12 134,418 480,537 704,537 320,0 672,-292 672,-838 V 1632 C 1587,1619 1133,1568 774,1373 371,1147 256,822 256,576 256,77 832,-64 1171,-64 c 352,0 679,199 819,569 13,-286 192,-544 474,-544 134,0 474,90 474,602 V 926 H 2822 V 557 c 0,-396 -172,-448 -256,-448 -262,0 -262,337 -262,623 z M 1965,887 C 1965,323 1568,38 1216,38 896,38 646,278 646,576 c 0,195 84,538 455,746 307,175 659,201 864,214 z"
             transform="scale(0.015625)" /><path
             id="CMR17-6e"
             d="m 2656,1954 c 0,328 -64,862 -819,862 -506,0 -768,-392 -864,-650 h -7 v 650 l -755,-71 v -167 c 378,0 435,-38 435,-347 V 443 C 646,198 621,166 211,166 V 0 c 154,12 435,12 602,12 166,0 454,0 608,-12 v 166 c -410,0 -435,26 -435,277 v 1235 c 0,591 358,1035 806,1035 474,0 525,-424 525,-733 V 443 c 0,-245 -26,-277 -435,-277 V 0 c 153,12 435,12 601,12 167,0 455,0 608,-12 v 166 c -409,0 -435,26 -435,277 z"
             transform="scale(0.015625)" /><path
             id="CMR17-63"
             d="m 2234,2240 c -122,0 -301,0 -301,-225 0,-179 147,-230 230,-230 45,0 231,19 231,243 0,448 -436,788 -928,788 C 787,2816 211,2201 211,1379 211,521 813,-64 1466,-64 c 793,0 992,740 992,811 0,26 -7,45 -52,45 -44,0 -51,-6 -76,-90 C 2163,180 1798,51 1523,51 1114,51 621,431 621,1385 c 0,973 473,1315 851,1315 250,0 621,-118 762,-460 z"
             transform="scale(0.015625)" /><path
             id="CMR17-66"
             d="m 979,2585 h 730 v 167 H 966 v 787 c 0,537 269,838 544,838 84,0 180,-14 244,-38 -52,-13 -186,-58 -186,-218 0,-166 128,-217 218,-217 89,0 217,51 217,217 0,232 -230,359 -486,359 -365,0 -864,-269 -864,-954 V 2752 H 141 V 2585 H 653 V 441 C 653,198 627,166 218,166 V 0 c 153,12 448,12 614,12 186,0 512,0 685,-12 v 166 c -461,0 -538,0 -538,288 z"
             transform="scale(0.015625)" /><path
             id="CMR17-72"
             d="m 960,1517 c 0,617 262,1196 742,1196 45,0 90,-6 135,-26 0,0 -141,-45 -141,-212 0,-154 122,-218 218,-218 76,0 217,45 217,225 0,205 -205,334 -422,334 -487,0 -698,-476 -762,-701 h -6 v 701 l -743,-71 v -167 c 378,0 436,-38 436,-347 V 443 C 634,198 608,166 198,166 V 0 c 154,12 448,12 615,12 185,0 512,0 685,-12 v 166 c -461,0 -538,0 -538,289 z"
             transform="scale(0.015625)" /><path
             id="CMR17-6f"
             d="m 2758,1356 c 0,820 -595,1460 -1292,1460 C 768,2816 173,2176 173,1356 173,550 768,-64 1466,-64 c 697,0 1292,614 1292,1420 z M 1466,51 c -301,0 -557,179 -704,429 -160,288 -180,646 -180,928 0,268 13,601 180,889 128,211 377,416 704,416 288,0 531,-160 684,-384 199,-301 199,-723 199,-921 0,-250 -13,-634 -186,-941 C 1984,172 1709,51 1466,51 Z"
             transform="scale(0.015625)" /><path
             id="CMR17-6d"
             d="m 4326,1954 c 0,322 -57,862 -819,862 -435,0 -736,-296 -851,-643 h -6 c -77,527 -455,643 -813,643 -506,0 -768,-392 -864,-650 h -7 v 650 l -755,-71 v -167 c 378,0 435,-38 435,-347 V 443 C 646,198 621,166 211,166 V 0 c 154,12 435,12 602,12 166,0 454,0 608,-12 v 166 c -410,0 -435,26 -435,277 v 1235 c 0,591 358,1035 806,1035 474,0 525,-424 525,-733 V 443 c 0,-245 -26,-277 -435,-277 V 0 c 153,12 435,12 601,12 167,0 455,0 608,-12 v 166 c -409,0 -435,26 -435,277 v 1235 c 0,591 358,1035 806,1035 474,0 525,-424 525,-733 V 443 c 0,-245 -25,-277 -435,-277 V 0 c 154,12 435,12 602,12 166,0 454,0 608,-12 v 166 c -410,0 -436,26 -436,277 z"
             transform="scale(0.015625)" /><path
             id="CMR17-41"
             d="m 2323,4441 c -32,83 -45,103 -109,103 -64,0 -76,-20 -108,-103 L 749,580 C 627,236 371,166 147,166 V 0 c 115,12 371,12 493,12 160,0 416,0 570,-12 v 166 c -301,13 -346,216 -346,293 0,57 13,89 26,127 l 339,950 H 2906 L 3290,453 c 32,-77 32,-90 32,-115 0,-172 -276,-172 -397,-172 V 0 c 185,12 518,12 717,12 166,0 486,0 640,-12 v 166 c -340,0 -455,0 -538,236 z M 2067,3924 2848,1702 H 1286 Z"
             transform="scale(0.015625)" /><path
             id="CMR17-78"
             d="m 1664,1491 c 192,249 410,531 589,742 211,243 454,346 736,352 v 167 c -109,-7 -333,-13 -448,-13 -173,0 -371,0 -519,13 v -167 c 90,-13 141,-77 141,-166 0,-115 -64,-186 -96,-231 l -473,-601 -564,736 c -57,70 -57,83 -57,115 0,77 64,141 173,147 v 167 c -154,-13 -429,-13 -589,-13 -173,0 -378,0 -519,13 v -167 c 346,0 423,-25 576,-217 l 736,-954 c 13,-13 45,-51 45,-70 C 1395,1318 838,633 768,544 480,198 179,172 6,166 V 0 c 109,6 333,12 448,12 128,0 410,0 525,-12 v 166 c -38,6 -141,19 -141,166 0,116 52,186 109,263 l 531,653 557,-724 c 51,-70 128,-166 128,-211 0,-89 -77,-141 -179,-147 V 0 c 154,12 429,12 589,12 173,0 377,0 518,-12 v 166 c -320,0 -416,13 -569,211 z"
             transform="scale(0.015625)" /><path
             id="CMMI12-72"
             d="m 2490,2633 c -199,-35 -301,-176 -301,-317 0,-153 121,-205 211,-205 179,0 326,154 326,346 0,194 -198,359 -518,359 -256,0 -550,-116 -819,-481 -45,325 -301,481 -557,481 -250,0 -378,-174 -454,-308 -109,-230 -205,-616 -205,-648 0,-26 25,-59 70,-59 51,0 58,7 96,156 96,385 218,730 474,730 153,0 198,-83 198,-268 0,-141 -64,-391 -109,-592 L 723,1130 C 698,1007 627,716 595,600 550,432 480,128 480,96 480,6 550,-64 646,-64 c 71,0 192,44 231,173 19,51 256,1027 294,1176 32,142 71,277 103,420 25,90 51,193 70,277 19,58 192,373 352,513 77,71 243,192 506,192 102,0 204,-13 288,-54 z"
             transform="scale(0.015625)" /><path
             id="CMMI12-3d"
             d="m 2746,4563 c 0,6 38,102 38,115 0,77 -64,122 -115,122 -32,0 -90,0 -141,-141 L 384,-1364 c 0,-6 -38,-102 -38,-115 0,-77 64,-121 115,-121 38,0 96,6 141,140 z"
             transform="scale(0.015625)" /><path
             id="CMMI12-52"
             d="m 2355,3917 c 58,236 83,249 333,249 h 461 c 550,0 960,-166 960,-663 0,-326 -167,-1263 -1453,-1263 h -723 z m 890,-1754 c 793,172 1414,683 1414,1231 0,498 -505,958 -1395,958 H 1530 c -128,0 -186,0 -186,-122 0,-64 45,-64 166,-64 384,0 384,-51 384,-121 0,-13 0,-51 -25,-147 L 1005,475 C 947,253 934,190 493,190 346,190 301,190 301,69 301,6 371,6 390,6 506,6 640,19 762,19 h 755 c 115,0 249,-13 365,-13 51,0 121,0 121,120 0,64 -57,64 -153,64 -391,0 -391,51 -391,114 0,6 0,51 13,101 l 429,1707 h 768 c 608,0 723,-381 723,-590 0,-96 -64,-343 -109,-508 -70,-291 -89,-361 -89,-482 0,-450 371,-660 800,-660 518,0 742,629 742,717 0,45 -32,64 -70,64 -52,0 -64,-38 -77,-89 C 4435,114 4173,0 4013,0 c -160,0 -263,69 -263,355 0,152 77,729 84,761 32,234 32,260 32,310 0,463 -378,660 -621,737 z"
             transform="scale(0.015625)" /></defs><use
           xlink:href="#CMR17-34"
           transform="matrix(0.697382,0,0,0.697382,0,36.153639)"
           id="use26" /><use
           xlink:href="#CMR17-48"
           transform="matrix(0.996264,0,0,0.996264,32.481314,0)"
           id="use27" /><use
           xlink:href="#CMR17-65"
           transform="matrix(0.996264,0,0,0.996264,101.55374,0)"
           id="use28" /><use
           xlink:href="#CMR17-44"
           transform="matrix(0.996264,0,0,0.996264,172.11537,0)"
           id="use29" /><use
           xlink:href="#CMR17-69"
           transform="matrix(0.996264,0,0,0.996264,242.50893,0)"
           id="use30" /><use
           xlink:href="#CMR17-73"
           transform="matrix(0.996264,0,0,0.996264,267.37998,0)"
           id="use31" /><use
           xlink:href="#CMR17-74"
           transform="matrix(0.996264,0,0,0.996264,303.18132,0)"
           id="use32" /><use
           xlink:href="#CMR17-61"
           transform="matrix(0.996264,0,0,0.996264,338.46209,0)"
           id="use33" /><use
           xlink:href="#CMR17-6e"
           transform="matrix(0.996264,0,0,0.996264,384.15257,0)"
           id="use34" /><use
           xlink:href="#CMR17-63"
           transform="matrix(0.996264,0,0,0.996264,435.04794,0)"
           id="use35" /><use
           xlink:href="#CMR17-65"
           transform="matrix(0.996264,0,0,0.996264,475.5336,0)"
           id="use36" /><use
           xlink:href="#CMR17-66"
           transform="matrix(0.996264,0,0,0.996264,546.09523,0)"
           id="use37" /><use
           xlink:href="#CMR17-72"
           transform="matrix(0.996264,0,0,0.996264,573.56874,0)"
           id="use38" /><use
           xlink:href="#CMR17-6f"
           transform="matrix(0.996264,0,0,0.996264,608.84951,0)"
           id="use39" /><use
           xlink:href="#CMR17-6d"
           transform="matrix(0.996264,0,0,0.996264,654.53998,0)"
           id="use40" /><use
           xlink:href="#CMR17-41"
           transform="matrix(0.996264,0,0,0.996264,761.53554,0)"
           id="use41" /><use
           xlink:href="#CMR17-78"
           transform="matrix(0.996264,0,0,0.996264,830.60797,0)"
           id="use42" /><use
           xlink:href="#CMR17-69"
           transform="matrix(0.996264,0,0,0.996264,878.90088,0)"
           id="use43" /><use
           xlink:href="#CMR17-73"
           transform="matrix(0.996264,0,0,0.996264,903.77194,0)"
           id="use44" /><use
           xlink:href="#CMMI12-3d"
           transform="matrix(0.996264,0,0,0.996264,1071.6679,0)"
           id="use46" /><use
           xlink:href="#CMMI12-52"
           transform="matrix(0.996264,0,0,0.996264,1120.4428,0)"
           id="use47" /><use
           xlink:href="#CMR17-30"
           transform="matrix(0.697382,0,0,0.697382,1194.6936,-14.943915)"
           id="use48" /></g></g></g><g
     id="matplotlib.axis_2"><g
       id="ytick_1"><g
         id="line2d_7"><defs
           id="defs48"><path
             id="m1d759e22f7"
             d="M 0,0 H -2"
             style="stroke:#000000;stroke-width:0.35" /></defs><g
           id="g49"><use
             xlink:href="#m1d759e22f7"
             x="29.551035"
             y="123.77516"
             style="stroke:#000000;stroke-width:0.35"
             id="use49" /></g></g><g
         id="text_8"><!-- $\mathdefault{−40}$ --><g
           transform="matrix(0.08,0,0,-0.08,10.496161,126.54257)"
           id="g52"><defs
             id="defs49"><path
               id="CMSY10-0"
               d="m 4218,1472 c 108,0 224,0 224,128 0,128 -116,128 -224,128 H 755 c -109,0 -224,0 -224,-128 0,-128 115,-128 224,-128 z"
               transform="scale(0.015625)" /></defs><use
             xlink:href="#CMSY10-0"
             transform="scale(0.996264)"
             id="use50" /><use
             xlink:href="#CMR17-34"
             transform="matrix(0.996264,0,0,0.996264,77.487468,0)"
             id="use51" /><use
             xlink:href="#CMR17-30"
             transform="matrix(0.996264,0,0,0.996264,123.17794,0)"
             id="use52" /></g></g></g><g
       id="ytick_2"><g
         id="line2d_8"><g
           id="g53"><use
             xlink:href="#m1d759e22f7"
             x="29.551035"
             y="93.673904"
             style="stroke:#000000;stroke-width:0.35"
             id="use53" /></g></g><g
         id="text_9"><!-- $\mathdefault{−20}$ --><g
           transform="matrix(0.08,0,0,-0.08,10.496161,96.441306)"
           id="g56"><use
             xlink:href="#CMSY10-0"
             transform="scale(0.996264)"
             id="use54" /><use
             xlink:href="#CMR17-32"
             transform="matrix(0.996264,0,0,0.996264,77.487468,0)"
             id="use55" /><use
             xlink:href="#CMR17-30"
             transform="matrix(0.996264,0,0,0.996264,123.17794,0)"
             id="use56" /></g></g></g><g
       id="ytick_3"><g
         id="line2d_9"><g
           id="g57"><use
             xlink:href="#m1d759e22f7"
             x="29.551035"
             y="63.572647"
             style="stroke:#000000;stroke-width:0.35"
             id="use57" /></g></g><g
         id="text_10"><!-- $\mathdefault{0}$ --><g
           transform="matrix(0.08,0,0,-0.08,21.316851,66.340046)"
           id="g58"><use
             xlink:href="#CMR17-30"
             transform="scale(0.996264)"
             id="use58" /></g></g></g><g
       id="ytick_4"><g
         id="line2d_10"><g
           id="g59"><use
             xlink:href="#m1d759e22f7"
             x="29.551035"
             y="33.471386"
             style="stroke:#000000;stroke-width:0.35"
             id="use59" /></g></g><g
         id="text_11"><!-- $\mathdefault{20}$ --><g
           transform="matrix(0.08,0,0,-0.08,17.082668,36.238787)"
           id="g61"><use
             xlink:href="#CMR17-32"
             transform="scale(0.996264)"
             id="use60" /><use
             xlink:href="#CMR17-30"
             transform="matrix(0.996264,0,0,0.996264,45.690477,0)"
             id="use61" /></g></g></g><g
       id="ytick_5"><g
         id="line2d_11"><g
           id="g62"><use
             xlink:href="#m1d759e22f7"
             x="29.551035"
             y="3.370126"
             style="stroke:#000000;stroke-width:0.35"
             id="use62" /></g></g><g
         id="text_12"><!-- $\mathdefault{40}$ --><g
           transform="matrix(0.08,0,0,-0.08,17.082668,6.137527)"
           id="g64"><use
             xlink:href="#CMR17-34"
             transform="scale(0.996264)"
             id="use63" /><use
             xlink:href="#CMR17-30"
             transform="matrix(0.996264,0,0,0.996264,45.690477,0)"
             id="use64" /></g></g></g><g
       id="text_13"><!-- Hourglass Potential $\;\; U_{\rm pore}$  (K) --><g
         transform="matrix(0,-0.08,-0.08,0,6.337584,121.67021)"
         id="g90"><defs
           id="defs64"><path
             id="CMR17-75"
             d="m 1882,2745 v -166 c 377,0 435,-39 435,-350 V 1053 C 2317,510 2029,38 1555,38 1030,38 986,355 986,691 v 2125 l -775,-71 v -166 c 256,0 429,0 435,-259 V 1079 c 0,-433 0,-711 167,-892 83,-84 243,-251 704,-251 544,0 755,464 806,600 h 7 V -64 l 761,51 v 167 c -377,0 -435,39 -435,349 v 2313 z"
             transform="scale(0.015625)" /><path
             id="CMR17-67"
             d="m 710,1165 c 122,-97 333,-205 589,-205 506,0 941,399 941,935 0,168 -51,426 -243,626 179,192 441,256 589,256 25,0 64,0 96,-19 -26,-7 -84,-32 -84,-135 0,-83 58,-140 141,-140 96,0 147,64 147,147 0,121 -96,250 -300,250 -256,0 -480,-122 -660,-289 -192,173 -422,237 -627,237 -505,0 -941,-397 -941,-933 0,-368 212,-601 276,-665 C 442,1004 442,742 442,710 442,544 506,300 723,166 390,82 128,-184 128,-517 c 0,-479 608,-827 1338,-827 704,0 1337,335 1337,834 0,894 -947,894 -1440,894 -147,0 -409,0 -441,6 -199,32 -333,211 -333,435 0,58 0,199 121,340 z m 589,-97 c -563,0 -563,698 -563,827 0,129 0,824 563,824 563,0 563,-695 563,-824 0,-129 0,-827 -563,-827 z m 167,-2304 c -640,0 -1082,353 -1082,719 0,206 109,399 250,506 160,113 224,113 659,113 525,0 1254,0 1254,-619 0,-366 -441,-719 -1081,-719 z"
             transform="scale(0.015625)" /><path
             id="CMR17-6c"
             d="m 979,4416 -761,-71 v -166 c 377,0 435,-38 435,-344 V 439 C 653,198 627,166 218,166 V 0 c 153,12 435,12 595,12 166,0 448,0 601,-12 v 166 c -409,0 -435,25 -435,273 z"
             transform="scale(0.015625)" /><path
             id="CMR17-50"
             d="m 1267,2048 h 1024 c 826,0 1427,535 1427,1139 0,604 -588,1165 -1427,1165 H 333 v -167 c 441,0 512,0 512,-286 V 453 C 845,166 774,166 333,166 V 0 c 185,12 525,12 723,12 198,0 538,0 723,-12 v 166 c -441,0 -512,0 -512,287 z m -13,134 v 1755 c 0,216 13,248 269,248 h 647 c 825,0 1062,-470 1062,-998 0,-579 -282,-1005 -1062,-1005 z"
             transform="scale(0.015625)" /><path
             id="CMMI12-55"
             d="M 3238,1469 C 3014,579 2272,57 1670,57 1210,57 896,362 896,890 c 0,26 0,217 70,496 l 628,2500 c 57,216 70,280 524,280 116,0 180,0 180,115 0,71 -58,71 -96,71 -116,0 -250,-13 -372,-13 h -755 c -121,0 -256,13 -377,13 -45,0 -122,0 -122,-122 0,-64 45,-64 166,-64 384,0 384,-51 384,-121 0,-38 -44,-223 -76,-331 L 493,1488 c -19,-70 -58,-242 -58,-413 0,-700 506,-1203 1203,-1203 647,0 1364,509 1690,1317 45,108 102,331 141,503 64,229 198,788 243,954 l 243,954 c 83,331 135,540 698,566 51,6 77,57 77,115 0,71 -58,71 -84,71 -89,0 -204,-13 -294,-13 h -301 c -397,0 -601,13 -608,13 -38,0 -115,0 -115,-122 0,-64 51,-64 96,-64 384,-13 410,-159 410,-274 0,-57 0,-76 -26,-165 z"
             transform="scale(0.015625)" /><path
             id="CMR17-70"
             d="m 1408,-1114 c -410,0 -435,26 -435,280 V 380 c 185,-271 454,-444 793,-444 640,0 1287,567 1287,1446 0,814 -557,1434 -1216,1434 -384,0 -698,-213 -877,-471 v 471 l -762,-71 v -168 c 378,0 436,-38 436,-349 V -834 c 0,-247 -26,-280 -436,-280 v -166 c 154,12 436,12 602,12 166,0 454,0 608,-12 z M 973,2015 c 0,91 0,226 249,466 32,25 250,219 570,219 467,0 851,-588 851,-1324 C 2643,639 2234,38 1728,38 1498,38 1248,148 1056,451 973,594 973,632 973,736 Z"
             transform="scale(0.015625)" /><path
             id="CMR17-28"
             d="m 1958,-1562 c 0,6 0,19 -19,38 -294,301 -1081,1121 -1081,3120 0,1999 774,2812 1088,3133 0,6 12,19 12,38 0,20 -19,33 -44,33 -71,0 -615,-475 -928,-1180 C 666,2909 576,2218 576,1603 c 0,-462 45,-1243 429,-2070 307,-666 832,-1133 909,-1133 32,0 44,12 44,38 z"
             transform="scale(0.015625)" /><path
             id="CMR17-4b"
             d="m 2362,2669 1107,1102 c 230,223 473,401 832,414 v 167 c -128,-7 -288,-13 -416,-13 -173,0 -474,0 -640,13 v -167 c 166,-13 192,-128 192,-172 0,-45 -26,-115 -51,-153 L 1261,1739 v 2159 c 0,287 70,287 512,287 v 167 c -186,-13 -525,-13 -723,-13 -199,0 -538,0 -724,13 v -167 c 442,0 512,0 512,-287 V 453 C 838,166 768,166 326,166 V 0 c 186,12 525,12 724,12 198,0 537,0 723,-12 v 166 c -442,0 -512,0 -512,287 v 1127 l 819,809 1210,-1847 c 38,-64 83,-147 83,-210 0,-166 -179,-166 -263,-166 V 0 c 205,12 500,12 711,12 153,0 416,0 563,-12 v 166 c -307,0 -403,38 -595,331 z"
             transform="scale(0.015625)" /><path
             id="CMR17-29"
             d="m 1683,1596 c 0,461 -45,1243 -429,2069 -307,667 -832,1135 -908,1135 -20,0 -45,-7 -45,-39 0,-13 6,-19 13,-32 307,-321 1088,-1134 1088,-3126 0,-1999 -775,-2813 -1088,-3133 -7,-13 -13,-19 -13,-32 0,-32 25,-38 45,-38 70,0 614,473 928,1178 320,711 409,1403 409,2018 z"
             transform="scale(0.015625)" /></defs><use
           xlink:href="#CMR17-48"
           transform="scale(0.996264)"
           id="use65" /><use
           xlink:href="#CMR17-6f"
           transform="matrix(0.996264,0,0,0.996264,69.07243,0)"
           id="use66" /><use
           xlink:href="#CMR17-75"
           transform="matrix(0.996264,0,0,0.996264,114.76291,0)"
           id="use67" /><use
           xlink:href="#CMR17-72"
           transform="matrix(0.996264,0,0,0.996264,165.65828,0)"
           id="use68" /><use
           xlink:href="#CMR17-67"
           transform="matrix(0.996264,0,0,0.996264,200.93904,0)"
           id="use69" /><use
           xlink:href="#CMR17-6c"
           transform="matrix(0.996264,0,0,0.996264,246.62952,0)"
           id="use70" /><use
           xlink:href="#CMR17-61"
           transform="matrix(0.996264,0,0,0.996264,271.50058,0)"
           id="use71" /><use
           xlink:href="#CMR17-73"
           transform="matrix(0.996264,0,0,0.996264,317.19106,0)"
           id="use72" /><use
           xlink:href="#CMR17-73"
           transform="matrix(0.996264,0,0,0.996264,352.99239,0)"
           id="use73" /><use
           xlink:href="#CMR17-50"
           transform="matrix(0.996264,0,0,0.996264,418.8697,0)"
           id="use74" /><use
           xlink:href="#CMR17-6f"
           transform="matrix(0.996264,0,0,0.996264,478.85354,0)"
           id="use75" /><use
           xlink:href="#CMR17-74"
           transform="matrix(0.996264,0,0,0.996264,524.54402,0)"
           id="use76" /><use
           xlink:href="#CMR17-65"
           transform="matrix(0.996264,0,0,0.996264,559.82479,0)"
           id="use77" /><use
           xlink:href="#CMR17-6e"
           transform="matrix(0.996264,0,0,0.996264,600.31045,0)"
           id="use78" /><use
           xlink:href="#CMR17-74"
           transform="matrix(0.996264,0,0,0.996264,648.60337,0)"
           id="use79" /><use
           xlink:href="#CMR17-69"
           transform="matrix(0.996264,0,0,0.996264,683.88413,0)"
           id="use80" /><use
           xlink:href="#CMR17-61"
           transform="matrix(0.996264,0,0,0.996264,708.75519,0)"
           id="use81" /><use
           xlink:href="#CMR17-6c"
           transform="matrix(0.996264,0,0,0.996264,754.44567,0)"
           id="use82" /><use
           xlink:href="#CMMI12-55"
           transform="matrix(0.996264,0,0,0.996264,864.74071,0)"
           id="use83" /><use
           xlink:href="#CMR17-70"
           transform="matrix(0.697382,0,0,0.697382,930.99283,-14.943915)"
           id="use84" /><use
           xlink:href="#CMR17-6f"
           transform="matrix(0.697382,0,0,0.697382,968.44114,-14.943915)"
           id="use85" /><use
           xlink:href="#CMR17-72"
           transform="matrix(0.697382,0,0,0.697382,1000.4243,-14.943915)"
           id="use86" /><use
           xlink:href="#CMR17-65"
           transform="matrix(0.697382,0,0,0.697382,1025.1207,-14.943915)"
           id="use87" /><use
           xlink:href="#CMR17-28"
           transform="matrix(0.996264,0,0,0.996264,1084.0347,0)"
           id="use88" /><use
           xlink:href="#CMR17-4b"
           transform="matrix(0.996264,0,0,0.996264,1119.3154,0)"
           id="use89" /><use
           xlink:href="#CMR17-29"
           transform="matrix(0.996264,0,0,0.996264,1190.9902,0)"
           id="use90" /></g></g></g><g
     id="line2d_12"><path
       d="m 29.551034,71.189273 9.031026,0.11093 8.675639,0.325923 8.02758,0.52063 7.233183,0.687967 6.438788,0.830912 5.748917,0.962023 5.121763,1.078349 4.599134,1.191636 4.160126,1.304588 3.783832,1.417188 3.470256,1.535533 3.198489,1.656811 2.968533,1.785898 2.78038,1.929749 2.63405,2.097749 2.50862,2.281816 2.4041,2.486369 2.34137,2.742448 2.29957,3.03886 2.29957,3.413338 2.34137,3.87936 2.55043,4.67109 3.86746,7.63634 2.29956,4.29063 1.29612,1.97801 0.91983,1.03366 0.71077,0.49077 0.56444,0.13887 0.48082,-0.098 0.48082,-0.33619 0.50172,-0.65196 0.52263,-1.06809 0.56444,-1.68789 0.60625,-2.56174 0.64806,-3.79116 0.66897,-5.32964 0.68987,-7.38373 0.71077,-10.137713 0.73168,-13.849774 0.73168,-18.285874 0.73168,-23.994305 L 142.64792,5.144698 142.77008,-1 v 0"
       clip-path="url(#p9ede40b786)"
       style="fill:none;stroke:#9e0142;stroke-width:0.75;stroke-linecap:round"
       id="path90" /></g><g
     id="line2d_13"><path
       d="m 29.551034,69.752805 10.745249,0.11112 10.22262,0.324673 9.302794,0.513632 8.236631,0.672505 7.233183,0.808541 6.355167,0.92922 5.602582,1.038838 4.996332,1.148784 4.473703,1.253686 4.034695,1.35856 3.67931,1.471543 3.36573,1.583379 3.11486,1.709308 2.90582,1.847383 2.71767,1.989244 2.59224,2.173675 2.46681,2.359325 2.38319,2.588668 2.32047,2.851249 2.29957,3.183074 2.32047,3.600658 2.42499,4.18707 2.8013,5.3073 4.78728,9.14452 1.2543,1.87812 0.91983,1.00876 0.68987,0.45963 0.56444,0.12836 0.48082,-0.10727 0.48082,-0.3459 0.50172,-0.66271 0.52263,-1.08014 0.56444,-1.7022 0.60625,-2.57913 0.64806,-3.81287 0.66896,-5.35674 0.68987,-7.41855 0.71078,-10.183731 0.73168,-13.912172 0.73168,-18.369637 0.73168,-24.108035 L 153.18412,3.197631 153.26774,-1 v 0"
       clip-path="url(#p9ede40b786)"
       style="fill:none;stroke:#e2514a;stroke-width:0.75;stroke-linecap:round"
       id="path91" /></g><g
     id="line2d_14"><path
       d="m 29.551034,69.191371 11.623265,0.111069 11.017017,0.324173 9.929948,0.509833 8.738355,0.666426 7.609476,0.79826 6.647839,0.916187 5.832538,1.023561 5.163573,1.127521 4.599135,1.227202 4.13922,1.330066 3.76293,1.439113 3.44935,1.554972 3.17758,1.674385 2.94763,1.802034 2.78038,1.960528 2.61315,2.114049 2.48771,2.297222 2.40409,2.523857 2.34138,2.784384 2.29957,3.084801 2.29956,3.461946 2.38319,3.99987 2.65496,4.91153 5.97887,11.26938 1.12888,1.54313 0.83621,0.79631 0.64806,0.3339 0.52262,0.039 0.48082,-0.18533 0.48082,-0.43774 0.50173,-0.77578 0.54353,-1.2786 0.58534,-1.99074 0.62716,-2.99476 0.64806,-4.24976 0.66896,-5.91936 0.68987,-8.148139 0.71078,-11.137051 0.73168,-15.168103 0.73168,-19.986585 0.75258,-27.052611 L 158.29911,-1 v 0"
       clip-path="url(#p9ede40b786)"
       style="fill:none;stroke:#fca55d;stroke-width:0.75;stroke-linecap:round"
       id="path92" /><g
       clip-path="url(#clip-0)"
       id="g4"
       transform="matrix(0.24,0,0,0.24,161.62092,141.29654)"><path
         fill="none"
         stroke-width="0.47183"
         stroke-linecap="butt"
         stroke-linejoin="miter"
         stroke="#000000"
         stroke-opacity="1"
         stroke-miterlimit="10"
         d="M 1.343229,0.749202 C 2.391316,1.715921 2.391316,1.715921 3.187087,2.961831 3.35281,3.220867 3.266962,3.313433 2.995982,3.167119 2.889233,3.109639 2.889233,3.109639 2.823541,3.021552 2.639901,2.77446 2.7362,2.62068 3.038533,2.678161 6.974088,3.431381 0.79679,-1.715746 5.074242,0.831317"
         transform="matrix(5.232744,0,0,-5.232744,-4.653771,18.928193)"
         id="path2-5" /><path
         fill="none"
         stroke-width="0.47183"
         stroke-linecap="round"
         stroke-linejoin="miter"
         stroke="#000000"
         stroke-opacity="1"
         stroke-miterlimit="10"
         d="M -3.04685e-4,-1.70182e-4 0.23583,3.65803e-4"
         transform="matrix(-3.84591,3.547905,3.547905,3.84591,2.374432,15.009548)"
         id="path3" /><path
         fill="none"
         stroke-width="0.47183"
         stroke-linecap="round"
         stroke-linejoin="miter"
         stroke="#000000"
         stroke-opacity="1"
         stroke-miterlimit="10"
         d="M 2.32311e-4,2.30453e-4 0.235551,-5.18167e-6"
         transform="matrix(4.495869,-2.677072,-2.677072,-4.495869,21.89801,14.579783)"
         id="path4" /></g></g><g
     id="line2d_15"><path
       d="m 29.551034,68.331262 13.337488,0.111124 12.522187,0.322683 11.121543,0.50374 9.616371,0.652151 8.278441,0.778327 7.149563,0.889712 6.229736,0.993982 5.477147,1.094342 4.85,1.190945 4.34827,1.292588 3.93017,1.397061 3.57478,1.503594 3.28211,1.618729 3.05215,1.752209 2.8431,1.887769 2.67586,2.042955 2.55043,2.228458 2.44591,2.435805 2.36228,2.670104 2.29956,2.93655 2.29957,3.302486 2.34138,3.760204 2.50862,4.46311 3.38663,6.53521 2.8431,5.32747 1.35884,2.09828 0.96164,1.10788 0.73168,0.52992 0.58534,0.1652 0.50172,-0.0864 0.48082,-0.32068 0.50173,-0.62985 0.52263,-1.03764 0.56443,-1.64522 0.60625,-2.50267 0.62716,-3.57131 0.66896,-5.17382 0.68987,-7.18052 0.71078,-9.872984 0.73168,-13.504706 0.73168,-17.849186 0.73168,-23.442987 L 167.33691,5.437433 167.46752,-1 v 0"
       clip-path="url(#p9ede40b786)"
       style="fill:none;stroke:#fee999;stroke-width:0.75;stroke-linecap:round"
       id="path93" /></g><g
     id="line2d_16"><path
       d="m 29.551034,67.121385 16.99589,0.111196 15.637056,0.319505 13.462919,0.490902 11.330594,0.629112 9.53275,0.746019 8.090297,0.850873 6.94051,0.948697 6.02068,1.042715 5.28901,1.137512 4.68275,1.23019 4.20194,1.330044 3.80474,1.434836 3.47025,1.544134 3.19849,1.665386 2.96853,1.795893 2.78039,1.942363 2.61314,2.096087 2.48772,2.279546 2.40409,2.506393 2.34138,2.766985 2.29956,3.066934 2.29957,3.442113 2.38319,3.97416 2.71767,4.98738 5.39353,10.04133 1.19159,1.67255 0.87802,0.87704 0.66896,0.38001 0.54354,0.0713 0.48081,-0.15453 0.48082,-0.39853 0.50173,-0.72447 0.54353,-1.20906 0.58535,-1.89675 0.60624,-2.75629 0.64806,-4.04336 0.66897,-5.65097 0.68987,-7.798605 0.71077,-10.680575 0.73169,-14.569549 0.73168,-19.222294 0.73168,-25.219972 L 184.94767,-1 v 0"
       clip-path="url(#p9ede40b786)"
       style="fill:none;stroke:#edf8a3;stroke-width:0.75;stroke-linecap:round"
       id="path94" /></g><g
     id="line2d_17"><path
       d="m 29.551034,65.997282 23.246531,0.111183 20.654293,0.313794 16.974985,0.472005 13.734687,0.596822 11.20516,0.702614 9.28189,0.79813 7.83943,0.891513 6.71056,0.981845 5.81163,1.069799 5.12176,1.164984 4.53642,1.255932 4.07651,1.356085 3.6793,1.454473 3.36573,1.566041 3.11487,1.692831 2.88491,1.818565 2.71767,1.975144 2.57134,2.143848 2.4459,2.327751 2.36228,2.554563 2.32048,2.840472 2.29956,3.172609 2.32047,3.586035 2.46681,4.23157 3.11487,5.82358 3.36573,6.20947 1.35884,2.05752 0.96163,1.08967 0.73168,0.52404 0.58535,0.16668 0.50172,-0.08 0.48082,-0.30927 0.50172,-0.61171 0.52263,-1.01095 0.56444,-1.60605 0.60625,-2.44664 0.62716,-3.49543 0.66896,-5.069 0.68987,-7.041485 0.71078,-9.690098 0.71077,-12.832082 0.73168,-17.40879 0.73168,-22.88533 L 210.21338,5.518828 210.34857,-1 v 0"
       clip-path="url(#p9ede40b786)"
       style="fill:none;stroke:#a2d9a4;stroke-width:0.75;stroke-linecap:round"
       id="path95" /></g><g
     id="line2d_18"><path
       d="m 29.551034,65.83302 24.605366,0.111022 21.720456,0.312602 17.68576,0.468541 14.173694,0.589795 11.51874,0.694669 9.51185,0.78984 8.00667,0.8824 6.83599,0.972166 5.91615,1.061342 5.18448,1.151605 4.59914,1.245495 4.11831,1.34209 3.72112,1.442903 3.40754,1.557533 3.13577,1.676066 2.90582,1.802922 2.73857,1.960765 2.59224,2.131287 2.46681,2.317618 2.38319,2.547283 2.32047,2.809661 2.29957,3.139417 2.32047,3.550948 2.46681,4.19546 3.03125,5.63145 3.63749,6.70515 1.35884,2.03981 0.96164,1.072 0.73168,0.50668 0.58534,0.14967 0.50172,-0.0972 0.48082,-0.32857 0.50173,-0.63524 0.52262,-1.03981 0.56444,-1.64317 0.60625,-2.49485 0.64806,-3.69466 0.66897,-5.1985 0.68987,-7.209289 0.71077,-9.909298 0.71078,-13.111634 0.73168,-17.778222 0.73168,-23.362813 L 215.31424,2.607099 215.38835,-1 v 0"
       clip-path="url(#p9ede40b786)"
       style="fill:none;stroke:#47a0b3;stroke-width:0.75;stroke-linecap:round"
       id="path96" /></g><g
     id="line2d_19"><path
       d="m 29.551034,65.82999 24.647177,0.111159 21.74136,0.312745 17.685761,0.468217 14.194598,0.590317 11.51874,0.694378 9.51185,0.789458 8.00667,0.881931 6.83599,0.971613 5.91615,1.060705 5.18448,1.15088 4.59914,1.244675 4.11831,1.341173 3.72112,1.441884 3.40754,1.556399 3.13577,1.67481 2.90582,1.80154 2.73857,1.959232 2.59224,2.129595 2.46681,2.315764 2.38319,2.545244 2.32047,2.80744 2.29957,3.137017 2.32047,3.548424 2.4459,4.15567 3.01035,5.5869 3.70021,6.82279 1.35883,2.03725 0.96164,1.0691 0.73168,0.50366 0.58535,0.14659 0.50172,-0.10043 0.48082,-0.33222 0.50172,-0.63973 0.52263,-1.04541 0.56444,-1.65045 0.60625,-2.50438 0.64806,-3.70725 0.66896,-5.21475 0.68987,-7.23037 0.71078,-9.936864 0.73168,-13.590572 L 213.9554,56.768518 214.68708,33.16386 215.43967,1.259705 215.48586,-1 v 0"
       clip-path="url(#p9ede40b786)"
       style="fill:none;stroke:#5e4fa2;stroke-width:0.75;stroke-linecap:round"
       id="path97" /></g><g
     id="patch_3"><path
       d="M 29.551034,126.78529 V 0.36"
       style="fill:none;stroke:#000000;stroke-width:0.35;stroke-linecap:square;stroke-linejoin:miter"
       id="path98" /></g><g
     id="patch_4"><path
       d="M 247.66996,126.78529 V 0.36"
       style="fill:none;stroke:#000000;stroke-width:0.35;stroke-linecap:square;stroke-linejoin:miter"
       id="path99" /></g><g
     id="patch_5"><path
       d="M 29.551034,126.78529 H 247.66996"
       style="fill:none;stroke:#000000;stroke-width:0.35;stroke-linecap:square;stroke-linejoin:miter"
       id="path100" /></g><g
     id="patch_6"><path
       d="M 29.551034,0.36 H 247.66996"
       style="fill:none;stroke:#000000;stroke-width:0.35;stroke-linecap:square;stroke-linejoin:miter"
       id="path101" /></g><g
     id="legend_1"><g
       id="line2d_20"><path
         d="m 253.05115,6.99907 h 4 4"
         style="fill:none;stroke:#9e0142;stroke-width:0.75;stroke-linecap:round"
         id="path102" /></g><g
       id="text_14"><!-- $x=0$ --><g
         transform="matrix(0.08,0,0,-0.08,267.45115,9.79907)"
         id="g104"><defs
           id="defs102"><path
             id="CMMI12-78"
             d="m 3034,2624 c -205,-39 -282,-193 -282,-314 0,-154 122,-205 211,-205 192,0 327,166 327,339 0,250 -308,372 -576,372 -391,0 -608,-365 -666,-487 -147,461 -544,487 -659,487 -653,0 -999,-823 -999,-967 0,-26 26,-59 71,-59 51,0 64,39 77,65 217,717 646,832 832,832 288,0 345,-249 345,-403 0,-141 -38,-291 -115,-606 L 1382,778 C 1286,390 1101,64 762,64 730,64 570,64 435,126 666,166 717,358 717,435 717,563 621,640 499,640 346,640 179,505 179,300 179,57 480,-64 755,-64 c 307,0 525,217 659,479 103,-351 423,-479 660,-479 652,0 998,815 998,960 0,33 -26,59 -64,59 -58,0 -64,-33 -83,-85 C 2752,300 2381,64 2093,64 c -224,0 -346,140 -346,403 0,140 26,245 128,679 l 224,893 c 96,386 314,648 608,648 13,0 192,0 327,-63 z"
             transform="scale(0.015625)" /><path
             id="CMR17-3d"
             d="m 4115,2048 c 96,0 192,0 192,108 0,116 -109,116 -217,116 H 512 c -109,0 -218,0 -218,-116 0,-108 96,-108 192,-108 z M 4090,927 c 108,0 217,0 217,116 0,109 -96,109 -192,109 H 486 c -96,0 -192,0 -192,-109 0,-116 109,-116 218,-116 z"
             transform="scale(0.015625)" /></defs><use
           xlink:href="#CMMI12-78"
           transform="scale(0.996264)"
           id="use102" /><use
           xlink:href="#CMR17-3d"
           transform="matrix(0.996264,0,0,0.996264,83.108068,0)"
           id="use103" /><use
           xlink:href="#CMR17-30"
           transform="matrix(0.996264,0,0,0.996264,182.49687,0)"
           id="use104" /></g></g><g
       id="line2d_21"><path
         d="m 253.05115,18.5264 h 4 4"
         style="fill:none;stroke:#e2514a;stroke-width:0.75;stroke-linecap:round"
         id="path104" /></g><g
       id="text_15"><!-- $|x|=w/5$ --><g
         transform="matrix(0.08,0,0,-0.08,267.45115,21.3264)"
         id="g111"><defs
           id="defs104"><path
             id="CMSY10-6a"
             d="m 1018,4569 c 0,115 0,231 -128,231 -128,0 -128,-116 -128,-231 v -5939 c 0,-115 0,-230 128,-230 128,0 128,115 128,230 z"
             transform="scale(0.015625)" /><path
             id="CMMI12-77"
             d="m 2202,389 c 140,-383 537,-453 780,-453 487,0 775,421 954,862 147,370 384,1213 384,1590 0,389 -198,428 -256,428 -154,0 -294,-154 -294,-282 0,-76 44,-121 76,-146 58,-58 224,-230 224,-562 0,-217 -179,-818 -313,-1118 C 3578,319 3341,64 3008,64 c -358,0 -474,268 -474,561 0,185 58,409 84,517 l 268,1073 c 32,128 90,351 90,376 0,96 -77,161 -173,161 -185,0 -230,-161 -269,-314 C 2470,2189 2202,1110 2176,970 2150,861 2150,791 2150,651 2150,498 1946,255 1939,242 1869,172 1766,64 1568,64 c -506,0 -506,478 -506,587 0,204 45,485 333,1245 77,198 109,281 109,409 0,268 -192,511 -506,511 -588,0 -825,-926 -825,-978 0,-25 25,-57 70,-57 58,0 64,26 90,115 160,562 409,791 646,791 64,0 167,-6 167,-210 0,-32 0,-166 -109,-447 C 736,1232 672,970 672,728 c 0,-671 550,-792 877,-792 109,0 397,0 653,453 z"
             transform="scale(0.015625)" /><path
             id="CMR17-35"
             d="m 730,3750 c 64,-26 326,-109 595,-109 595,0 921,320 1107,499 0,51 0,84 -38,84 -7,0 -20,0 -71,-26 -224,-96 -486,-166 -806,-166 -192,0 -480,23 -794,159 -70,33 -83,33 -89,33 -32,0 -39,-7 -39,-134 V 2231 c 0,-118 0,-151 64,-151 32,0 45,13 77,59 205,296 486,421 806,421 224,0 704,-145 704,-1267 0,-206 0,-577 -192,-871 C 1894,159 1645,25 1370,25 947,25 518,319 403,812 c 26,-6 77,-19 103,-19 83,0 243,45 243,243 0,173 -122,244 -243,244 -148,0 -244,-90 -244,-269 0,-557 442,-1139 1120,-1139 660,0 1287,569 1287,1395 0,787 -499,1395 -1120,1395 -327,0 -602,-122 -819,-358 z"
             transform="scale(0.015625)" /></defs><use
           xlink:href="#CMSY10-6a"
           transform="scale(0.996264)"
           id="use105" /><use
           xlink:href="#CMMI12-78"
           transform="matrix(0.996264,0,0,0.996264,27.674085,0)"
           id="use106" /><use
           xlink:href="#CMSY10-6a"
           transform="matrix(0.996264,0,0,0.996264,83.108144,0)"
           id="use107" /><use
           xlink:href="#CMR17-3d"
           transform="matrix(0.996264,0,0,0.996264,138.45624,0)"
           id="use108" /><use
           xlink:href="#CMMI12-77"
           transform="matrix(0.996264,0,0,0.996264,237.84503,0)"
           id="use109" /><use
           xlink:href="#CMMI12-3d"
           transform="matrix(0.996264,0,0,0.996264,310.25795,0)"
           id="use110" /><use
           xlink:href="#CMR17-35"
           transform="matrix(0.996264,0,0,0.996264,359.03287,0)"
           id="use111" /></g></g><g
       id="line2d_22"><path
         d="m 253.05115,30.496512 h 4 4"
         style="fill:none;stroke:#fca55d;stroke-width:0.75;stroke-linecap:round"
         id="path111" /></g><g
       id="text_16"><!-- $|x|=w/4$ --><g
         transform="matrix(0.08,0,0,-0.08,267.45115,33.296512)"
         id="g118"><use
           xlink:href="#CMSY10-6a"
           transform="scale(0.996264)"
           id="use112" /><use
           xlink:href="#CMMI12-78"
           transform="matrix(0.996264,0,0,0.996264,27.674085,0)"
           id="use113" /><use
           xlink:href="#CMSY10-6a"
           transform="matrix(0.996264,0,0,0.996264,83.108144,0)"
           id="use114" /><use
           xlink:href="#CMR17-3d"
           transform="matrix(0.996264,0,0,0.996264,138.45624,0)"
           id="use115" /><use
           xlink:href="#CMMI12-77"
           transform="matrix(0.996264,0,0,0.996264,237.84503,0)"
           id="use116" /><use
           xlink:href="#CMMI12-3d"
           transform="matrix(0.996264,0,0,0.996264,310.25795,0)"
           id="use117" /><use
           xlink:href="#CMR17-34"
           transform="matrix(0.996264,0,0,0.996264,359.03287,0)"
           id="use118" /></g></g><g
       id="line2d_23"><path
         d="m 253.05115,42.466624 h 4 4"
         style="fill:none;stroke:#fee999;stroke-width:0.75;stroke-linecap:round"
         id="path118" /></g><g
       id="text_17"><!-- $|x|=w/3$ --><g
         transform="matrix(0.08,0,0,-0.08,267.45115,45.266624)"
         id="g125"><defs
           id="defs118"><path
             id="CMR17-33"
             d="m 1414,2176 c 570,0 820,-503 820,-1082 C 2234,322 1824,25 1453,25 1114,25 563,193 390,691 c 32,-13 64,-13 96,-13 154,0 269,102 269,269 0,185 -141,269 -269,269 -108,0 -275,-52 -275,-289 0,-592 576,-1055 1255,-1055 710,0 1254,560 1254,1215 0,631 -512,1089 -1120,1159 486,101 954,530 954,1107 0,503 -506,871 -1082,871 -582,0 -1094,-362 -1094,-877 0,-224 166,-263 249,-263 135,0 250,83 250,250 0,166 -115,250 -250,250 -25,0 -57,0 -83,-13 186,428 691,505 915,505 224,0 647,-110 647,-729 0,-180 -26,-496 -244,-773 -192,-245 -409,-258 -620,-277 -32,0 -180,-13 -205,-13 -45,-6 -71,-12 -71,-57 0,-45 7,-51 135,-51 z"
             transform="scale(0.015625)" /></defs><use
           xlink:href="#CMSY10-6a"
           transform="scale(0.996264)"
           id="use119" /><use
           xlink:href="#CMMI12-78"
           transform="matrix(0.996264,0,0,0.996264,27.674085,0)"
           id="use120" /><use
           xlink:href="#CMSY10-6a"
           transform="matrix(0.996264,0,0,0.996264,83.108144,0)"
           id="use121" /><use
           xlink:href="#CMR17-3d"
           transform="matrix(0.996264,0,0,0.996264,138.45624,0)"
           id="use122" /><use
           xlink:href="#CMMI12-77"
           transform="matrix(0.996264,0,0,0.996264,237.84503,0)"
           id="use123" /><use
           xlink:href="#CMMI12-3d"
           transform="matrix(0.996264,0,0,0.996264,310.25795,0)"
           id="use124" /><use
           xlink:href="#CMR17-33"
           transform="matrix(0.996264,0,0,0.996264,359.03287,0)"
           id="use125" /></g></g><g
       id="line2d_24"><path
         d="m 253.05115,54.436736 h 4 4"
         style="fill:none;stroke:#edf8a3;stroke-width:0.75;stroke-linecap:round"
         id="path125" /></g><g
       id="text_18"><!-- $|x|=w/2$ --><g
         transform="matrix(0.08,0,0,-0.08,267.45115,57.236736)"
         id="g132"><use
           xlink:href="#CMSY10-6a"
           transform="scale(0.996264)"
           id="use126" /><use
           xlink:href="#CMMI12-78"
           transform="matrix(0.996264,0,0,0.996264,27.674085,0)"
           id="use127" /><use
           xlink:href="#CMSY10-6a"
           transform="matrix(0.996264,0,0,0.996264,83.108144,0)"
           id="use128" /><use
           xlink:href="#CMR17-3d"
           transform="matrix(0.996264,0,0,0.996264,138.45624,0)"
           id="use129" /><use
           xlink:href="#CMMI12-77"
           transform="matrix(0.996264,0,0,0.996264,237.84503,0)"
           id="use130" /><use
           xlink:href="#CMMI12-3d"
           transform="matrix(0.996264,0,0,0.996264,310.25795,0)"
           id="use131" /><use
           xlink:href="#CMR17-32"
           transform="matrix(0.996264,0,0,0.996264,359.03287,0)"
           id="use132" /></g></g><g
       id="line2d_25"><path
         d="m 253.05115,66.406848 h 4 4"
         style="fill:none;stroke:#a2d9a4;stroke-width:0.75;stroke-linecap:round"
         id="path132" /></g><g
       id="text_19"><!-- $|x|=w$ --><g
         transform="matrix(0.08,0,0,-0.08,267.45115,69.206848)"
         id="g137"><use
           xlink:href="#CMSY10-6a"
           transform="scale(0.996264)"
           id="use133" /><use
           xlink:href="#CMMI12-78"
           transform="matrix(0.996264,0,0,0.996264,27.674085,0)"
           id="use134" /><use
           xlink:href="#CMSY10-6a"
           transform="matrix(0.996264,0,0,0.996264,83.108144,0)"
           id="use135" /><use
           xlink:href="#CMR17-3d"
           transform="matrix(0.996264,0,0,0.996264,138.45624,0)"
           id="use136" /><use
           xlink:href="#CMMI12-77"
           transform="matrix(0.996264,0,0,0.996264,237.84503,0)"
           id="use137" /></g></g><g
       id="line2d_26"><path
         d="m 253.05115,78.37696 h 4 4"
         style="fill:none;stroke:#47a0b3;stroke-width:0.75;stroke-linecap:round"
         id="path137" /></g><g
       id="text_20"><!-- $|x|=2w$ --><g
         transform="matrix(0.08,0,0,-0.08,267.45115,81.17696)"
         id="g143"><use
           xlink:href="#CMSY10-6a"
           transform="scale(0.996264)"
           id="use138" /><use
           xlink:href="#CMMI12-78"
           transform="matrix(0.996264,0,0,0.996264,27.674085,0)"
           id="use139" /><use
           xlink:href="#CMSY10-6a"
           transform="matrix(0.996264,0,0,0.996264,83.108144,0)"
           id="use140" /><use
           xlink:href="#CMR17-3d"
           transform="matrix(0.996264,0,0,0.996264,138.45624,0)"
           id="use141" /><use
           xlink:href="#CMR17-32"
           transform="matrix(0.996264,0,0,0.996264,237.84503,0)"
           id="use142" /><use
           xlink:href="#CMMI12-77"
           transform="matrix(0.996264,0,0,0.996264,283.53551,0)"
           id="use143" /></g></g><g
       id="line2d_27"><path
         d="m 253.05115,90.347073 h 4 4"
         style="fill:none;stroke:#5e4fa2;stroke-width:0.75;stroke-linecap:round"
         id="path143" /></g><g
       id="text_21"><!-- $|x|=L/2$ --><g
         transform="matrix(0.08,0,0,-0.08,267.45115,93.147073)"
         id="g150"><defs
           id="defs143"><path
             id="CMMI12-4c"
             d="m 2349,3860 c 57,242 77,306 640,306 173,0 217,0 217,121 0,65 -70,65 -96,65 -128,0 -275,-13 -403,-13 h -857 c -122,0 -263,13 -384,13 -52,0 -122,0 -122,-122 0,-64 58,-64 154,-64 390,0 390,-51 390,-121 0,-13 0,-51 -26,-147 L 998,472 C 941,249 928,185 480,185 358,185 294,185 294,70 294,0 333,0 461,0 h 2867 c 141,0 147,6 192,121 l 493,1357 c 13,32 25,70 25,89 0,38 -32,64 -64,64 -6,0 -38,0 -51,-26 -13,-6 -13,-19 -64,-140 C 3654,905 3366,185 2285,185 h -615 c -89,0 -102,0 -140,6 -71,7 -77,20 -77,71 0,44 13,82 25,140 z"
             transform="scale(0.015625)" /></defs><use
           xlink:href="#CMSY10-6a"
           transform="scale(0.996264)"
           id="use144" /><use
           xlink:href="#CMMI12-78"
           transform="matrix(0.996264,0,0,0.996264,27.674085,0)"
           id="use145" /><use
           xlink:href="#CMSY10-6a"
           transform="matrix(0.996264,0,0,0.996264,83.108144,0)"
           id="use146" /><use
           xlink:href="#CMR17-3d"
           transform="matrix(0.996264,0,0,0.996264,138.45624,0)"
           id="use147" /><use
           xlink:href="#CMMI12-4c"
           transform="matrix(0.996264,0,0,0.996264,237.84503,0)"
           id="use148" /><use
           xlink:href="#CMMI12-3d"
           transform="matrix(0.996264,0,0,0.996264,304.21591,0)"
           id="use149" /><use
           xlink:href="#CMR17-32"
           transform="matrix(0.996264,0,0,0.996264,352.99083,0)"
           id="use150" /></g></g></g><defs
     id="defs150"><clipPath
       id="p9ede40b786"><rect
         x="29.551034"
         y="0.36"
         width="218.118927"
         height="126.425291"
         id="rect150" /></clipPath></defs></svg>
