<?xml version="1.0" encoding="utf-8" standalone="no"?>
<!DOCTYPE svg PUBLIC "-//W3C//DTD SVG 1.1//EN"
  "http://www.w3.org/Graphics/SVG/1.1/DTD/svg11.dtd">
<svg xmlns:xlink="http://www.w3.org/1999/xlink" width="493.62192pt" height="148.88736pt" viewBox="0 0 493.62192 148.88736" xmlns="http://www.w3.org/2000/svg" version="1.1">
 <metadata>
  <rdf:RDF xmlns:dc="http://purl.org/dc/elements/1.1/" xmlns:cc="http://creativecommons.org/ns#" xmlns:rdf="http://www.w3.org/1999/02/22-rdf-syntax-ns#">
   <cc:Work>
    <dc:type rdf:resource="http://purl.org/dc/dcmitype/StillImage"/>
    <dc:date>2024-09-24T12:11:44.894466</dc:date>
    <dc:format>image/svg+xml</dc:format>
    <dc:creator>
     <cc:Agent>
      <dc:title>Matplotlib v3.9.2, https://matplotlib.org/</dc:title>
     </cc:Agent>
    </dc:creator>
   </cc:Work>
  </rdf:RDF>
 </metadata>
 <defs>
  <style type="text/css">*{stroke-linejoin: round; stroke-linecap: butt}</style>
 </defs>
 <g id="figure_1">
  <g id="patch_1">
   <path d="M 0 148.88736 
L 493.62192 148.88736 
L 493.62192 0 
L 0 0 
L 0 148.88736 
z
" style="fill: none"/>
  </g>
  <g id="axes_1">
   <g id="patch_2">
    <path d="M 24.58375 127.42236 
L 243.81072 127.42236 
L 243.81072 0.36 
L 24.58375 0.36 
L 24.58375 127.42236 
z
" style="fill: none"/>
   </g>
   <g id="patch_3">
    <path d="M 34.797734 127.42236 
L 44.264353 127.42236 
L 44.264353 121.921825 
L 34.797734 121.921825 
z
" clip-path="url(#p09f02ac030)" style="fill: #4b4b4b"/>
   </g>
   <g id="patch_4">
    <path d="M 44.762596 127.42236 
L 54.229215 127.42236 
L 54.229215 121.921825 
L 44.762596 121.921825 
z
" clip-path="url(#p09f02ac030)" style="fill: #4b4b4b"/>
   </g>
   <g id="patch_5">
    <path d="M 54.727458 127.42236 
L 64.194078 127.42236 
L 64.194078 105.42022 
L 54.727458 105.42022 
z
" clip-path="url(#p09f02ac030)" style="fill: #4b4b4b"/>
   </g>
   <g id="patch_6">
    <path d="M 64.692321 127.42236 
L 74.15894 127.42236 
L 74.15894 116.42129 
L 64.692321 116.42129 
z
" clip-path="url(#p09f02ac030)" style="fill: #4b4b4b"/>
   </g>
   <g id="patch_7">
    <path d="M 74.657183 127.42236 
L 84.123802 127.42236 
L 84.123802 99.919685 
L 74.657183 99.919685 
z
" clip-path="url(#p09f02ac030)" style="fill: #4b4b4b"/>
   </g>
   <g id="patch_8">
    <path d="M 84.622045 127.42236 
L 94.088664 127.42236 
L 94.088664 110.920755 
L 84.622045 110.920755 
z
" clip-path="url(#p09f02ac030)" style="fill: #4b4b4b"/>
   </g>
   <g id="patch_9">
    <path d="M 94.586907 127.42236 
L 104.053527 127.42236 
L 104.053527 83.418079 
L 94.586907 83.418079 
z
" clip-path="url(#p09f02ac030)" style="fill: #4b4b4b"/>
   </g>
   <g id="patch_10">
    <path d="M 104.55177 127.42236 
L 114.018389 127.42236 
L 114.018389 44.914334 
L 104.55177 44.914334 
z
" clip-path="url(#p09f02ac030)" style="fill: #4b4b4b"/>
   </g>
   <g id="patch_11">
    <path d="M 114.516632 127.42236 
L 123.983251 127.42236 
L 123.983251 33.913264 
L 114.516632 33.913264 
z
" clip-path="url(#p09f02ac030)" style="fill: #4b4b4b"/>
   </g>
   <g id="patch_12">
    <path d="M 124.481494 127.42236 
L 133.948113 127.42236 
L 133.948113 61.415939 
L 124.481494 61.415939 
z
" clip-path="url(#p09f02ac030)" style="fill: #4b4b4b"/>
   </g>
   <g id="patch_13">
    <path d="M 134.446357 127.42236 
L 143.912976 127.42236 
L 143.912976 6.410589 
L 134.446357 6.410589 
z
" clip-path="url(#p09f02ac030)" style="fill: #4b4b4b"/>
   </g>
   <g id="patch_14">
    <path d="M 144.411219 127.42236 
L 153.877838 127.42236 
L 153.877838 44.914334 
L 144.411219 44.914334 
z
" clip-path="url(#p09f02ac030)" style="fill: #4b4b4b"/>
   </g>
   <g id="patch_15">
    <path d="M 154.376081 127.42236 
L 163.8427 127.42236 
L 163.8427 33.913264 
L 154.376081 33.913264 
z
" clip-path="url(#p09f02ac030)" style="fill: #4b4b4b"/>
   </g>
   <g id="patch_16">
    <path d="M 164.340943 127.42236 
L 173.807563 127.42236 
L 173.807563 77.917544 
L 164.340943 77.917544 
z
" clip-path="url(#p09f02ac030)" style="fill: #4b4b4b"/>
   </g>
   <g id="patch_17">
    <path d="M 174.305806 127.42236 
L 183.772425 127.42236 
L 183.772425 105.42022 
L 174.305806 105.42022 
z
" clip-path="url(#p09f02ac030)" style="fill: #4b4b4b"/>
   </g>
   <g id="patch_18">
    <path d="M 184.270668 127.42236 
L 193.737287 127.42236 
L 193.737287 88.918615 
L 184.270668 88.918615 
z
" clip-path="url(#p09f02ac030)" style="fill: #4b4b4b"/>
   </g>
   <g id="patch_19">
    <path d="M 194.23553 127.42236 
L 203.702149 127.42236 
L 203.702149 105.42022 
L 194.23553 105.42022 
z
" clip-path="url(#p09f02ac030)" style="fill: #4b4b4b"/>
   </g>
   <g id="patch_20">
    <path d="M 204.200392 127.42236 
L 213.667012 127.42236 
L 213.667012 116.42129 
L 204.200392 116.42129 
z
" clip-path="url(#p09f02ac030)" style="fill: #4b4b4b"/>
   </g>
   <g id="patch_21">
    <path d="M 214.165255 127.42236 
L 223.631874 127.42236 
L 223.631874 127.42236 
L 214.165255 127.42236 
z
" clip-path="url(#p09f02ac030)" style="fill: #4b4b4b"/>
   </g>
   <g id="patch_22">
    <path d="M 224.130117 127.42236 
L 233.596736 127.42236 
L 233.596736 110.920755 
L 224.130117 110.920755 
z
" clip-path="url(#p09f02ac030)" style="fill: #4b4b4b"/>
   </g>
   <g id="matplotlib.axis_1">
    <g id="xtick_1">
     <g id="line2d_1">
      <defs>
       <path id="md27ac33d9d" d="M 0 0 
L 0 2 
" style="stroke: #000000; stroke-width: 0.35"/>
      </defs>
      <g>
       <use xlink:href="#md27ac33d9d" x="45.36469" y="127.42236" style="stroke: #000000; stroke-width: 0.35"/>
      </g>
     </g>
     <g id="text_1">
      <!-- −11 -->
      <g transform="translate(38.252815 136.97486) scale(0.08 -0.08)">
       <defs>
        <path id="CMUSerif-Roman-2212" d="M 365 1594 
C 365 1530 474 1523 531 1523 
L 563 1523 
C 614 1523 659 1530 710 1530 
L 4314 1530 
C 4352 1530 4384 1523 4422 1523 
L 4435 1523 
C 4506 1523 4602 1530 4602 1600 
C 4602 1683 4499 1670 4416 1670 
L 493 1670 
C 422 1670 365 1658 365 1594 
z
" transform="scale(0.015625)"/>
        <path id="CMUSerif-Roman-31" d="M 570 3654 
C 698 3654 1075 3654 1408 3821 
L 1408 506 
C 1408 275 1389 198 813 198 
L 608 198 
L 608 0 
C 832 19 1389 19 1645 19 
C 1901 19 2458 19 2682 0 
L 2682 198 
L 2477 198 
C 1901 198 1882 269 1882 506 
L 1882 4096 
C 1882 4250 1882 4262 1734 4262 
C 1338 3853 774 3853 570 3853 
L 570 3654 
z
" transform="scale(0.015625)"/>
       </defs>
       <use xlink:href="#CMUSerif-Roman-2212"/>
       <use xlink:href="#CMUSerif-Roman-31" x="77.799988"/>
       <use xlink:href="#CMUSerif-Roman-31" x="127.799973"/>
      </g>
     </g>
    </g>
    <g id="xtick_2">
     <g id="line2d_2">
      <g>
       <use xlink:href="#md27ac33d9d" x="83.744154" y="127.42236" style="stroke: #000000; stroke-width: 0.35"/>
      </g>
     </g>
     <g id="text_2">
      <!-- −10 -->
      <g transform="translate(76.632279 136.97486) scale(0.08 -0.08)">
       <defs>
        <path id="CMUSerif-Roman-30" d="M 250 2048 
C 250 1568 275 992 538 506 
C 813 -13 1280 -141 1594 -141 
C 1939 -141 2426 -6 2707 602 
C 2912 1043 2944 1542 2944 2048 
C 2944 2560 2912 3072 2688 3546 
C 2394 4160 1869 4262 1600 4262 
C 1216 4262 749 4096 486 3501 
C 282 3059 250 2560 250 2048 
z
M 781 2125 
C 781 2534 781 2957 832 3302 
C 954 4064 1434 4122 1594 4122 
C 1805 4122 2227 4006 2349 3373 
C 2413 3014 2413 2528 2413 2125 
C 2413 1645 2413 1210 2342 800 
C 2246 192 1882 0 1594 0 
C 1344 0 966 160 851 774 
C 781 1158 781 1747 781 2125 
z
" transform="scale(0.015625)"/>
       </defs>
       <use xlink:href="#CMUSerif-Roman-2212"/>
       <use xlink:href="#CMUSerif-Roman-31" x="77.799988"/>
       <use xlink:href="#CMUSerif-Roman-30" x="127.799973"/>
      </g>
     </g>
    </g>
    <g id="xtick_3">
     <g id="line2d_3">
      <g>
       <use xlink:href="#md27ac33d9d" x="122.123618" y="127.42236" style="stroke: #000000; stroke-width: 0.35"/>
      </g>
     </g>
     <g id="text_3">
      <!-- −9 -->
      <g transform="translate(117.011743 136.97486) scale(0.08 -0.08)">
       <defs>
        <path id="CMUSerif-Roman-39" d="M 269 2822 
C 269 2022 832 1395 1549 1395 
C 1939 1395 2202 1664 2349 2035 
L 2349 1830 
C 2349 333 1683 38 1312 38 
C 1203 38 858 51 685 269 
C 966 269 1018 454 1018 563 
C 1018 762 864 858 723 858 
C 621 858 429 800 429 550 
C 429 122 774 -141 1318 -141 
C 2144 -141 2925 730 2925 2106 
C 2925 3827 2189 4262 1619 4262 
C 1267 4262 954 4147 678 3859 
C 416 3571 269 3302 269 2822 
z
M 845 2816 
C 845 3162 845 3462 979 3699 
C 1152 4019 1395 4102 1619 4102 
C 1914 4102 2125 3885 2234 3597 
C 2310 3392 2336 2989 2336 2694 
C 2336 2163 2118 1542 1555 1542 
C 1453 1542 1158 1542 960 1946 
C 845 2182 845 2502 845 2816 
z
" transform="scale(0.015625)"/>
       </defs>
       <use xlink:href="#CMUSerif-Roman-2212"/>
       <use xlink:href="#CMUSerif-Roman-39" x="77.799988"/>
      </g>
     </g>
    </g>
    <g id="xtick_4">
     <g id="line2d_4">
      <g>
       <use xlink:href="#md27ac33d9d" x="160.503082" y="127.42236" style="stroke: #000000; stroke-width: 0.35"/>
      </g>
     </g>
     <g id="text_4">
      <!-- −8 -->
      <g transform="translate(155.391207 136.97486) scale(0.08 -0.08)">
       <defs>
        <path id="CMUSerif-Roman-38" d="M 269 966 
C 269 288 922 -141 1594 -141 
C 2317 -141 2925 390 2925 1075 
C 2925 1306 2854 1594 2611 1862 
C 2490 1997 2387 2061 1978 2317 
C 2438 2554 2752 2886 2752 3309 
C 2752 3898 2182 4262 1600 4262 
C 960 4262 442 3789 442 3194 
C 442 3078 454 2790 723 2490 
C 794 2413 1030 2253 1190 2144 
C 819 1958 269 1600 269 966 
z
M 589 966 
C 589 1338 794 1747 1338 2048 
L 2125 1549 
C 2304 1427 2605 1235 2605 845 
C 2605 371 2125 38 1600 38 
C 1050 38 589 435 589 966 
z
M 723 3443 
C 723 3834 1139 4102 1594 4102 
C 2061 4102 2470 3770 2470 3309 
C 2470 2944 2221 2637 1837 2413 
L 1043 2925 
C 749 3117 723 3334 723 3443 
z
" transform="scale(0.015625)"/>
       </defs>
       <use xlink:href="#CMUSerif-Roman-2212"/>
       <use xlink:href="#CMUSerif-Roman-38" x="77.799988"/>
      </g>
     </g>
    </g>
    <g id="xtick_5">
     <g id="line2d_5">
      <g>
       <use xlink:href="#md27ac33d9d" x="198.882546" y="127.42236" style="stroke: #000000; stroke-width: 0.35"/>
      </g>
     </g>
     <g id="text_5">
      <!-- −7 -->
      <g transform="translate(193.770671 136.97486) scale(0.08 -0.08)">
       <defs>
        <path id="CMUSerif-Roman-37" d="M 358 3008 
L 518 3008 
C 538 3110 595 3514 678 3590 
C 723 3629 1222 3629 1306 3629 
L 2630 3629 
C 2560 3526 2054 2829 1914 2618 
C 1338 1754 1126 864 1126 211 
C 1126 147 1126 -141 1421 -141 
C 1715 -141 1715 147 1715 211 
L 1715 538 
C 1715 890 1734 1242 1786 1587 
C 1811 1734 1901 2285 2182 2682 
L 3046 3898 
C 3104 3974 3104 3987 3104 4122 
L 1549 4122 
C 768 4122 755 4205 730 4326 
L 570 4326 
L 358 3008 
z
" transform="scale(0.015625)"/>
       </defs>
       <use xlink:href="#CMUSerif-Roman-2212"/>
       <use xlink:href="#CMUSerif-Roman-37" x="77.799988"/>
      </g>
     </g>
    </g>
    <g id="xtick_6">
     <g id="line2d_6">
      <g>
       <use xlink:href="#md27ac33d9d" x="237.26201" y="127.42236" style="stroke: #000000; stroke-width: 0.35"/>
      </g>
     </g>
     <g id="text_6">
      <!-- −6 -->
      <g transform="translate(232.150135 136.97486) scale(0.08 -0.08)">
       <defs>
        <path id="CMUSerif-Roman-36" d="M 269 2022 
C 269 314 1011 -141 1606 -141 
C 2317 -141 2925 461 2925 1306 
C 2925 2118 2355 2733 1645 2733 
C 1210 2733 973 2406 845 2099 
L 845 2253 
C 845 3872 1638 4102 1965 4102 
C 2118 4102 2387 4064 2528 3846 
C 2432 3846 2176 3846 2176 3558 
C 2176 3360 2330 3264 2470 3264 
C 2573 3264 2765 3322 2765 3571 
C 2765 3955 2483 4262 1952 4262 
C 1133 4262 269 3437 269 2022 
z
M 858 1446 
C 858 1946 1062 2586 1638 2586 
C 1741 2586 2035 2586 2234 2189 
C 2349 1952 2349 1626 2349 1312 
C 2349 1005 2349 685 2240 454 
C 2048 70 1754 38 1606 38 
C 1203 38 1011 422 973 518 
C 858 819 858 1331 858 1446 
z
" transform="scale(0.015625)"/>
       </defs>
       <use xlink:href="#CMUSerif-Roman-2212"/>
       <use xlink:href="#CMUSerif-Roman-36" x="77.799988"/>
      </g>
     </g>
    </g>
    <g id="text_7">
     <!-- $E/N_c$  (K) -->
     <g transform="translate(115.677235 146.52736) scale(0.08 -0.08)">
      <defs>
       <path id="Cmmi10-45" d="M 300 0 
Q 238 0 238 84 
Q 241 100 250 139 
Q 259 178 276 201 
Q 294 225 319 225 
Q 709 225 863 269 
Q 947 297 984 441 
L 1863 3956 
Q 1875 4019 1875 4044 
Q 1875 4113 1797 4122 
Q 1678 4147 1338 4147 
Q 1275 4147 1275 4231 
Q 1278 4247 1287 4286 
Q 1297 4325 1314 4348 
Q 1331 4372 1356 4372 
L 4825 4372 
Q 4891 4372 4891 4288 
L 4738 2963 
Q 4738 2947 4714 2926 
Q 4691 2906 4672 2906 
L 4616 2906 
Q 4550 2906 4550 2988 
Q 4588 3300 4588 3450 
Q 4588 3706 4500 3848 
Q 4413 3991 4267 4053 
Q 4122 4116 3945 4131 
Q 3769 4147 3481 4147 
L 2753 4147 
Q 2578 4147 2522 4117 
Q 2466 4088 2419 3928 
L 2034 2381 
L 2534 2381 
Q 2859 2381 3025 2426 
Q 3191 2472 3287 2615 
Q 3384 2759 3463 3072 
Q 3469 3094 3486 3111 
Q 3503 3128 3525 3128 
L 3584 3128 
Q 3647 3128 3647 3047 
L 3250 1466 
Q 3238 1409 3188 1409 
L 3128 1409 
Q 3066 1409 3066 1491 
Q 3128 1747 3128 1869 
Q 3128 2056 2959 2106 
Q 2791 2156 2509 2156 
L 1978 2156 
L 1544 416 
Q 1516 338 1516 275 
Q 1516 225 1734 225 
L 2509 225 
Q 2972 225 3259 297 
Q 3547 369 3736 526 
Q 3925 684 4062 928 
Q 4200 1172 4397 1638 
Q 4409 1678 4453 1678 
L 4513 1678 
Q 4538 1678 4556 1656 
Q 4575 1634 4575 1606 
Q 4575 1594 4569 1581 
L 3909 38 
Q 3897 0 3859 0 
L 300 0 
z
" transform="scale(0.015625)"/>
       <path id="Cmmi10-3d" d="M 359 -1472 
Q 359 -1453 366 -1447 
L 2591 4722 
Q 2603 4759 2634 4779 
Q 2666 4800 2706 4800 
Q 2763 4800 2798 4765 
Q 2834 4731 2834 4672 
L 2834 4647 
L 609 -1522 
Q 572 -1600 488 -1600 
Q 434 -1600 396 -1562 
Q 359 -1525 359 -1472 
z
" transform="scale(0.015625)"/>
       <path id="Cmmi10-4e" d="M 300 0 
Q 238 0 238 84 
Q 241 100 250 139 
Q 259 178 276 201 
Q 294 225 319 225 
Q 931 225 1031 616 
L 1900 4116 
Q 1722 4147 1338 4147 
Q 1275 4147 1275 4231 
Q 1278 4247 1287 4286 
Q 1297 4325 1314 4348 
Q 1331 4372 1356 4372 
L 2463 4372 
Q 2509 4372 2522 4331 
L 3944 947 
L 4653 3781 
Q 4666 3850 4666 3878 
Q 4666 4147 4172 4147 
Q 4109 4147 4109 4231 
Q 4131 4313 4143 4342 
Q 4156 4372 4219 4372 
L 5588 4372 
Q 5650 4372 5650 4288 
Q 5647 4272 5637 4233 
Q 5628 4194 5611 4170 
Q 5594 4147 5569 4147 
Q 4956 4147 4856 3756 
L 3938 56 
Q 3916 0 3872 0 
L 3794 0 
Q 3750 0 3738 44 
L 2106 3916 
L 2094 3956 
Q 2081 3969 2081 3975 
L 1234 588 
Q 1228 572 1225 548 
Q 1222 525 1216 494 
Q 1216 328 1359 276 
Q 1503 225 1716 225 
Q 1778 225 1778 141 
Q 1756 53 1740 26 
Q 1725 0 1672 0 
L 300 0 
z
" transform="scale(0.015625)"/>
       <path id="Cmmi10-63" d="M 750 763 
Q 750 484 892 290 
Q 1034 97 1300 97 
Q 1681 97 2032 272 
Q 2384 447 2606 756 
Q 2625 775 2656 775 
Q 2688 775 2720 739 
Q 2753 703 2753 672 
Q 2753 647 2741 634 
Q 2506 306 2109 117 
Q 1713 -72 1288 -72 
Q 981 -72 747 73 
Q 513 219 384 462 
Q 256 706 256 1013 
Q 256 1444 497 1869 
Q 738 2294 1138 2561 
Q 1538 2828 1978 2828 
Q 2266 2828 2495 2689 
Q 2725 2550 2725 2278 
Q 2725 2103 2623 1979 
Q 2522 1856 2350 1856 
Q 2247 1856 2176 1920 
Q 2106 1984 2106 2088 
Q 2106 2238 2215 2344 
Q 2325 2450 2472 2450 
L 2484 2450 
Q 2409 2559 2267 2611 
Q 2125 2663 1972 2663 
Q 1597 2663 1315 2342 
Q 1034 2022 892 1576 
Q 750 1131 750 763 
z
" transform="scale(0.015625)"/>
       <path id="CMUSerif-Roman-20" transform="scale(0.015625)"/>
       <path id="CMUSerif-Roman-28" d="M 634 1600 
C 634 1101 704 326 1056 -397 
C 1440 -1184 1990 -1600 2054 -1600 
C 2093 -1600 2118 -1581 2118 -1536 
C 2118 -1517 2118 -1504 2010 -1395 
C 1210 -589 1005 621 1005 1600 
C 1005 2714 1248 3827 2035 4627 
C 2118 4704 2118 4717 2118 4736 
C 2118 4781 2093 4800 2054 4800 
C 1990 4800 1414 4365 1037 3552 
C 710 2848 634 2138 634 1600 
z
" transform="scale(0.015625)"/>
       <path id="CMUSerif-Roman-4b" d="M 211 0 
C 435 19 909 19 1152 19 
C 1395 19 1875 19 2099 0 
L 2099 198 
L 1946 198 
C 1453 198 1440 269 1440 499 
L 1440 1619 
L 2182 2323 
L 3341 608 
C 3379 550 3437 467 3437 390 
C 3437 198 3187 198 3059 198 
L 3059 0 
C 3283 19 3731 19 3974 19 
C 4198 19 4442 13 4710 0 
L 4710 198 
C 4365 198 4230 224 4038 506 
L 2560 2682 
L 3712 3789 
C 3763 3840 4102 4166 4621 4173 
L 4621 4371 
C 4454 4352 4250 4352 4077 4352 
C 3846 4352 3482 4352 3264 4371 
L 3264 4173 
C 3520 4166 3558 4019 3558 3962 
C 3558 3859 3494 3795 3443 3750 
L 1440 1837 
L 1440 3872 
C 1440 4102 1453 4173 1946 4173 
L 2099 4173 
L 2099 4371 
C 1875 4352 1402 4352 1158 4352 
C 915 4352 435 4352 211 4371 
L 211 4173 
L 365 4173 
C 858 4173 870 4102 870 3872 
L 870 499 
C 870 269 858 198 365 198 
L 211 198 
L 211 0 
z
" transform="scale(0.015625)"/>
       <path id="CMUSerif-Roman-29" d="M 365 -1536 
C 365 -1574 390 -1600 429 -1600 
C 493 -1600 1069 -1165 1446 -352 
C 1773 352 1850 1062 1850 1600 
C 1850 2099 1779 2874 1427 3597 
C 1043 4384 493 4800 429 4800 
C 390 4800 365 4774 365 4736 
C 365 4717 365 4704 486 4589 
C 1114 3955 1478 2938 1478 1600 
C 1478 506 1242 -621 448 -1427 
C 365 -1504 365 -1517 365 -1536 
z
" transform="scale(0.015625)"/>
      </defs>
      <use xlink:href="#Cmmi10-45"/>
      <use xlink:href="#Cmmi10-3d" transform="translate(73.779297 0)"/>
      <use xlink:href="#Cmmi10-4e" transform="translate(123.779297 0)"/>
      <use xlink:href="#Cmmi10-63" transform="translate(204.101562 -17.00625) scale(0.7)"/>
      <use xlink:href="#CMUSerif-Roman-20" transform="translate(240.72793 0)"/>
      <use xlink:href="#CMUSerif-Roman-20" transform="translate(274.027917 0)"/>
      <use xlink:href="#CMUSerif-Roman-28" transform="translate(307.327905 0)"/>
      <use xlink:href="#CMUSerif-Roman-4b" transform="translate(346.127893 0)"/>
      <use xlink:href="#CMUSerif-Roman-29" transform="translate(423.827875 0)"/>
     </g>
    </g>
   </g>
   <g id="matplotlib.axis_2">
    <g id="ytick_1">
     <g id="line2d_7">
      <defs>
       <path id="mbc3281fe05" d="M 0 0 
L -2 0 
" style="stroke: #000000; stroke-width: 0.35"/>
      </defs>
      <g>
       <use xlink:href="#mbc3281fe05" x="24.58375" y="127.42236" style="stroke: #000000; stroke-width: 0.35"/>
      </g>
     </g>
     <g id="text_8">
      <!-- 0.0 -->
      <g transform="translate(10.36 130.19861) scale(0.08 -0.08)">
       <defs>
        <path id="CMUSerif-Roman-2e" d="M 544 339 
C 544 166 685 0 883 0 
C 1050 0 1216 141 1216 339 
C 1216 538 1062 672 883 672 
C 685 672 544 512 544 339 
z
" transform="scale(0.015625)"/>
       </defs>
       <use xlink:href="#CMUSerif-Roman-30"/>
       <use xlink:href="#CMUSerif-Roman-2e" x="49.999985"/>
       <use xlink:href="#CMUSerif-Roman-30" x="77.799973"/>
      </g>
     </g>
    </g>
    <g id="ytick_2">
     <g id="line2d_8">
      <g>
       <use xlink:href="#mbc3281fe05" x="24.58375" y="105.857121" style="stroke: #000000; stroke-width: 0.35"/>
      </g>
     </g>
     <g id="text_9">
      <!-- 0.1 -->
      <g transform="translate(10.36 108.633371) scale(0.08 -0.08)">
       <use xlink:href="#CMUSerif-Roman-30"/>
       <use xlink:href="#CMUSerif-Roman-2e" x="49.999985"/>
       <use xlink:href="#CMUSerif-Roman-31" x="77.799973"/>
      </g>
     </g>
    </g>
    <g id="ytick_3">
     <g id="line2d_9">
      <g>
       <use xlink:href="#mbc3281fe05" x="24.58375" y="84.291881" style="stroke: #000000; stroke-width: 0.35"/>
      </g>
     </g>
     <g id="text_10">
      <!-- 0.2 -->
      <g transform="translate(10.36 87.068131) scale(0.08 -0.08)">
       <defs>
        <path id="CMUSerif-Roman-32" d="M 320 0 
L 2694 0 
L 2874 1114 
L 2714 1114 
C 2682 922 2637 640 2573 544 
C 2528 493 2106 493 1965 493 
L 813 493 
L 1491 1152 
C 2490 2035 2874 2381 2874 3021 
C 2874 3750 2298 4262 1517 4262 
C 794 4262 320 3674 320 3104 
C 320 2746 640 2746 659 2746 
C 768 2746 992 2822 992 3085 
C 992 3251 877 3418 653 3418 
C 602 3418 589 3418 570 3411 
C 717 3827 1062 4064 1434 4064 
C 2016 4064 2291 3546 2291 3021 
C 2291 2509 1971 2003 1619 1606 
L 390 237 
C 320 166 320 154 320 0 
z
" transform="scale(0.015625)"/>
       </defs>
       <use xlink:href="#CMUSerif-Roman-30"/>
       <use xlink:href="#CMUSerif-Roman-2e" x="49.999985"/>
       <use xlink:href="#CMUSerif-Roman-32" x="77.799973"/>
      </g>
     </g>
    </g>
    <g id="ytick_4">
     <g id="line2d_10">
      <g>
       <use xlink:href="#mbc3281fe05" x="24.58375" y="62.726642" style="stroke: #000000; stroke-width: 0.35"/>
      </g>
     </g>
     <g id="text_11">
      <!-- 0.3 -->
      <g transform="translate(10.36 65.502892) scale(0.08 -0.08)">
       <defs>
        <path id="CMUSerif-Roman-33" d="M 269 864 
C 269 282 864 -141 1562 -141 
C 2342 -141 2925 442 2925 1094 
C 2925 1619 2522 2118 1856 2253 
C 2381 2426 2752 2874 2752 3379 
C 2752 3904 2189 4262 1574 4262 
C 928 4262 442 3878 442 3392 
C 442 3181 582 3059 768 3059 
C 966 3059 1094 3200 1094 3386 
C 1094 3706 794 3706 698 3706 
C 896 4019 1318 4102 1549 4102 
C 1811 4102 2163 3962 2163 3386 
C 2163 3309 2150 2938 1984 2656 
C 1792 2349 1574 2330 1414 2323 
C 1363 2317 1210 2304 1165 2304 
C 1114 2298 1069 2291 1069 2227 
C 1069 2157 1114 2157 1222 2157 
L 1504 2157 
C 2029 2157 2266 1722 2266 1094 
C 2266 224 1824 38 1542 38 
C 1267 38 787 147 563 525 
C 787 493 986 634 986 877 
C 986 1107 813 1235 627 1235 
C 474 1235 269 1146 269 864 
z
" transform="scale(0.015625)"/>
       </defs>
       <use xlink:href="#CMUSerif-Roman-30"/>
       <use xlink:href="#CMUSerif-Roman-2e" x="49.999985"/>
       <use xlink:href="#CMUSerif-Roman-33" x="77.799973"/>
      </g>
     </g>
    </g>
    <g id="ytick_5">
     <g id="line2d_11">
      <g>
       <use xlink:href="#mbc3281fe05" x="24.58375" y="41.161403" style="stroke: #000000; stroke-width: 0.35"/>
      </g>
     </g>
     <g id="text_12">
      <!-- 0.4 -->
      <g transform="translate(10.36 43.937653) scale(0.08 -0.08)">
       <defs>
        <path id="CMUSerif-Roman-34" d="M 179 1056 
L 1882 1056 
L 1882 499 
C 1882 269 1869 198 1395 198 
L 1261 198 
L 1261 0 
C 1523 19 1856 19 2125 19 
C 2394 19 2733 19 2995 0 
L 2995 198 
L 2861 198 
C 2387 198 2374 269 2374 499 
L 2374 1056 
L 3014 1056 
L 3014 1254 
L 2374 1254 
L 2374 4166 
C 2374 4294 2374 4333 2272 4333 
C 2214 4333 2195 4333 2144 4256 
L 179 1254 
L 179 1056 
z
M 358 1254 
L 1920 3642 
L 1920 1254 
L 358 1254 
z
" transform="scale(0.015625)"/>
       </defs>
       <use xlink:href="#CMUSerif-Roman-30"/>
       <use xlink:href="#CMUSerif-Roman-2e" x="49.999985"/>
       <use xlink:href="#CMUSerif-Roman-34" x="77.799973"/>
      </g>
     </g>
    </g>
    <g id="ytick_6">
     <g id="line2d_12">
      <g>
       <use xlink:href="#mbc3281fe05" x="24.58375" y="19.596164" style="stroke: #000000; stroke-width: 0.35"/>
      </g>
     </g>
     <g id="text_13">
      <!-- 0.5 -->
      <g transform="translate(10.36 22.372414) scale(0.08 -0.08)">
       <defs>
        <path id="CMUSerif-Roman-35" d="M 320 1030 
C 320 480 762 -141 1478 -141 
C 2221 -141 2874 474 2874 1286 
C 2874 2048 2349 2688 1658 2688 
C 1350 2688 1075 2586 845 2362 
L 845 3610 
C 973 3571 1184 3526 1389 3526 
C 2176 3526 2624 4109 2624 4192 
C 2624 4230 2605 4262 2560 4262 
C 2554 4262 2541 4262 2509 4243 
C 2381 4186 2067 4058 1638 4058 
C 1382 4058 1088 4102 787 4237 
C 736 4256 723 4256 710 4256 
C 646 4256 646 4205 646 4102 
L 646 2208 
C 646 2093 646 2042 736 2042 
C 781 2042 794 2061 819 2099 
C 890 2202 1126 2547 1645 2547 
C 1978 2547 2138 2253 2189 2138 
C 2291 1901 2304 1651 2304 1331 
C 2304 1107 2304 723 2150 454 
C 1997 205 1760 38 1466 38 
C 998 38 634 378 525 755 
C 544 749 563 742 634 742 
C 845 742 954 902 954 1056 
C 954 1210 845 1370 634 1370 
C 544 1370 320 1325 320 1030 
z
" transform="scale(0.015625)"/>
       </defs>
       <use xlink:href="#CMUSerif-Roman-30"/>
       <use xlink:href="#CMUSerif-Roman-2e" x="49.999985"/>
       <use xlink:href="#CMUSerif-Roman-35" x="77.799973"/>
      </g>
     </g>
    </g>
    <g id="text_14">
     <!-- $P\,(E/N_c)$ -->
     <g transform="translate(6.36 79.81118) rotate(-90) scale(0.08 -0.08)">
      <defs>
       <path id="Cmmi10-50" d="M 313 0 
Q 250 0 250 84 
Q 253 100 262 139 
Q 272 178 289 201 
Q 306 225 331 225 
Q 722 225 878 269 
Q 959 297 997 441 
L 1875 3956 
Q 1888 4019 1888 4044 
Q 1888 4113 1813 4122 
Q 1691 4147 1350 4147 
Q 1288 4147 1288 4231 
Q 1291 4247 1300 4286 
Q 1309 4325 1326 4348 
Q 1344 4372 1369 4372 
L 3578 4372 
Q 3881 4372 4165 4264 
Q 4450 4156 4631 3934 
Q 4813 3713 4813 3397 
Q 4813 2991 4527 2672 
Q 4241 2353 3814 2175 
Q 3388 1997 2988 1997 
L 1947 1997 
L 1556 416 
Q 1544 353 1544 325 
Q 1544 300 1551 283 
Q 1559 266 1573 261 
Q 1588 256 1619 250 
Q 1741 225 2081 225 
Q 2144 225 2144 141 
Q 2122 50 2109 25 
Q 2097 0 2034 0 
L 313 0 
z
M 1978 2188 
L 2875 2188 
Q 3497 2188 3822 2522 
Q 3988 2688 4092 3000 
Q 4197 3313 4197 3566 
Q 4197 3881 3956 4014 
Q 3716 4147 3359 4147 
L 2747 4147 
Q 2572 4147 2515 4117 
Q 2459 4088 2413 3928 
L 1978 2188 
z
" transform="scale(0.015625)"/>
       <path id="Cmr10-28" d="M 1984 -1588 
Q 1628 -1306 1370 -942 
Q 1113 -578 948 -165 
Q 784 247 703 697 
Q 622 1147 622 1600 
Q 622 2059 703 2509 
Q 784 2959 951 3375 
Q 1119 3791 1378 4153 
Q 1638 4516 1984 4788 
Q 1984 4800 2016 4800 
L 2075 4800 
Q 2094 4800 2109 4783 
Q 2125 4766 2125 4744 
Q 2125 4716 2113 4703 
Q 1800 4397 1592 4047 
Q 1384 3697 1257 3301 
Q 1131 2906 1075 2482 
Q 1019 2059 1019 1600 
Q 1019 -434 2106 -1491 
Q 2125 -1509 2125 -1544 
Q 2125 -1559 2108 -1579 
Q 2091 -1600 2075 -1600 
L 2016 -1600 
Q 1984 -1600 1984 -1588 
z
" transform="scale(0.015625)"/>
       <path id="Cmr10-29" d="M 416 -1600 
Q 359 -1600 359 -1544 
Q 359 -1516 372 -1503 
Q 1466 -434 1466 1600 
Q 1466 3634 384 4691 
Q 359 4706 359 4744 
Q 359 4766 376 4783 
Q 394 4800 416 4800 
L 475 4800 
Q 494 4800 506 4788 
Q 966 4425 1272 3906 
Q 1578 3388 1720 2800 
Q 1863 2213 1863 1600 
Q 1863 1147 1786 708 
Q 1709 269 1542 -157 
Q 1375 -584 1119 -945 
Q 863 -1306 506 -1588 
Q 494 -1600 475 -1600 
L 416 -1600 
z
" transform="scale(0.015625)"/>
      </defs>
      <use xlink:href="#Cmmi10-50"/>
      <use xlink:href="#Cmr10-28" transform="translate(78.841438 0)"/>
      <use xlink:href="#Cmmi10-45" transform="translate(117.659798 0)"/>
      <use xlink:href="#Cmmi10-3d" transform="translate(191.439095 0)"/>
      <use xlink:href="#Cmmi10-4e" transform="translate(241.439095 0)"/>
      <use xlink:href="#Cmmi10-63" transform="translate(321.76136 -17.00625) scale(0.7)"/>
      <use xlink:href="#Cmr10-29" transform="translate(358.387728 0)"/>
     </g>
    </g>
   </g>
   <g id="line2d_13">
    <path d="M 34.548612 126.844747 
L 40.733011 126.394413 
L 45.919927 125.798843 
L 50.308855 125.076874 
L 54.29879 124.194001 
L 57.889731 123.170671 
L 61.281176 121.966134 
L 64.473124 120.586962 
L 67.465575 119.048627 
L 70.258529 117.374936 
L 73.051484 115.450652 
L 75.844438 113.257141 
L 78.637392 110.778417 
L 81.430347 108.002105 
L 84.223301 104.920449 
L 87.215752 101.277538 
L 90.208203 97.287527 
L 93.400151 92.666753 
L 96.991093 87.058903 
L 100.981027 80.401853 
L 106.367439 70.932783 
L 116.14278 53.674505 
L 119.733721 47.816268 
L 122.726172 43.32567 
L 125.31963 39.799723 
L 127.713591 36.899241 
L 129.908055 34.575807 
L 131.903022 32.766828 
L 133.89799 31.265971 
L 135.693461 30.191648 
L 137.488931 29.388785 
L 139.084905 28.908643 
L 140.680879 28.651736 
L 142.276853 28.619817 
L 143.872827 28.813105 
L 145.468801 29.23028 
L 147.064775 29.868496 
L 148.860246 30.845249 
L 150.655716 32.08788 
L 152.650684 33.767524 
L 154.645651 35.74495 
L 156.840115 38.23986 
L 159.234076 41.308854 
L 161.827534 44.993384 
L 164.819985 49.633783 
L 168.410926 55.622906 
L 173.597842 64.759943 
L 182.974188 81.33414 
L 187.16362 88.254963 
L 190.754561 93.777342 
L 194.146006 98.583494 
L 197.337954 102.71158 
L 200.330405 106.219781 
L 203.322856 109.375247 
L 206.115811 112.007144 
L 208.908765 114.346893 
L 211.701719 116.408727 
L 214.494674 118.210024 
L 217.487125 119.873145 
L 220.479576 121.285438 
L 223.671524 122.545239 
L 227.062968 123.6397 
L 230.65391 124.564358 
L 233.845858 125.216169 
L 233.845858 125.216169 
" clip-path="url(#p09f02ac030)" style="fill: none; stroke: #d7414e; stroke-width: 2; stroke-linecap: round"/>
   </g>
   <g id="patch_23">
    <path d="M 24.58375 127.42236 
L 24.58375 0.36 
" style="fill: none; stroke: #000000; stroke-width: 0.35; stroke-linejoin: miter; stroke-linecap: square"/>
   </g>
   <g id="patch_24">
    <path d="M 243.81072 127.42236 
L 243.81072 0.36 
" style="fill: none; stroke: #000000; stroke-width: 0.35; stroke-linejoin: miter; stroke-linecap: square"/>
   </g>
   <g id="patch_25">
    <path d="M 24.58375 127.42236 
L 243.81072 127.42236 
" style="fill: none; stroke: #000000; stroke-width: 0.35; stroke-linejoin: miter; stroke-linecap: square"/>
   </g>
   <g id="patch_26">
    <path d="M 24.58375 0.36 
L 243.81072 0.36 
" style="fill: none; stroke: #000000; stroke-width: 0.35; stroke-linejoin: miter; stroke-linecap: square"/>
   </g>
   <g id="text_15">
    <!-- (a) -->
    <g transform="translate(25.58375 9.36) scale(0.09 -0.09)">
     <defs>
      <path id="CMUSerif-Roman-61" d="M 269 608 
C 269 90 890 -70 1293 -70 
C 1715 -70 2010 186 2131 486 
C 2157 230 2330 -38 2630 -38 
C 2765 -38 3155 51 3155 570 
L 3155 928 
L 2995 928 
L 2995 570 
C 2995 198 2835 160 2765 160 
C 2554 160 2528 448 2528 480 
L 2528 1760 
C 2528 2029 2528 2278 2298 2515 
C 2048 2765 1728 2867 1421 2867 
C 896 2867 454 2566 454 2144 
C 454 1952 582 1843 749 1843 
C 928 1843 1043 1971 1043 2138 
C 1043 2214 1011 2426 717 2432 
C 890 2656 1203 2726 1408 2726 
C 1722 2726 2086 2477 2086 1907 
L 2086 1670 
C 1760 1651 1312 1632 909 1440 
C 429 1222 269 890 269 608 
z
M 762 614 
C 762 966 1030 1498 2086 1536 
L 2086 896 
C 2086 288 1626 70 1338 70 
C 1024 70 762 294 762 614 
z
" transform="scale(0.015625)"/>
     </defs>
     <use xlink:href="#CMUSerif-Roman-28"/>
     <use xlink:href="#CMUSerif-Roman-61" x="38.799988"/>
     <use xlink:href="#CMUSerif-Roman-29" x="88.799973"/>
    </g>
   </g>
   <g id="legend_1">
    <g id="line2d_14">
     <path d="M 158.21072 17.18775 
L 162.21072 17.18775 
L 166.21072 17.18775 
" style="fill: none; stroke: #d7414e; stroke-width: 2; stroke-linecap: round"/>
    </g>
    <g id="text_16">
     <!-- $\langle$$E/N_c$$\rangle$$ \simeq -8.5$ K -->
     <g transform="translate(172.61072 15.4) scale(0.08 -0.08)">
      <defs>
       <path id="Cmex10-ad" d="M 2272 -7347 
L 641 -3634 
Q 628 -3616 628 -3584 
Q 628 -3553 641 -3541 
L 2272 178 
Q 2303 256 2388 256 
Q 2434 256 2475 215 
Q 2516 175 2516 128 
Q 2516 97 2509 84 
L 897 -3584 
L 2509 -7250 
Q 2516 -7263 2516 -7297 
Q 2516 -7344 2475 -7384 
Q 2434 -7425 2388 -7425 
Q 2306 -7425 2272 -7347 
z
" transform="scale(0.015625)"/>
       <path id="Cmex10-ae" d="M 500 -7297 
Q 500 -7263 513 -7250 
L 2119 -3584 
L 513 84 
Q 500 97 500 128 
Q 500 175 537 215 
Q 575 256 628 256 
Q 703 256 750 178 
L 2381 -3541 
Q 2388 -3553 2388 -3584 
Q 2388 -3616 2381 -3634 
L 750 -7347 
Q 700 -7425 628 -7425 
Q 575 -7425 537 -7384 
Q 500 -7344 500 -7297 
z
" transform="scale(0.015625)"/>
       <path id="Cmsy10-27" d="M 481 231 
Q 428 231 393 268 
Q 359 306 359 359 
Q 359 406 393 447 
Q 428 488 481 488 
L 4500 488 
Q 4547 488 4581 447 
Q 4616 406 4616 359 
Q 4616 306 4581 268 
Q 4547 231 4500 231 
L 481 231 
z
M 447 1600 
Q 378 1600 359 1759 
L 359 1797 
Q 359 2263 662 2616 
Q 966 2969 1422 2969 
Q 1709 2969 1946 2839 
Q 2184 2709 2507 2457 
Q 2831 2206 3054 2082 
Q 3278 1959 3553 1959 
Q 3903 1959 4168 2212 
Q 4434 2466 4434 2809 
Q 4453 2969 4525 2969 
Q 4597 2969 4616 2809 
L 4616 2772 
Q 4616 2466 4478 2197 
Q 4341 1928 4098 1764 
Q 3856 1600 3553 1600 
Q 3266 1600 3041 1723 
Q 2816 1847 2487 2103 
Q 2159 2359 1931 2486 
Q 1703 2613 1422 2613 
Q 1191 2613 987 2497 
Q 784 2381 661 2186 
Q 538 1991 538 1759 
Q 519 1600 447 1600 
z
" transform="scale(0.015625)"/>
       <path id="Cmsy10-a1" d="M 653 1472 
Q 600 1472 565 1512 
Q 531 1553 531 1600 
Q 531 1647 565 1687 
Q 600 1728 653 1728 
L 4325 1728 
Q 4375 1728 4408 1687 
Q 4441 1647 4441 1600 
Q 4441 1553 4408 1512 
Q 4375 1472 4325 1472 
L 653 1472 
z
" transform="scale(0.015625)"/>
       <path id="Cmr10-38" d="M 269 972 
Q 269 1356 522 1651 
Q 775 1947 1172 2144 
L 934 2297 
Q 716 2441 578 2680 
Q 441 2919 441 3181 
Q 441 3488 602 3734 
Q 763 3981 1030 4122 
Q 1297 4263 1600 4263 
Q 1884 4263 2148 4147 
Q 2413 4031 2583 3815 
Q 2753 3600 2753 3303 
Q 2753 3088 2651 2903 
Q 2550 2719 2373 2572 
Q 2197 2425 1997 2322 
L 2363 2088 
Q 2616 1922 2770 1653 
Q 2925 1384 2925 1088 
Q 2925 741 2739 456 
Q 2553 172 2247 15 
Q 1941 -141 1600 -141 
Q 1269 -141 961 -6 
Q 653 128 461 383 
Q 269 638 269 972 
z
M 616 972 
Q 616 719 755 509 
Q 894 300 1122 181 
Q 1350 63 1600 63 
Q 1972 63 2275 280 
Q 2578 497 2578 856 
Q 2578 978 2529 1098 
Q 2481 1219 2395 1317 
Q 2309 1416 2203 1478 
L 1344 2034 
Q 1144 1928 976 1765 
Q 809 1603 712 1400 
Q 616 1197 616 972 
z
M 1056 2925 
L 1831 2425 
Q 2100 2581 2272 2803 
Q 2444 3025 2444 3303 
Q 2444 3519 2323 3698 
Q 2203 3878 2009 3978 
Q 1816 4078 1594 4078 
Q 1400 4078 1203 4003 
Q 1006 3928 878 3779 
Q 750 3631 750 3431 
Q 750 3131 1056 2925 
z
" transform="scale(0.015625)"/>
       <path id="Cmmi10-3a" d="M 538 353 
Q 538 497 644 600 
Q 750 703 891 703 
Q 978 703 1062 656 
Q 1147 609 1194 525 
Q 1241 441 1241 353 
Q 1241 213 1137 106 
Q 1034 0 891 0 
Q 750 0 644 106 
Q 538 213 538 353 
z
" transform="scale(0.015625)"/>
       <path id="Cmr10-35" d="M 556 728 
Q 622 541 758 387 
Q 894 234 1080 148 
Q 1266 63 1466 63 
Q 1928 63 2103 422 
Q 2278 781 2278 1294 
Q 2278 1516 2270 1667 
Q 2263 1819 2228 1959 
Q 2169 2184 2020 2353 
Q 1872 2522 1656 2522 
Q 1441 2522 1286 2456 
Q 1131 2391 1034 2303 
Q 938 2216 863 2119 
Q 788 2022 769 2016 
L 697 2016 
Q 681 2016 657 2036 
Q 634 2056 634 2075 
L 634 4213 
Q 634 4228 654 4245 
Q 675 4263 697 4263 
L 716 4263 
Q 1147 4056 1631 4056 
Q 2106 4056 2547 4263 
L 2566 4263 
Q 2588 4263 2606 4247 
Q 2625 4231 2625 4213 
L 2625 4153 
Q 2625 4122 2613 4122 
Q 2394 3831 2064 3668 
Q 1734 3506 1381 3506 
Q 1125 3506 856 3578 
L 856 2369 
Q 1069 2541 1236 2614 
Q 1403 2688 1663 2688 
Q 2016 2688 2295 2484 
Q 2575 2281 2725 1954 
Q 2875 1628 2875 1288 
Q 2875 903 2686 575 
Q 2497 247 2172 53 
Q 1847 -141 1466 -141 
Q 1150 -141 886 21 
Q 622 184 470 459 
Q 319 734 319 1044 
Q 319 1188 412 1278 
Q 506 1369 647 1369 
Q 788 1369 883 1276 
Q 978 1184 978 1044 
Q 978 906 883 811 
Q 788 716 647 716 
Q 625 716 597 720 
Q 569 725 556 728 
z
" transform="scale(0.015625)"/>
      </defs>
      <use xlink:href="#Cmex10-ad" transform="translate(0 94)"/>
      <use xlink:href="#Cmmi10-45" transform="translate(47.216797 0.658854)"/>
      <use xlink:href="#Cmmi10-3d" transform="translate(120.996094 0.658854)"/>
      <use xlink:href="#Cmmi10-4e" transform="translate(170.996094 0.658854)"/>
      <use xlink:href="#Cmmi10-63" transform="translate(251.318359 -16.347396) scale(0.7)"/>
      <use xlink:href="#Cmex10-ae" transform="translate(287.944727 94)"/>
      <use xlink:href="#Cmsy10-27" transform="translate(352.720117 0.658854)"/>
      <use xlink:href="#Cmsy10-a1" transform="translate(465.522852 0.658854)"/>
      <use xlink:href="#Cmr10-38" transform="translate(560.766992 0.658854)"/>
      <use xlink:href="#Cmmi10-3a" transform="translate(610.766992 0.658854)"/>
      <use xlink:href="#Cmr10-35" transform="translate(638.452539 0.658854)"/>
      <use xlink:href="#CMUSerif-Roman-20" transform="translate(688.452539 0.658854)"/>
      <use xlink:href="#CMUSerif-Roman-4b" transform="translate(721.752527 0.658854)"/>
     </g>
     <!-- $\sigma_{E/N_c} \simeq 0.9$ K -->
     <g transform="translate(172.61072 24.063) scale(0.08 -0.08)">
      <defs>
       <path id="Cmmi10-be" d="M 1197 -72 
Q 913 -72 692 64 
Q 472 200 351 431 
Q 231 663 231 941 
Q 231 1238 365 1566 
Q 500 1894 733 2166 
Q 966 2438 1259 2598 
Q 1553 2759 1863 2759 
L 3475 2759 
Q 3541 2759 3587 2715 
Q 3634 2672 3634 2597 
Q 3634 2503 3567 2433 
Q 3500 2363 3406 2363 
L 2625 2363 
Q 2809 2088 2809 1697 
Q 2809 1375 2684 1062 
Q 2559 750 2337 492 
Q 2116 234 1820 81 
Q 1525 -72 1197 -72 
z
M 1203 97 
Q 1553 97 1823 370 
Q 2094 644 2237 1039 
Q 2381 1434 2381 1772 
Q 2381 2047 2229 2205 
Q 2078 2363 1806 2363 
Q 1434 2363 1173 2113 
Q 913 1863 783 1484 
Q 653 1106 653 756 
Q 653 481 798 289 
Q 944 97 1203 97 
z
" transform="scale(0.015625)"/>
       <path id="Cmr10-30" d="M 1600 -141 
Q 816 -141 533 504 
Q 250 1150 250 2041 
Q 250 2597 351 3087 
Q 453 3578 754 3920 
Q 1056 4263 1600 4263 
Q 2022 4263 2290 4056 
Q 2559 3850 2700 3523 
Q 2841 3197 2892 2823 
Q 2944 2450 2944 2041 
Q 2944 1491 2842 1011 
Q 2741 531 2444 195 
Q 2147 -141 1600 -141 
z
M 1600 25 
Q 1956 25 2131 390 
Q 2306 756 2347 1200 
Q 2388 1644 2388 2144 
Q 2388 2625 2347 3031 
Q 2306 3438 2132 3767 
Q 1959 4097 1600 4097 
Q 1238 4097 1063 3765 
Q 888 3434 847 3029 
Q 806 2625 806 2144 
Q 806 1788 823 1472 
Q 841 1156 916 820 
Q 991 484 1158 254 
Q 1325 25 1600 25 
z
" transform="scale(0.015625)"/>
       <path id="Cmr10-39" d="M 722 269 
Q 897 63 1331 63 
Q 1575 63 1786 228 
Q 1997 394 2113 634 
Q 2247 906 2284 1214 
Q 2322 1522 2322 1978 
Q 2213 1719 2008 1553 
Q 1803 1388 1538 1388 
Q 1166 1388 873 1589 
Q 581 1791 425 2120 
Q 269 2450 269 2822 
Q 269 3206 444 3539 
Q 619 3872 928 4067 
Q 1238 4263 1631 4263 
Q 2019 4263 2280 4052 
Q 2541 3841 2678 3508 
Q 2816 3175 2870 2803 
Q 2925 2431 2925 2069 
Q 2925 1575 2744 1061 
Q 2563 547 2202 203 
Q 1841 -141 1331 -141 
Q 953 -141 690 37 
Q 428 216 428 575 
Q 428 706 517 795 
Q 606 884 738 884 
Q 866 884 955 795 
Q 1044 706 1044 575 
Q 1044 450 953 359 
Q 863 269 738 269 
L 722 269 
z
M 1563 1556 
Q 1825 1556 1992 1732 
Q 2159 1909 2234 2171 
Q 2309 2434 2309 2694 
L 2309 2816 
L 2309 2841 
Q 2309 3322 2168 3700 
Q 2028 4078 1631 4078 
Q 1378 4078 1220 3967 
Q 1063 3856 988 3672 
Q 913 3488 892 3278 
Q 872 3069 872 2822 
Q 872 2459 906 2203 
Q 941 1947 1094 1751 
Q 1247 1556 1563 1556 
z
" transform="scale(0.015625)"/>
      </defs>
      <use xlink:href="#Cmmi10-be" transform="translate(0 0.703125)"/>
      <use xlink:href="#Cmmi10-45" transform="translate(57.080078 -16.303125) scale(0.7)"/>
      <use xlink:href="#Cmmi10-3d" transform="translate(108.725586 -16.303125) scale(0.7)"/>
      <use xlink:href="#Cmmi10-4e" transform="translate(143.725586 -16.303125) scale(0.7)"/>
      <use xlink:href="#Cmmi10-63" transform="translate(199.951172 -28.2075) scale(0.49)"/>
      <use xlink:href="#Cmsy10-27" transform="translate(249.525566 0.703125)"/>
      <use xlink:href="#Cmr10-30" transform="translate(344.769707 0.703125)"/>
      <use xlink:href="#Cmmi10-3a" transform="translate(394.769707 0.703125)"/>
      <use xlink:href="#Cmr10-39" transform="translate(422.455254 0.703125)"/>
      <use xlink:href="#CMUSerif-Roman-20" transform="translate(472.455254 0.703125)"/>
      <use xlink:href="#CMUSerif-Roman-4b" transform="translate(505.755242 0.703125)"/>
     </g>
    </g>
   </g>
  </g>
  <g id="axes_2">
   <g id="patch_27">
    <path d="M 274.03495 127.42236 
L 493.26192 127.42236 
L 493.26192 0.36 
L 274.03495 0.36 
L 274.03495 127.42236 
z
" style="fill: none"/>
   </g>
   <g id="patch_28">
    <path d="M 284.248934 127.42236 
L 293.715553 127.42236 
L 293.715553 113.976608 
L 284.248934 113.976608 
z
" clip-path="url(#p194fe1835d)" style="fill: #4b4b4b"/>
   </g>
   <g id="patch_29">
    <path d="M 294.213796 127.42236 
L 303.680415 127.42236 
L 303.680415 96.048938 
L 294.213796 96.048938 
z
" clip-path="url(#p194fe1835d)" style="fill: #4b4b4b"/>
   </g>
   <g id="patch_30">
    <path d="M 304.178658 127.42236 
L 313.645278 127.42236 
L 313.645278 46.747846 
L 304.178658 46.747846 
z
" clip-path="url(#p194fe1835d)" style="fill: #4b4b4b"/>
   </g>
   <g id="patch_31">
    <path d="M 314.143521 127.42236 
L 323.61014 127.42236 
L 323.61014 6.410589 
L 314.143521 6.410589 
z
" clip-path="url(#p194fe1835d)" style="fill: #4b4b4b"/>
   </g>
   <g id="patch_32">
    <path d="M 324.108383 127.42236 
L 333.575002 127.42236 
L 333.575002 42.265928 
L 324.108383 42.265928 
z
" clip-path="url(#p194fe1835d)" style="fill: #4b4b4b"/>
   </g>
   <g id="patch_33">
    <path d="M 334.073245 127.42236 
L 343.539864 127.42236 
L 343.539864 55.711681 
L 334.073245 55.711681 
z
" clip-path="url(#p194fe1835d)" style="fill: #4b4b4b"/>
   </g>
   <g id="patch_34">
    <path d="M 344.038107 127.42236 
L 353.504727 127.42236 
L 353.504727 82.603185 
L 344.038107 82.603185 
z
" clip-path="url(#p194fe1835d)" style="fill: #4b4b4b"/>
   </g>
   <g id="patch_35">
    <path d="M 354.00297 127.42236 
L 363.469589 127.42236 
L 363.469589 69.157433 
L 354.00297 69.157433 
z
" clip-path="url(#p194fe1835d)" style="fill: #4b4b4b"/>
   </g>
   <g id="patch_36">
    <path d="M 363.967832 127.42236 
L 373.434451 127.42236 
L 373.434451 87.085103 
L 363.967832 87.085103 
z
" clip-path="url(#p194fe1835d)" style="fill: #4b4b4b"/>
   </g>
   <g id="patch_37">
    <path d="M 373.932694 127.42236 
L 383.399313 127.42236 
L 383.399313 96.048938 
L 373.932694 96.048938 
z
" clip-path="url(#p194fe1835d)" style="fill: #4b4b4b"/>
   </g>
   <g id="patch_38">
    <path d="M 383.897557 127.42236 
L 393.364176 127.42236 
L 393.364176 96.048938 
L 383.897557 96.048938 
z
" clip-path="url(#p194fe1835d)" style="fill: #4b4b4b"/>
   </g>
   <g id="patch_39">
    <path d="M 393.862419 127.42236 
L 403.329038 127.42236 
L 403.329038 118.458525 
L 393.862419 118.458525 
z
" clip-path="url(#p194fe1835d)" style="fill: #4b4b4b"/>
   </g>
   <g id="patch_40">
    <path d="M 403.827281 127.42236 
L 413.2939 127.42236 
L 413.2939 113.976608 
L 403.827281 113.976608 
z
" clip-path="url(#p194fe1835d)" style="fill: #4b4b4b"/>
   </g>
   <g id="patch_41">
    <path d="M 413.792143 127.42236 
L 423.258763 127.42236 
L 423.258763 109.49469 
L 413.792143 109.49469 
z
" clip-path="url(#p194fe1835d)" style="fill: #4b4b4b"/>
   </g>
   <g id="patch_42">
    <path d="M 423.757006 127.42236 
L 433.223625 127.42236 
L 433.223625 118.458525 
L 423.757006 118.458525 
z
" clip-path="url(#p194fe1835d)" style="fill: #4b4b4b"/>
   </g>
   <g id="patch_43">
    <path d="M 433.721868 127.42236 
L 443.188487 127.42236 
L 443.188487 122.940443 
L 433.721868 122.940443 
z
" clip-path="url(#p194fe1835d)" style="fill: #4b4b4b"/>
   </g>
   <g id="patch_44">
    <path d="M 443.68673 127.42236 
L 453.153349 127.42236 
L 453.153349 122.940443 
L 443.68673 122.940443 
z
" clip-path="url(#p194fe1835d)" style="fill: #4b4b4b"/>
   </g>
   <g id="patch_45">
    <path d="M 453.651592 127.42236 
L 463.118212 127.42236 
L 463.118212 127.42236 
L 453.651592 127.42236 
z
" clip-path="url(#p194fe1835d)" style="fill: #4b4b4b"/>
   </g>
   <g id="patch_46">
    <path d="M 463.616455 127.42236 
L 473.083074 127.42236 
L 473.083074 122.940443 
L 463.616455 122.940443 
z
" clip-path="url(#p194fe1835d)" style="fill: #4b4b4b"/>
   </g>
   <g id="patch_47">
    <path d="M 473.581317 127.42236 
L 483.047936 127.42236 
L 483.047936 122.940443 
L 473.581317 122.940443 
z
" clip-path="url(#p194fe1835d)" style="fill: #4b4b4b"/>
   </g>
   <g id="matplotlib.axis_3">
    <g id="xtick_7">
     <g id="line2d_15">
      <g>
       <use xlink:href="#md27ac33d9d" x="275.690129" y="127.42236" style="stroke: #000000; stroke-width: 0.35"/>
      </g>
     </g>
     <g id="text_17">
      <!-- 23.5 -->
      <g transform="translate(268.578254 136.97486) scale(0.08 -0.08)">
       <use xlink:href="#CMUSerif-Roman-32"/>
       <use xlink:href="#CMUSerif-Roman-33" x="49.999985"/>
       <use xlink:href="#CMUSerif-Roman-2e" x="99.999969"/>
       <use xlink:href="#CMUSerif-Roman-35" x="127.799957"/>
      </g>
     </g>
    </g>
    <g id="xtick_8">
     <g id="line2d_16">
      <g>
       <use xlink:href="#md27ac33d9d" x="312.568228" y="127.42236" style="stroke: #000000; stroke-width: 0.35"/>
      </g>
     </g>
     <g id="text_18">
      <!-- 24.0 -->
      <g transform="translate(305.456353 136.97486) scale(0.08 -0.08)">
       <use xlink:href="#CMUSerif-Roman-32"/>
       <use xlink:href="#CMUSerif-Roman-34" x="49.999985"/>
       <use xlink:href="#CMUSerif-Roman-2e" x="99.999969"/>
       <use xlink:href="#CMUSerif-Roman-30" x="127.799957"/>
      </g>
     </g>
    </g>
    <g id="xtick_9">
     <g id="line2d_17">
      <g>
       <use xlink:href="#md27ac33d9d" x="349.446326" y="127.42236" style="stroke: #000000; stroke-width: 0.35"/>
      </g>
     </g>
     <g id="text_19">
      <!-- 24.5 -->
      <g transform="translate(342.334451 136.97486) scale(0.08 -0.08)">
       <use xlink:href="#CMUSerif-Roman-32"/>
       <use xlink:href="#CMUSerif-Roman-34" x="49.999985"/>
       <use xlink:href="#CMUSerif-Roman-2e" x="99.999969"/>
       <use xlink:href="#CMUSerif-Roman-35" x="127.799957"/>
      </g>
     </g>
    </g>
    <g id="xtick_10">
     <g id="line2d_18">
      <g>
       <use xlink:href="#md27ac33d9d" x="386.324424" y="127.42236" style="stroke: #000000; stroke-width: 0.35"/>
      </g>
     </g>
     <g id="text_20">
      <!-- 25.0 -->
      <g transform="translate(379.212549 136.97486) scale(0.08 -0.08)">
       <use xlink:href="#CMUSerif-Roman-32"/>
       <use xlink:href="#CMUSerif-Roman-35" x="49.999985"/>
       <use xlink:href="#CMUSerif-Roman-2e" x="99.999969"/>
       <use xlink:href="#CMUSerif-Roman-30" x="127.799957"/>
      </g>
     </g>
    </g>
    <g id="xtick_11">
     <g id="line2d_19">
      <g>
       <use xlink:href="#md27ac33d9d" x="423.202522" y="127.42236" style="stroke: #000000; stroke-width: 0.35"/>
      </g>
     </g>
     <g id="text_21">
      <!-- 25.5 -->
      <g transform="translate(416.090647 136.97486) scale(0.08 -0.08)">
       <use xlink:href="#CMUSerif-Roman-32"/>
       <use xlink:href="#CMUSerif-Roman-35" x="49.999985"/>
       <use xlink:href="#CMUSerif-Roman-2e" x="99.999969"/>
       <use xlink:href="#CMUSerif-Roman-35" x="127.799957"/>
      </g>
     </g>
    </g>
    <g id="xtick_12">
     <g id="line2d_20">
      <g>
       <use xlink:href="#md27ac33d9d" x="460.080621" y="127.42236" style="stroke: #000000; stroke-width: 0.35"/>
      </g>
     </g>
     <g id="text_22">
      <!-- 26.0 -->
      <g transform="translate(452.968746 136.97486) scale(0.08 -0.08)">
       <use xlink:href="#CMUSerif-Roman-32"/>
       <use xlink:href="#CMUSerif-Roman-36" x="49.999985"/>
       <use xlink:href="#CMUSerif-Roman-2e" x="99.999969"/>
       <use xlink:href="#CMUSerif-Roman-30" x="127.799957"/>
      </g>
     </g>
    </g>
    <g id="text_23">
     <!-- $N_c$  -->
     <g transform="translate(377.608435 146.07986) scale(0.08 -0.08)">
      <use xlink:href="#Cmmi10-4e" transform="translate(0 0.6875)"/>
      <use xlink:href="#Cmmi10-63" transform="translate(80.322266 -16.31875) scale(0.7)"/>
      <use xlink:href="#CMUSerif-Roman-20" transform="translate(116.948633 0.6875)"/>
     </g>
    </g>
   </g>
   <g id="matplotlib.axis_4">
    <g id="ytick_7">
     <g id="line2d_21">
      <g>
       <use xlink:href="#mbc3281fe05" x="274.03495" y="127.42236" style="stroke: #000000; stroke-width: 0.35"/>
      </g>
     </g>
     <g id="text_24">
      <!-- 0.0 -->
      <g transform="translate(259.8112 130.19861) scale(0.08 -0.08)">
       <use xlink:href="#CMUSerif-Roman-30"/>
       <use xlink:href="#CMUSerif-Roman-2e" x="49.999985"/>
       <use xlink:href="#CMUSerif-Roman-30" x="77.799973"/>
      </g>
     </g>
    </g>
    <g id="ytick_8">
     <g id="line2d_22">
      <g>
       <use xlink:href="#mbc3281fe05" x="274.03495" y="109.135313" style="stroke: #000000; stroke-width: 0.35"/>
      </g>
     </g>
     <g id="text_25">
      <!-- 0.2 -->
      <g transform="translate(259.8112 111.911563) scale(0.08 -0.08)">
       <use xlink:href="#CMUSerif-Roman-30"/>
       <use xlink:href="#CMUSerif-Roman-2e" x="49.999985"/>
       <use xlink:href="#CMUSerif-Roman-32" x="77.799973"/>
      </g>
     </g>
    </g>
    <g id="ytick_9">
     <g id="line2d_23">
      <g>
       <use xlink:href="#mbc3281fe05" x="274.03495" y="90.848266" style="stroke: #000000; stroke-width: 0.35"/>
      </g>
     </g>
     <g id="text_26">
      <!-- 0.4 -->
      <g transform="translate(259.8112 93.624516) scale(0.08 -0.08)">
       <use xlink:href="#CMUSerif-Roman-30"/>
       <use xlink:href="#CMUSerif-Roman-2e" x="49.999985"/>
       <use xlink:href="#CMUSerif-Roman-34" x="77.799973"/>
      </g>
     </g>
    </g>
    <g id="ytick_10">
     <g id="line2d_24">
      <g>
       <use xlink:href="#mbc3281fe05" x="274.03495" y="72.561218" style="stroke: #000000; stroke-width: 0.35"/>
      </g>
     </g>
     <g id="text_27">
      <!-- 0.6 -->
      <g transform="translate(259.8112 75.337468) scale(0.08 -0.08)">
       <use xlink:href="#CMUSerif-Roman-30"/>
       <use xlink:href="#CMUSerif-Roman-2e" x="49.999985"/>
       <use xlink:href="#CMUSerif-Roman-36" x="77.799973"/>
      </g>
     </g>
    </g>
    <g id="ytick_11">
     <g id="line2d_25">
      <g>
       <use xlink:href="#mbc3281fe05" x="274.03495" y="54.274171" style="stroke: #000000; stroke-width: 0.35"/>
      </g>
     </g>
     <g id="text_28">
      <!-- 0.8 -->
      <g transform="translate(259.8112 57.050421) scale(0.08 -0.08)">
       <use xlink:href="#CMUSerif-Roman-30"/>
       <use xlink:href="#CMUSerif-Roman-2e" x="49.999985"/>
       <use xlink:href="#CMUSerif-Roman-38" x="77.799973"/>
      </g>
     </g>
    </g>
    <g id="ytick_12">
     <g id="line2d_26">
      <g>
       <use xlink:href="#mbc3281fe05" x="274.03495" y="35.987124" style="stroke: #000000; stroke-width: 0.35"/>
      </g>
     </g>
     <g id="text_29">
      <!-- 1.0 -->
      <g transform="translate(259.8112 38.763374) scale(0.08 -0.08)">
       <use xlink:href="#CMUSerif-Roman-31"/>
       <use xlink:href="#CMUSerif-Roman-2e" x="49.999985"/>
       <use xlink:href="#CMUSerif-Roman-30" x="77.799973"/>
      </g>
     </g>
    </g>
    <g id="ytick_13">
     <g id="line2d_27">
      <g>
       <use xlink:href="#mbc3281fe05" x="274.03495" y="17.700077" style="stroke: #000000; stroke-width: 0.35"/>
      </g>
     </g>
     <g id="text_30">
      <!-- 1.2 -->
      <g transform="translate(259.8112 20.476327) scale(0.08 -0.08)">
       <use xlink:href="#CMUSerif-Roman-31"/>
       <use xlink:href="#CMUSerif-Roman-2e" x="49.999985"/>
       <use xlink:href="#CMUSerif-Roman-32" x="77.799973"/>
      </g>
     </g>
    </g>
    <g id="text_31">
     <!-- $P\,(N_c)$ -->
     <g transform="translate(255.8112 74.85118) rotate(-90) scale(0.08 -0.08)">
      <use xlink:href="#Cmmi10-50"/>
      <use xlink:href="#Cmr10-28" transform="translate(78.841438 0)"/>
      <use xlink:href="#Cmmi10-4e" transform="translate(117.659798 0)"/>
      <use xlink:href="#Cmmi10-63" transform="translate(197.982063 -17.00625) scale(0.7)"/>
      <use xlink:href="#Cmr10-29" transform="translate(234.608431 0)"/>
     </g>
    </g>
   </g>
   <g id="line2d_28">
    <path d="M 283.999812 105.483649 
L 286.992263 101.724285 
L 289.984715 97.607221 
L 293.376159 92.543914 
L 297.166597 86.460596 
L 301.954519 78.325974 
L 312.128853 60.906891 
L 315.520298 55.608018 
L 318.313252 51.631 
L 320.707213 48.571838 
L 322.901677 46.097686 
L 324.896644 44.153595 
L 326.891612 42.52464 
L 328.687083 41.344726 
L 330.482553 40.44836 
L 332.078527 39.897088 
L 333.674501 39.58159 
L 335.270475 39.504435 
L 336.866449 39.66625 
L 338.462423 40.065717 
L 340.058397 40.69959 
L 341.654371 41.562735 
L 343.449841 42.799107 
L 345.245312 44.304323 
L 347.24028 46.273728 
L 349.434744 48.773264 
L 351.828705 51.856832 
L 354.422162 55.559143 
L 357.61411 60.530629 
L 361.604045 67.192827 
L 375.768314 91.245582 
L 379.359255 96.695373 
L 382.551203 101.151871 
L 385.543654 104.964008 
L 388.336608 108.187907 
L 391.129563 111.085677 
L 393.922517 113.661994 
L 396.715472 115.928176 
L 399.508426 117.900793 
L 402.30138 119.600307 
L 405.094335 121.049782 
L 408.086786 122.353186 
L 411.278734 123.492688 
L 414.670178 124.459669 
L 418.26112 125.254725 
L 422.251055 125.915081 
L 426.83948 126.450499 
L 432.425388 126.86977 
L 439.607271 127.167747 
L 449.781605 127.345059 
L 469.132789 127.416457 
L 483.297058 127.421663 
L 483.297058 127.421663 
" clip-path="url(#p194fe1835d)" style="fill: none; stroke: #d7414e; stroke-width: 2; stroke-linecap: round"/>
   </g>
   <g id="patch_48">
    <path d="M 274.03495 127.42236 
L 274.03495 0.36 
" style="fill: none; stroke: #000000; stroke-width: 0.35; stroke-linejoin: miter; stroke-linecap: square"/>
   </g>
   <g id="patch_49">
    <path d="M 493.26192 127.42236 
L 493.26192 0.36 
" style="fill: none; stroke: #000000; stroke-width: 0.35; stroke-linejoin: miter; stroke-linecap: square"/>
   </g>
   <g id="patch_50">
    <path d="M 274.03495 127.42236 
L 493.26192 127.42236 
" style="fill: none; stroke: #000000; stroke-width: 0.35; stroke-linejoin: miter; stroke-linecap: square"/>
   </g>
   <g id="patch_51">
    <path d="M 274.03495 0.36 
L 493.26192 0.36 
" style="fill: none; stroke: #000000; stroke-width: 0.35; stroke-linejoin: miter; stroke-linecap: square"/>
   </g>
   <g id="text_32">
    <!-- (b) -->
    <g transform="translate(275.03495 9.36) scale(0.09 -0.09)">
     <defs>
      <path id="CMUSerif-Roman-62" d="M 179 4173 
C 627 4173 678 4128 678 3814 
L 678 0 
L 838 0 
C 845 6 896 96 1069 397 
C 1165 250 1434 -70 1907 -70 
C 2669 -70 3334 557 3334 1382 
C 3334 2195 2707 2829 1978 2829 
C 1478 2829 1203 2528 1101 2413 
L 1101 4442 
L 179 4371 
L 179 4173 
z
M 1120 730 
L 1120 2048 
C 1120 2170 1120 2176 1190 2278 
C 1440 2637 1792 2688 1946 2688 
C 2234 2688 2464 2522 2618 2278 
C 2784 2016 2803 1651 2803 1389 
C 2803 1152 2790 768 2605 480 
C 2470 282 2227 70 1882 70 
C 1594 70 1363 224 1210 461 
C 1120 595 1120 614 1120 730 
z
" transform="scale(0.015625)"/>
     </defs>
     <use xlink:href="#CMUSerif-Roman-28"/>
     <use xlink:href="#CMUSerif-Roman-62" x="38.799988"/>
     <use xlink:href="#CMUSerif-Roman-29" x="94.299973"/>
    </g>
   </g>
   <g id="legend_2">
    <g id="line2d_29">
     <path d="M 428.78192 16.90775 
L 432.78192 16.90775 
L 436.78192 16.90775 
" style="fill: none; stroke: #d7414e; stroke-width: 2; stroke-linecap: round"/>
    </g>
    <g id="text_33">
     <!-- $\langle$$N_c$$\rangle$$ \simeq 24.3$  -->
     <g transform="translate(443.18192 15.4) scale(0.08 -0.08)">
      <defs>
       <path id="Cmr10-32" d="M 319 0 
L 319 172 
Q 319 188 331 206 
L 1325 1306 
Q 1550 1550 1690 1715 
Q 1831 1881 1968 2097 
Q 2106 2313 2186 2536 
Q 2266 2759 2266 3009 
Q 2266 3272 2169 3511 
Q 2072 3750 1880 3894 
Q 1688 4038 1416 4038 
Q 1138 4038 916 3870 
Q 694 3703 603 3438 
Q 628 3444 672 3444 
Q 816 3444 917 3347 
Q 1019 3250 1019 3097 
Q 1019 2950 917 2848 
Q 816 2747 672 2747 
Q 522 2747 420 2851 
Q 319 2956 319 3097 
Q 319 3338 409 3548 
Q 500 3759 670 3923 
Q 841 4088 1055 4175 
Q 1269 4263 1509 4263 
Q 1875 4263 2190 4108 
Q 2506 3953 2690 3670 
Q 2875 3388 2875 3009 
Q 2875 2731 2753 2481 
Q 2631 2231 2440 2026 
Q 2250 1822 1953 1562 
Q 1656 1303 1563 1216 
L 838 519 
L 1453 519 
Q 1906 519 2211 526 
Q 2516 534 2534 550 
Q 2609 631 2688 1141 
L 2875 1141 
L 2694 0 
L 319 0 
z
" transform="scale(0.015625)"/>
       <path id="Cmr10-34" d="M 178 1056 
L 178 1281 
L 2156 4231 
Q 2178 4263 2222 4263 
L 2316 4263 
Q 2388 4263 2388 4191 
L 2388 1281 
L 3016 1281 
L 3016 1056 
L 2388 1056 
L 2388 428 
Q 2388 297 2575 261 
Q 2763 225 3009 225 
L 3009 0 
L 1247 0 
L 1247 225 
Q 1494 225 1681 261 
Q 1869 297 1869 428 
L 1869 1056 
L 178 1056 
z
M 391 1281 
L 1906 1281 
L 1906 3547 
L 391 1281 
z
" transform="scale(0.015625)"/>
       <path id="Cmr10-33" d="M 609 494 
Q 759 275 1012 169 
Q 1266 63 1556 63 
Q 1928 63 2084 380 
Q 2241 697 2241 1100 
Q 2241 1281 2208 1462 
Q 2175 1644 2097 1800 
Q 2019 1956 1883 2050 
Q 1747 2144 1550 2144 
L 1125 2144 
Q 1069 2144 1069 2203 
L 1069 2259 
Q 1069 2309 1125 2309 
L 1478 2338 
Q 1703 2338 1851 2506 
Q 2000 2675 2069 2917 
Q 2138 3159 2138 3378 
Q 2138 3684 1994 3881 
Q 1850 4078 1556 4078 
Q 1313 4078 1091 3986 
Q 869 3894 738 3706 
Q 750 3709 759 3711 
Q 769 3713 781 3713 
Q 925 3713 1022 3613 
Q 1119 3513 1119 3372 
Q 1119 3234 1022 3134 
Q 925 3034 781 3034 
Q 641 3034 541 3134 
Q 441 3234 441 3372 
Q 441 3647 606 3850 
Q 772 4053 1033 4158 
Q 1294 4263 1556 4263 
Q 1750 4263 1965 4205 
Q 2181 4147 2356 4039 
Q 2531 3931 2642 3762 
Q 2753 3594 2753 3378 
Q 2753 3109 2633 2881 
Q 2513 2653 2303 2487 
Q 2094 2322 1844 2241 
Q 2122 2188 2372 2031 
Q 2622 1875 2773 1631 
Q 2925 1388 2925 1106 
Q 2925 753 2731 467 
Q 2538 181 2222 20 
Q 1906 -141 1556 -141 
Q 1256 -141 954 -26 
Q 653 88 461 316 
Q 269 544 269 863 
Q 269 1022 375 1128 
Q 481 1234 641 1234 
Q 744 1234 830 1186 
Q 916 1138 964 1050 
Q 1013 963 1013 863 
Q 1013 706 903 600 
Q 794 494 641 494 
L 609 494 
z
" transform="scale(0.015625)"/>
      </defs>
      <use xlink:href="#Cmex10-ad" transform="translate(0 94)"/>
      <use xlink:href="#Cmmi10-4e" transform="translate(47.216797 0.658854)"/>
      <use xlink:href="#Cmmi10-63" transform="translate(127.539062 -16.347396) scale(0.7)"/>
      <use xlink:href="#Cmex10-ae" transform="translate(164.16543 94)"/>
      <use xlink:href="#Cmsy10-27" transform="translate(228.94082 0.658854)"/>
      <use xlink:href="#Cmr10-32" transform="translate(324.184961 0.658854)"/>
      <use xlink:href="#Cmr10-34" transform="translate(374.184961 0.658854)"/>
      <use xlink:href="#Cmmi10-3a" transform="translate(424.184961 0.658854)"/>
      <use xlink:href="#Cmr10-33" transform="translate(451.870508 0.658854)"/>
      <use xlink:href="#CMUSerif-Roman-20" transform="translate(501.870508 0.658854)"/>
     </g>
     <!-- $\sigma_{N_c} \simeq 0.4$  -->
     <g transform="translate(443.18192 23.903) scale(0.08 -0.08)">
      <use xlink:href="#Cmmi10-be" transform="translate(0 0.390625)"/>
      <use xlink:href="#Cmmi10-4e" transform="translate(57.080078 -16.615625) scale(0.7)"/>
      <use xlink:href="#Cmmi10-63" transform="translate(113.305664 -28.52) scale(0.49)"/>
      <use xlink:href="#Cmsy10-27" transform="translate(162.880059 0.390625)"/>
      <use xlink:href="#Cmr10-30" transform="translate(258.124199 0.390625)"/>
      <use xlink:href="#Cmmi10-3a" transform="translate(308.124199 0.390625)"/>
      <use xlink:href="#Cmr10-34" transform="translate(335.809746 0.390625)"/>
      <use xlink:href="#CMUSerif-Roman-20" transform="translate(385.809746 0.390625)"/>
     </g>
    </g>
   </g>
  </g>
 </g>
 <defs>
  <clipPath id="p09f02ac030">
   <rect x="24.58375" y="0.36" width="219.22697" height="127.06236"/>
  </clipPath>
  <clipPath id="p194fe1835d">
   <rect x="274.03495" y="0.36" width="219.22697" height="127.06236"/>
  </clipPath>
 </defs>
</svg>
