<?xml version="1.0" encoding="utf-8" standalone="no"?>
<!DOCTYPE svg PUBLIC "-//W3C//DTD SVG 1.1//EN"
  "http://www.w3.org/Graphics/SVG/1.1/DTD/svg11.dtd">
<svg xmlns:xlink="http://www.w3.org/1999/xlink" width="244.170721pt" height="148.88736pt" viewBox="0 0 244.170721 148.88736" xmlns="http://www.w3.org/2000/svg" version="1.1">
 <metadata>
  <rdf:RDF xmlns:dc="http://purl.org/dc/elements/1.1/" xmlns:cc="http://creativecommons.org/ns#" xmlns:rdf="http://www.w3.org/1999/02/22-rdf-syntax-ns#">
   <cc:Work>
    <dc:type rdf:resource="http://purl.org/dc/dcmitype/StillImage"/>
    <dc:date>2024-11-20T09:58:10.749782</dc:date>
    <dc:format>image/svg+xml</dc:format>
    <dc:creator>
     <cc:Agent>
      <dc:title>Matplotlib v3.9.2, https://matplotlib.org/</dc:title>
     </cc:Agent>
    </dc:creator>
   </cc:Work>
  </rdf:RDF>
 </metadata>
 <defs>
  <style type="text/css">*{stroke-linejoin: round; stroke-linecap: butt}</style>
 </defs>
 <g id="figure_1">
  <g id="patch_1">
   <path d="M 0 148.88736 
L 244.170721 148.88736 
L 244.170721 0 
L 0 0 
L 0 148.88736 
z
" style="fill: none"/>
  </g>
  <g id="axes_1">
   <g id="patch_2">
    <path d="M 25.150802 127.4727 
L 243.309294 127.4727 
L 243.309294 0.734661 
L 25.150802 0.734661 
L 25.150802 127.4727 
z
" style="fill: none"/>
   </g>
   <g id="matplotlib.axis_1">
    <g id="xtick_1">
     <g id="line2d_1">
      <defs>
       <path id="mb581b48d01" d="M 0 0 
L 0 2 
" style="stroke: #000000; stroke-width: 0.35"/>
      </defs>
      <g>
       <use xlink:href="#mb581b48d01" x="25.150802" y="127.4727" style="stroke: #000000; stroke-width: 0.35"/>
      </g>
     </g>
     <g id="text_1">
      <!-- $\mathdefault{0.0}$ -->
      <g transform="translate(19.740457 137.007502) scale(0.08 -0.08)">
       <defs>
        <path id="CMR17-30" d="M 2688 2038 
C 2688 2430 2682 3099 2413 3613 
C 2176 4063 1798 4224 1466 4224 
C 1158 4224 768 4082 525 3620 
C 269 3137 243 2539 243 2038 
C 243 1671 250 1112 448 623 
C 723 -39 1216 -128 1466 -128 
C 1760 -128 2208 -7 2470 604 
C 2662 1048 2688 1568 2688 2038 
z
M 1466 -26 
C 1056 -26 813 328 723 816 
C 653 1196 653 1749 653 2109 
C 653 2604 653 3015 736 3407 
C 858 3954 1216 4121 1466 4121 
C 1728 4121 2067 3947 2189 3420 
C 2272 3054 2278 2623 2278 2109 
C 2278 1691 2278 1176 2202 797 
C 2067 96 1690 -26 1466 -26 
z
" transform="scale(0.015625)"/>
        <path id="CMMI12-3a" d="M 1178 307 
C 1178 492 1024 620 870 620 
C 685 620 557 467 557 313 
C 557 128 710 0 864 0 
C 1050 0 1178 153 1178 307 
z
" transform="scale(0.015625)"/>
       </defs>
       <use xlink:href="#CMR17-30" transform="scale(0.996264)"/>
       <use xlink:href="#CMMI12-3a" transform="translate(45.690477 0) scale(0.996264)"/>
       <use xlink:href="#CMR17-30" transform="translate(72.787654 0) scale(0.996264)"/>
      </g>
     </g>
    </g>
    <g id="xtick_2">
     <g id="line2d_2">
      <g>
       <use xlink:href="#mb581b48d01" x="77.920764" y="127.4727" style="stroke: #000000; stroke-width: 0.35"/>
      </g>
     </g>
     <g id="text_2">
      <!-- $\mathdefault{0.5}$ -->
      <g transform="translate(72.510419 137.007502) scale(0.08 -0.08)">
       <defs>
        <path id="CMR17-35" d="M 730 3750 
C 794 3724 1056 3641 1325 3641 
C 1920 3641 2246 3961 2432 4140 
C 2432 4191 2432 4224 2394 4224 
C 2387 4224 2374 4224 2323 4198 
C 2099 4102 1837 4032 1517 4032 
C 1325 4032 1037 4055 723 4191 
C 653 4224 640 4224 634 4224 
C 602 4224 595 4217 595 4090 
L 595 2231 
C 595 2113 595 2080 659 2080 
C 691 2080 704 2093 736 2139 
C 941 2435 1222 2560 1542 2560 
C 1766 2560 2246 2415 2246 1293 
C 2246 1087 2246 716 2054 422 
C 1894 159 1645 25 1370 25 
C 947 25 518 319 403 812 
C 429 806 480 793 506 793 
C 589 793 749 838 749 1036 
C 749 1209 627 1280 506 1280 
C 358 1280 262 1190 262 1011 
C 262 454 704 -128 1382 -128 
C 2042 -128 2669 441 2669 1267 
C 2669 2054 2170 2662 1549 2662 
C 1222 2662 947 2540 730 2304 
L 730 3750 
z
" transform="scale(0.015625)"/>
       </defs>
       <use xlink:href="#CMR17-30" transform="scale(0.996264)"/>
       <use xlink:href="#CMMI12-3a" transform="translate(45.690477 0) scale(0.996264)"/>
       <use xlink:href="#CMR17-35" transform="translate(72.787654 0) scale(0.996264)"/>
      </g>
     </g>
    </g>
    <g id="xtick_3">
     <g id="line2d_3">
      <g>
       <use xlink:href="#mb581b48d01" x="130.690726" y="127.4727" style="stroke: #000000; stroke-width: 0.35"/>
      </g>
     </g>
     <g id="text_3">
      <!-- $\mathdefault{1.0}$ -->
      <g transform="translate(125.280382 137.007502) scale(0.08 -0.08)">
       <defs>
        <path id="CMR17-31" d="M 1702 4083 
C 1702 4217 1696 4224 1606 4224 
C 1357 3927 979 3833 621 3820 
C 602 3820 570 3820 563 3808 
C 557 3795 557 3782 557 3648 
C 755 3648 1088 3686 1344 3839 
L 1344 467 
C 1344 243 1331 166 781 166 
L 589 166 
L 589 0 
C 896 6 1216 12 1523 12 
C 1830 12 2150 6 2458 0 
L 2458 166 
L 2266 166 
C 1715 166 1702 236 1702 467 
L 1702 4083 
z
" transform="scale(0.015625)"/>
       </defs>
       <use xlink:href="#CMR17-31" transform="scale(0.996264)"/>
       <use xlink:href="#CMMI12-3a" transform="translate(45.690477 0) scale(0.996264)"/>
       <use xlink:href="#CMR17-30" transform="translate(72.787654 0) scale(0.996264)"/>
      </g>
     </g>
    </g>
    <g id="xtick_4">
     <g id="line2d_4">
      <g>
       <use xlink:href="#mb581b48d01" x="183.460689" y="127.4727" style="stroke: #000000; stroke-width: 0.35"/>
      </g>
     </g>
     <g id="text_4">
      <!-- $\mathdefault{1.5}$ -->
      <g transform="translate(178.050344 137.007502) scale(0.08 -0.08)">
       <use xlink:href="#CMR17-31" transform="scale(0.996264)"/>
       <use xlink:href="#CMMI12-3a" transform="translate(45.690477 0) scale(0.996264)"/>
       <use xlink:href="#CMR17-35" transform="translate(72.787654 0) scale(0.996264)"/>
      </g>
     </g>
    </g>
    <g id="xtick_5">
     <g id="line2d_5">
      <g>
       <use xlink:href="#mb581b48d01" x="236.230651" y="127.4727" style="stroke: #000000; stroke-width: 0.35"/>
      </g>
     </g>
     <g id="text_5">
      <!-- $\mathdefault{2.0}$ -->
      <g transform="translate(230.820306 137.007502) scale(0.08 -0.08)">
       <defs>
        <path id="CMR17-32" d="M 2669 990 
L 2554 990 
C 2490 537 2438 460 2413 422 
C 2381 371 1920 371 1830 371 
L 602 371 
C 832 620 1280 1073 1824 1596 
C 2214 1966 2669 2400 2669 3033 
C 2669 3788 2067 4224 1395 4224 
C 691 4224 262 3603 262 3027 
C 262 2777 448 2745 525 2745 
C 589 2745 781 2783 781 3007 
C 781 3206 614 3264 525 3264 
C 486 3264 448 3257 422 3244 
C 544 3788 915 4057 1306 4057 
C 1862 4057 2227 3616 2227 3033 
C 2227 2477 1901 1998 1536 1583 
L 262 147 
L 262 0 
L 2515 0 
L 2669 990 
z
" transform="scale(0.015625)"/>
       </defs>
       <use xlink:href="#CMR17-32" transform="scale(0.996264)"/>
       <use xlink:href="#CMMI12-3a" transform="translate(45.690477 0) scale(0.996264)"/>
       <use xlink:href="#CMR17-30" transform="translate(72.787654 0) scale(0.996264)"/>
      </g>
     </g>
    </g>
    <g id="text_6">
     <!-- $T/T^\ast$ -->
     <g transform="translate(124.214718 146.534832) scale(0.08 -0.08)">
      <defs>
       <path id="CMMI12-54" d="M 2669 3886 
C 2707 4038 2720 4096 2816 4121 
C 2867 4134 3078 4134 3213 4134 
C 3853 4134 4154 4109 4154 3612 
C 4154 3516 4128 3274 4090 3038 
L 4083 2962 
C 4083 2937 4109 2898 4147 2898 
C 4211 2898 4211 2930 4230 3032 
L 4416 4159 
C 4429 4217 4429 4230 4429 4249 
C 4429 4319 4390 4319 4262 4319 
L 762 4319 
C 614 4319 608 4313 570 4198 
L 179 3051 
C 173 3038 154 2968 154 2962 
C 154 2930 179 2898 218 2898 
C 269 2898 282 2924 307 3007 
C 576 3777 710 4134 1562 4134 
L 1990 4134 
C 2144 4134 2208 4134 2208 4064 
C 2208 4045 2208 4032 2176 3917 
L 1318 497 
C 1254 249 1242 185 563 185 
C 403 185 358 185 358 64 
C 358 0 429 0 461 0 
C 621 0 787 12 947 12 
L 1946 12 
C 2106 12 2278 0 2438 0 
C 2509 0 2573 0 2573 121 
C 2573 185 2528 185 2362 185 
C 1786 185 1786 242 1786 338 
C 1786 344 1786 389 1811 491 
L 2669 3886 
z
" transform="scale(0.015625)"/>
       <path id="CMMI12-3d" d="M 2746 4563 
C 2746 4569 2784 4665 2784 4678 
C 2784 4755 2720 4800 2669 4800 
C 2637 4800 2579 4800 2528 4659 
L 384 -1364 
C 384 -1370 346 -1466 346 -1479 
C 346 -1556 410 -1600 461 -1600 
C 499 -1600 557 -1594 602 -1460 
L 2746 4563 
z
" transform="scale(0.015625)"/>
       <path id="CMSY10-3" d="M 1760 2762 
C 1766 2853 1766 3008 1600 3008 
C 1498 3008 1414 2924 1434 2840 
L 1434 2755 
L 1523 1740 
L 704 2349 
C 646 2382 634 2395 589 2395 
C 499 2395 416 2303 416 2212 
C 416 2107 480 2081 544 2048 
L 1453 1603 
L 570 1164 
C 467 1112 416 1085 416 987 
C 416 889 499 804 589 804 
C 634 804 646 804 806 928 
L 1523 1459 
L 1427 359 
C 1427 224 1542 192 1594 192 
C 1670 192 1766 236 1766 359 
L 1670 1459 
L 2490 850 
C 2547 817 2560 804 2605 804 
C 2694 804 2778 896 2778 987 
C 2778 1085 2720 1118 2643 1157 
C 2259 1354 2246 1354 1741 1596 
L 2624 2035 
C 2726 2087 2778 2113 2778 2212 
C 2778 2310 2694 2395 2605 2395 
C 2560 2395 2547 2395 2387 2271 
L 1670 1740 
L 1760 2762 
z
" transform="scale(0.015625)"/>
      </defs>
      <use xlink:href="#CMMI12-54" transform="scale(0.996264)"/>
      <use xlink:href="#CMMI12-3d" transform="translate(68.013914 0) scale(0.996264)"/>
      <use xlink:href="#CMMI12-54" transform="translate(116.788833 0) scale(0.996264)"/>
      <use xlink:href="#CMSY10-3" transform="translate(187.512465 36.153639) scale(0.697382)"/>
     </g>
    </g>
   </g>
   <g id="matplotlib.axis_2">
    <g id="ytick_1">
     <g id="line2d_6">
      <defs>
       <path id="mc0f5be458e" d="M 0 0 
L -2 0 
" style="stroke: #000000; stroke-width: 0.35"/>
      </defs>
      <g>
       <use xlink:href="#mc0f5be458e" x="25.150802" y="127.4727" style="stroke: #000000; stroke-width: 0.35"/>
      </g>
     </g>
     <g id="text_7">
      <!-- $\mathdefault{0.0}$ -->
      <g transform="translate(10.330112 130.240101) scale(0.08 -0.08)">
       <use xlink:href="#CMR17-30" transform="scale(0.996264)"/>
       <use xlink:href="#CMMI12-3a" transform="translate(45.690477 0) scale(0.996264)"/>
       <use xlink:href="#CMR17-30" transform="translate(72.787654 0) scale(0.996264)"/>
      </g>
     </g>
    </g>
    <g id="ytick_2">
     <g id="line2d_7">
      <g>
       <use xlink:href="#mc0f5be458e" x="25.150802" y="96.386376" style="stroke: #000000; stroke-width: 0.35"/>
      </g>
     </g>
     <g id="text_8">
      <!-- $\mathdefault{0.2}$ -->
      <g transform="translate(10.330112 99.153776) scale(0.08 -0.08)">
       <use xlink:href="#CMR17-30" transform="scale(0.996264)"/>
       <use xlink:href="#CMMI12-3a" transform="translate(45.690477 0) scale(0.996264)"/>
       <use xlink:href="#CMR17-32" transform="translate(72.787654 0) scale(0.996264)"/>
      </g>
     </g>
    </g>
    <g id="ytick_3">
     <g id="line2d_8">
      <g>
       <use xlink:href="#mc0f5be458e" x="25.150802" y="65.300051" style="stroke: #000000; stroke-width: 0.35"/>
      </g>
     </g>
     <g id="text_9">
      <!-- $\mathdefault{0.4}$ -->
      <g transform="translate(10.330112 68.067452) scale(0.08 -0.08)">
       <defs>
        <path id="CMR17-34" d="M 2150 4147 
C 2150 4281 2144 4288 2029 4288 
L 128 1254 
L 128 1088 
L 1779 1088 
L 1779 460 
C 1779 230 1766 166 1318 166 
L 1197 166 
L 1197 0 
C 1402 12 1747 12 1965 12 
C 2182 12 2528 12 2733 0 
L 2733 166 
L 2611 166 
C 2163 166 2150 230 2150 460 
L 2150 1088 
L 2803 1088 
L 2803 1254 
L 2150 1254 
L 2150 4147 
z
M 1798 3723 
L 1798 1254 
L 256 1254 
L 1798 3723 
z
" transform="scale(0.015625)"/>
       </defs>
       <use xlink:href="#CMR17-30" transform="scale(0.996264)"/>
       <use xlink:href="#CMMI12-3a" transform="translate(45.690477 0) scale(0.996264)"/>
       <use xlink:href="#CMR17-34" transform="translate(72.787654 0) scale(0.996264)"/>
      </g>
     </g>
    </g>
    <g id="ytick_4">
     <g id="line2d_9">
      <g>
       <use xlink:href="#mc0f5be458e" x="25.150802" y="34.213726" style="stroke: #000000; stroke-width: 0.35"/>
      </g>
     </g>
     <g id="text_10">
      <!-- $\mathdefault{0.6}$ -->
      <g transform="translate(10.330112 36.981127) scale(0.08 -0.08)">
       <defs>
        <path id="CMR17-36" d="M 678 2198 
C 678 3712 1395 4076 1811 4076 
C 1946 4076 2272 4049 2400 3782 
C 2298 3782 2106 3782 2106 3558 
C 2106 3385 2246 3328 2336 3328 
C 2394 3328 2566 3353 2566 3571 
C 2566 3987 2246 4224 1805 4224 
C 1043 4224 243 3411 243 2011 
C 243 257 966 -128 1478 -128 
C 2099 -128 2688 431 2688 1295 
C 2688 2101 2170 2688 1517 2688 
C 1126 2688 838 2430 678 1979 
L 678 2198 
z
M 1478 25 
C 691 25 691 1212 691 1450 
C 691 1914 909 2585 1504 2585 
C 1613 2585 1926 2585 2138 2140 
C 2253 1889 2253 1624 2253 1302 
C 2253 954 2253 696 2118 438 
C 1978 173 1773 25 1478 25 
z
" transform="scale(0.015625)"/>
       </defs>
       <use xlink:href="#CMR17-30" transform="scale(0.996264)"/>
       <use xlink:href="#CMMI12-3a" transform="translate(45.690477 0) scale(0.996264)"/>
       <use xlink:href="#CMR17-36" transform="translate(72.787654 0) scale(0.996264)"/>
      </g>
     </g>
    </g>
    <g id="ytick_5">
     <g id="line2d_10">
      <g>
       <use xlink:href="#mc0f5be458e" x="25.150802" y="3.127401" style="stroke: #000000; stroke-width: 0.35"/>
      </g>
     </g>
     <g id="text_11">
      <!-- $\mathdefault{0.8}$ -->
      <g transform="translate(10.330112 5.894802) scale(0.08 -0.08)">
       <defs>
        <path id="CMR17-38" d="M 1741 2289 
C 2144 2494 2554 2803 2554 3298 
C 2554 3884 1990 4224 1472 4224 
C 890 4224 378 3800 378 3215 
C 378 3054 416 2777 666 2533 
C 730 2469 998 2276 1171 2154 
C 883 2006 211 1652 211 945 
C 211 282 838 -128 1459 -128 
C 2144 -128 2720 366 2720 1022 
C 2720 1607 2330 1877 2074 2051 
L 1741 2289 
z
M 902 2855 
C 851 2887 595 3086 595 3388 
C 595 3781 998 4076 1459 4076 
C 1965 4076 2336 3716 2336 3298 
C 2336 2700 1670 2359 1638 2359 
C 1632 2359 1626 2359 1574 2398 
L 902 2855 
z
M 2080 1536 
C 2176 1466 2483 1253 2483 861 
C 2483 385 2010 25 1472 25 
C 890 25 448 443 448 951 
C 448 1459 838 1884 1280 2083 
L 2080 1536 
z
" transform="scale(0.015625)"/>
       </defs>
       <use xlink:href="#CMR17-30" transform="scale(0.996264)"/>
       <use xlink:href="#CMMI12-3a" transform="translate(45.690477 0) scale(0.996264)"/>
       <use xlink:href="#CMR17-38" transform="translate(72.787654 0) scale(0.996264)"/>
      </g>
     </g>
    </g>
    <g id="text_12">
     <!-- $v_s/v^\ast$ -->
     <g transform="translate(6.337584 74.392718) rotate(-90) scale(0.08 -0.08)">
      <defs>
       <path id="CMMI12-76" d="M 2925 2388 
C 2925 2790 2720 2816 2669 2816 
C 2515 2816 2374 2662 2374 2534 
C 2374 2458 2419 2413 2445 2388 
C 2509 2330 2675 2158 2675 1826 
C 2675 1558 2291 64 1523 64 
C 1133 64 1056 389 1056 625 
C 1056 945 1203 1392 1376 1851 
C 1478 2113 1504 2177 1504 2305 
C 1504 2573 1312 2816 998 2816 
C 410 2816 173 1890 173 1838 
C 173 1813 198 1781 243 1781 
C 301 1781 307 1807 333 1896 
C 486 2445 736 2687 979 2687 
C 1037 2687 1146 2687 1146 2477 
C 1146 2311 1075 2126 979 1883 
C 672 1066 672 868 672 715 
C 672 574 691 313 890 134 
C 1120 -64 1440 -64 1498 -64 
C 2560 -64 2925 2024 2925 2388 
z
" transform="scale(0.015625)"/>
       <path id="CMMI12-73" d="M 1459 1290 
C 1568 1271 1741 1233 1779 1227 
C 1862 1201 2150 1099 2150 793 
C 2150 595 1971 64 1229 64 
C 1094 64 614 83 486 447 
C 742 414 870 614 870 755 
C 870 889 781 960 653 960 
C 512 960 326 851 326 563 
C 326 176 710 -64 1222 -64 
C 2195 -64 2483 665 2483 998 
C 2483 1093 2483 1271 2278 1475 
C 2118 1627 1965 1659 1619 1729 
C 1446 1767 1171 1824 1171 2111 
C 1171 2239 1286 2687 1894 2687 
C 2163 2687 2426 2589 2490 2368 
C 2208 2368 2195 2124 2195 2118 
C 2195 1983 2317 1945 2374 1945 
C 2464 1945 2643 2015 2643 2284 
C 2643 2546 2400 2816 1901 2816 
C 1062 2816 838 2169 838 1907 
C 838 1424 1312 1322 1459 1290 
z
" transform="scale(0.015625)"/>
      </defs>
      <use xlink:href="#CMMI12-76" transform="scale(0.996264)"/>
      <use xlink:href="#CMMI12-73" transform="translate(47.160581 -14.943915) scale(0.697382)"/>
      <use xlink:href="#CMMI12-3d" transform="translate(79.823602 0) scale(0.996264)"/>
      <use xlink:href="#CMMI12-76" transform="translate(128.59852 0) scale(0.996264)"/>
      <use xlink:href="#CMSY10-3" transform="translate(179.333694 36.153639) scale(0.697382)"/>
     </g>
    </g>
   </g>
   <g id="line2d_11">
    <path d="M 25.311664 127.025295 
L 26.212223 126.862519 
L 28.656597 126.490717 
L 33.223716 126.053234 
L 41.200094 125.534889 
L 54.193871 124.931116 
L 74.199142 124.239621 
L 103.595955 123.459707 
L 145.214637 122.59034 
L 202.335795 121.630822 
L 243.311221 121.042457 
L 243.311221 121.042457 
" clip-path="url(#p0454f62ddf)" style="fill: none; stroke: #5e4fa2; stroke-linecap: round"/>
   </g>
   <g id="line2d_12">
    <path d="M 25.311664 125.86819 
L 26.662502 125.745359 
L 35.989718 124.152711 
L 43.001212 123.350304 
L 52.843033 122.460488 
L 66.222764 121.485104 
L 84.040963 120.419289 
L 107.262515 119.262721 
L 136.980956 118.014472 
L 174.354146 116.675741 
L 220.732925 115.244792 
L 243.311221 114.614283 
L 243.311221 114.614283 
" clip-path="url(#p0454f62ddf)" style="fill: none; stroke: #3f77b5; stroke-linecap: round"/>
   </g>
   <g id="line2d_13">
    <path d="M 25.311664 124.07448 
L 27.43441 123.955125 
L 29.557155 123.574746 
L 37.72651 121.978256 
L 44.673678 120.904123 
L 53.550615 119.766028 
L 64.936251 118.540372 
L 79.280867 117.229115 
L 97.099066 115.831422 
L 119.034105 114.341381 
L 145.664916 112.762071 
L 177.763405 111.088178 
L 216.037154 109.321662 
L 243.311221 108.175912 
L 243.311221 108.175912 
" clip-path="url(#p0454f62ddf)" style="fill: none; stroke: #47a0b3; stroke-linecap: round"/>
   </g>
   <g id="line2d_14">
    <path d="M 25.311664 121.687192 
L 28.270643 121.565982 
L 30.586366 121.243904 
L 35.08916 120.319414 
L 43.258514 118.700796 
L 51.492195 117.311789 
L 61.398342 115.873834 
L 73.427234 114.360063 
L 87.964827 112.762147 
L 105.397072 111.076855 
L 126.109925 109.304095 
L 150.553664 107.441011 
L 179.242894 105.483403 
L 212.627896 103.434066 
L 243.311221 101.715081 
L 243.311221 101.715081 
" clip-path="url(#p0454f62ddf)" style="fill: none; stroke: #6ec5a5; stroke-linecap: round"/>
   </g>
   <g id="line2d_15">
    <path d="M 25.311664 118.734783 
L 29.04255 118.615751 
L 31.808552 118.320004 
L 35.282136 117.695583 
L 56.57392 113.500623 
L 67.187648 111.777942 
L 79.602495 109.994217 
L 94.140087 108.135998 
L 111.122053 106.194986 
L 130.870021 104.166877 
L 153.70562 102.050181 
L 180.014802 99.840021 
L 210.119196 97.539139 
L 243.311221 95.219463 
L 243.311221 95.219463 
" clip-path="url(#p0454f62ddf)" style="fill: none; stroke: #a2d9a4; stroke-linecap: round"/>
   </g>
   <g id="line2d_16">
    <path d="M 25.311664 115.238995 
L 29.814458 115.119827 
L 33.223716 114.826032 
L 36.6973 114.291724 
L 42.29363 113.169334 
L 58.825317 109.784633 
L 70.146627 107.738336 
L 82.754451 105.690753 
L 97.163392 103.581574 
L 113.630753 101.40116 
L 132.413836 99.142878 
L 153.834271 96.796019 
L 178.149359 94.360294 
L 205.616402 91.83643 
L 236.55703 89.220644 
L 243.311221 88.676587 
L 243.311221 88.676587 
" clip-path="url(#p0454f62ddf)" style="fill: none; stroke: #cdeb9d; stroke-linecap: round"/>
   </g>
   <g id="line2d_17">
    <path d="M 25.311664 111.217568 
L 30.52204 111.100231 
L 34.703206 110.800565 
L 38.498418 110.298439 
L 43.387166 109.406766 
L 54.129546 107.150504 
L 67.89523 104.354514 
L 80.696031 101.988632 
L 94.654692 99.638453 
L 110.28582 97.236701 
L 127.846717 94.768104 
L 147.594685 92.221291 
L 169.722701 89.595709 
L 194.552394 86.877814 
L 222.27674 84.071159 
L 243.311221 82.073771 
L 243.311221 82.073771 
" clip-path="url(#p0454f62ddf)" style="fill: none; stroke: #edf8a3; stroke-linecap: round"/>
   </g>
   <g id="line2d_18">
    <path d="M 25.311664 106.685568 
L 31.229622 106.568948 
L 36.247021 106.259248 
L 40.428187 105.779029 
L 45.252609 104.988177 
L 52.392754 103.565905 
L 81.596589 97.565319 
L 96.134182 94.891999 
L 111.893961 92.223934 
L 129.261881 89.513403 
L 148.495244 86.740765 
L 169.851352 83.890817 
L 193.523184 80.960045 
L 219.703715 77.946199 
L 243.311221 75.398047 
L 243.311221 75.398047 
" clip-path="url(#p0454f62ddf)" style="fill: none; stroke: #fffebe; stroke-linecap: round"/>
   </g>
   <g id="line2d_19">
    <path d="M 25.311664 101.656144 
L 31.937204 101.53967 
L 37.72651 101.226312 
L 42.486607 100.747538 
L 47.43968 100.018287 
L 53.807918 98.840998 
L 65.129228 96.480759 
L 86.74264 91.992921 
L 102.63107 88.93928 
L 119.291408 85.966951 
L 137.302584 82.982936 
L 156.986227 79.950513 
L 178.599638 76.849249 
L 202.335795 73.671549 
L 228.387675 70.411686 
L 243.311221 68.636099 
L 243.311221 68.636099 
" clip-path="url(#p0454f62ddf)" style="fill: none; stroke: #fee999; stroke-linecap: round"/>
   </g>
   <g id="line2d_20">
    <path d="M 25.311664 96.141001 
L 32.644786 96.024354 
L 39.206 95.706768 
L 44.545027 95.232191 
L 49.819729 94.534147 
L 55.994989 93.481887 
L 64.743275 91.744879 
L 111.443681 82.162142 
L 129.326206 78.864236 
L 148.302267 75.593326 
L 168.822142 72.284776 
L 191.143136 68.914483 
L 215.393898 65.480616 
L 241.831731 61.964708 
L 243.311221 61.774196 
L 243.311221 61.774196 
" clip-path="url(#p0454f62ddf)" style="fill: none; stroke: #feca79; stroke-linecap: round"/>
   </g>
   <g id="line2d_21">
    <path d="M 25.311664 90.150725 
L 33.288042 90.035561 
L 40.685489 89.711423 
L 46.667773 89.235143 
L 52.328428 88.558174 
L 58.568014 87.57972 
L 66.480067 86.100597 
L 79.216541 83.461853 
L 111.765309 76.666351 
L 130.870021 72.94324 
L 150.489338 69.34901 
L 171.266516 65.771345 
L 193.58751 62.156384 
L 217.645295 58.488209 
L 243.311221 54.798135 
L 243.311221 54.798135 
" clip-path="url(#p0454f62ddf)" style="fill: none; stroke: #fca55d; stroke-linecap: round"/>
   </g>
   <g id="line2d_22">
    <path d="M 25.311664 83.694995 
L 33.995624 83.579195 
L 42.100653 83.253789 
L 48.790519 82.772818 
L 54.901453 82.109678 
L 61.334016 81.181717 
L 68.988766 79.841147 
L 79.409518 77.772256 
L 102.245116 72.942399 
L 126.109925 68.006226 
L 146.822777 63.953457 
L 167.921584 60.053785 
L 190.113926 56.180141 
L 213.785757 52.276448 
L 239.130055 48.32471 
L 243.311221 47.693186 
L 243.311221 47.693186 
" clip-path="url(#p0454f62ddf)" style="fill: none; stroke: #f57547; stroke-linecap: round"/>
   </g>
   <g id="line2d_23">
    <path d="M 25.311664 76.782755 
L 34.63888 76.667837 
L 43.451491 76.342129 
L 50.913264 75.853584 
L 57.538804 75.197507 
L 64.22867 74.308333 
L 71.819094 73.066834 
L 81.339287 71.270812 
L 95.619577 68.325486 
L 142.963239 58.433413 
L 165.219907 54.079029 
L 187.862529 49.877222 
L 211.598686 45.700867 
L 236.750007 41.503797 
L 243.311221 40.44405 
L 243.311221 40.44405 
" clip-path="url(#p0454f62ddf)" style="fill: none; stroke: #e2514a; stroke-linecap: round"/>
   </g>
   <g id="line2d_24">
    <path d="M 25.311664 69.422327 
L 35.282136 69.308042 
L 44.866655 68.978301 
L 53.100336 68.480719 
L 60.240481 67.83041 
L 67.3163 66.959973 
L 74.97105 65.789018 
L 84.105289 64.156599 
L 96.262833 61.741046 
L 118.390849 57.072699 
L 151.068269 50.231266 
L 175.126054 45.431417 
L 199.055188 40.885154 
L 223.820555 36.408209 
L 243.311221 33.034825 
L 243.311221 33.034825 
" clip-path="url(#p0454f62ddf)" style="fill: none; stroke: #c52c4b; stroke-linecap: round"/>
   </g>
   <g id="line2d_25">
    <path d="M 25.311664 61.621508 
L 35.925393 61.507664 
L 46.153168 61.179464 
L 55.158756 60.676591 
L 62.942157 60.023211 
L 70.40393 59.172698 
L 78.251657 58.050893 
L 87.192919 56.541678 
L 98.321253 54.425997 
L 114.274009 51.145675 
L 179.886151 37.445808 
L 205.230448 32.486179 
L 230.9607 27.678968 
L 243.311221 25.448982 
L 243.311221 25.448982 
" clip-path="url(#p0454f62ddf)" style="fill: none; stroke: #9e0142; stroke-linecap: round"/>
   </g>
   <g id="patch_3">
    <path d="M 25.150802 127.4727 
L 25.150802 0.734661 
" style="fill: none; stroke: #000000; stroke-width: 0.35; stroke-linejoin: miter; stroke-linecap: square"/>
   </g>
   <g id="patch_4">
    <path d="M 243.309294 127.4727 
L 243.309294 0.734661 
" style="fill: none; stroke: #000000; stroke-width: 0.35; stroke-linejoin: miter; stroke-linecap: square"/>
   </g>
   <g id="patch_5">
    <path d="M 25.150802 127.4727 
L 243.309294 127.4727 
" style="fill: none; stroke: #000000; stroke-width: 0.35; stroke-linejoin: miter; stroke-linecap: square"/>
   </g>
   <g id="patch_6">
    <path d="M 25.150802 0.734661 
L 243.309294 0.734661 
" style="fill: none; stroke: #000000; stroke-width: 0.35; stroke-linejoin: miter; stroke-linecap: square"/>
   </g>
   <g id="text_13">
    <g id="patch_7">
     <path d="M 220.762782 124.296966 
L 230.9607 124.296966 
Q 230.9607 124.296966 230.9607 124.296966 
L 230.9607 118.098014 
Q 230.9607 118.098014 230.9607 118.098014 
L 220.762782 118.098014 
Q 220.762782 118.098014 220.762782 118.098014 
L 220.762782 124.296966 
Q 220.762782 124.296966 220.762782 124.296966 
z
" style="fill: #ffffff"/>
    </g>
    <!-- 0.1 -->
    <g style="fill: #5e4fa2" transform="translate(220.762782 122.940952) scale(0.07 -0.07)">
     <defs>
      <path id="CMR17-2e" d="M 1062 262 
C 1062 422 934 524 800 524 
C 672 524 538 422 538 262 
C 538 102 666 0 800 0 
C 928 0 1062 102 1062 262 
z
" transform="scale(0.015625)"/>
     </defs>
     <use xlink:href="#CMR17-30" transform="scale(0.996264)"/>
     <use xlink:href="#CMR17-2e" transform="translate(45.690477 0) scale(0.996264)"/>
     <use xlink:href="#CMR17-31" transform="translate(70.561536 0) scale(0.996264)"/>
    </g>
   </g>
   <g id="text_14">
    <g id="patch_8">
     <path d="M 220.762782 118.038534 
L 230.9607 118.038534 
Q 230.9607 118.038534 230.9607 118.038534 
L 230.9607 111.839582 
Q 230.9607 111.839582 230.9607 111.839582 
L 220.762782 111.839582 
Q 220.762782 111.839582 220.762782 111.839582 
L 220.762782 118.038534 
Q 220.762782 118.038534 220.762782 118.038534 
z
" style="fill: #ffffff"/>
    </g>
    <!-- 0.2 -->
    <g style="fill: #3f77b5" transform="translate(220.762782 116.68252) scale(0.07 -0.07)">
     <use xlink:href="#CMR17-30" transform="scale(0.996264)"/>
     <use xlink:href="#CMR17-2e" transform="translate(45.690477 0) scale(0.996264)"/>
     <use xlink:href="#CMR17-32" transform="translate(70.561536 0) scale(0.996264)"/>
    </g>
   </g>
   <g id="text_15">
    <g id="patch_9">
     <path d="M 220.762782 111.768618 
L 230.9607 111.768618 
Q 230.9607 111.768618 230.9607 111.768618 
L 230.9607 105.569666 
Q 230.9607 105.569666 230.9607 105.569666 
L 220.762782 105.569666 
Q 220.762782 105.569666 220.762782 105.569666 
L 220.762782 111.768618 
Q 220.762782 111.768618 220.762782 111.768618 
z
" style="fill: #ffffff"/>
    </g>
    <!-- 0.3 -->
    <g style="fill: #47a0b3" transform="translate(220.762782 110.412604) scale(0.07 -0.07)">
     <defs>
      <path id="CMR17-33" d="M 1414 2176 
C 1984 2176 2234 1673 2234 1094 
C 2234 322 1824 25 1453 25 
C 1114 25 563 193 390 691 
C 422 678 454 678 486 678 
C 640 678 755 780 755 947 
C 755 1132 614 1216 486 1216 
C 378 1216 211 1164 211 927 
C 211 335 787 -128 1466 -128 
C 2176 -128 2720 432 2720 1087 
C 2720 1718 2208 2176 1600 2246 
C 2086 2347 2554 2776 2554 3353 
C 2554 3856 2048 4224 1472 4224 
C 890 4224 378 3862 378 3347 
C 378 3123 544 3084 627 3084 
C 762 3084 877 3167 877 3334 
C 877 3500 762 3584 627 3584 
C 602 3584 570 3584 544 3571 
C 730 3999 1235 4076 1459 4076 
C 1683 4076 2106 3966 2106 3347 
C 2106 3167 2080 2851 1862 2574 
C 1670 2329 1453 2316 1242 2297 
C 1210 2297 1062 2284 1037 2284 
C 992 2278 966 2272 966 2227 
C 966 2182 973 2176 1101 2176 
L 1414 2176 
z
" transform="scale(0.015625)"/>
     </defs>
     <use xlink:href="#CMR17-30" transform="scale(0.996264)"/>
     <use xlink:href="#CMR17-2e" transform="translate(45.690477 0) scale(0.996264)"/>
     <use xlink:href="#CMR17-33" transform="translate(70.561536 0) scale(0.996264)"/>
    </g>
   </g>
   <g id="text_16">
    <g id="patch_10">
     <path d="M 220.762782 105.474496 
L 230.9607 105.474496 
Q 230.9607 105.474496 230.9607 105.474496 
L 230.9607 99.275544 
Q 230.9607 99.275544 230.9607 99.275544 
L 220.762782 99.275544 
Q 220.762782 99.275544 220.762782 99.275544 
L 220.762782 105.474496 
Q 220.762782 105.474496 220.762782 105.474496 
z
" style="fill: #ffffff"/>
    </g>
    <!-- 0.4 -->
    <g style="fill: #6ec5a5" transform="translate(220.762782 104.118482) scale(0.07 -0.07)">
     <use xlink:href="#CMR17-30" transform="scale(0.996264)"/>
     <use xlink:href="#CMR17-2e" transform="translate(45.690477 0) scale(0.996264)"/>
     <use xlink:href="#CMR17-34" transform="translate(70.561536 0) scale(0.996264)"/>
    </g>
   </g>
   <g id="text_17">
    <g id="patch_11">
     <path d="M 220.762782 99.14336 
L 230.9607 99.14336 
Q 230.9607 99.14336 230.9607 99.14336 
L 230.9607 92.944408 
Q 230.9607 92.944408 230.9607 92.944408 
L 220.762782 92.944408 
Q 220.762782 92.944408 220.762782 92.944408 
L 220.762782 99.14336 
Q 220.762782 99.14336 220.762782 99.14336 
z
" style="fill: #ffffff"/>
    </g>
    <!-- 0.5 -->
    <g style="fill: #a2d9a4" transform="translate(220.762782 97.787346) scale(0.07 -0.07)">
     <use xlink:href="#CMR17-30" transform="scale(0.996264)"/>
     <use xlink:href="#CMR17-2e" transform="translate(45.690477 0) scale(0.996264)"/>
     <use xlink:href="#CMR17-35" transform="translate(70.561536 0) scale(0.996264)"/>
    </g>
   </g>
   <g id="text_18">
    <g id="patch_12">
     <path d="M 220.762782 92.762236 
L 230.9607 92.762236 
Q 230.9607 92.762236 230.9607 92.762236 
L 230.9607 86.563283 
Q 230.9607 86.563283 230.9607 86.563283 
L 220.762782 86.563283 
Q 220.762782 86.563283 220.762782 86.563283 
L 220.762782 92.762236 
Q 220.762782 92.762236 220.762782 92.762236 
z
" style="fill: #ffffff"/>
    </g>
    <!-- 0.6 -->
    <g style="fill: #cdeb9d" transform="translate(220.762782 91.406222) scale(0.07 -0.07)">
     <use xlink:href="#CMR17-30" transform="scale(0.996264)"/>
     <use xlink:href="#CMR17-2e" transform="translate(45.690477 0) scale(0.996264)"/>
     <use xlink:href="#CMR17-36" transform="translate(70.561536 0) scale(0.996264)"/>
    </g>
   </g>
   <g id="text_19">
    <g id="patch_13">
     <path d="M 220.762782 86.317901 
L 230.9607 86.317901 
Q 230.9607 86.317901 230.9607 86.317901 
L 230.9607 80.118949 
Q 230.9607 80.118949 230.9607 80.118949 
L 220.762782 80.118949 
Q 220.762782 80.118949 220.762782 80.118949 
L 220.762782 86.317901 
Q 220.762782 86.317901 220.762782 86.317901 
z
" style="fill: #ffffff"/>
    </g>
    <!-- 0.7 -->
    <g style="fill: #edf8a3" transform="translate(220.762782 84.961887) scale(0.07 -0.07)">
     <defs>
      <path id="CMR17-37" d="M 2886 3955 
L 2886 4096 
L 1382 4096 
C 634 4096 621 4166 595 4288 
L 480 4288 
L 294 3104 
L 410 3104 
C 429 3226 474 3552 550 3673 
C 589 3724 1062 3724 1171 3724 
L 2579 3724 
L 1869 2670 
C 1395 1961 1069 1003 1069 166 
C 1069 89 1069 -128 1299 -128 
C 1530 -128 1530 89 1530 172 
L 1530 466 
C 1530 1514 1709 2204 2003 2644 
L 2886 3955 
z
" transform="scale(0.015625)"/>
     </defs>
     <use xlink:href="#CMR17-30" transform="scale(0.996264)"/>
     <use xlink:href="#CMR17-2e" transform="translate(45.690477 0) scale(0.996264)"/>
     <use xlink:href="#CMR17-37" transform="translate(70.561536 0) scale(0.996264)"/>
    </g>
   </g>
   <g id="text_20">
    <g id="patch_14">
     <path d="M 220.762782 79.796812 
L 230.9607 79.796812 
Q 230.9607 79.796812 230.9607 79.796812 
L 230.9607 73.59786 
Q 230.9607 73.59786 230.9607 73.59786 
L 220.762782 73.59786 
Q 220.762782 73.59786 220.762782 73.59786 
L 220.762782 79.796812 
Q 220.762782 79.796812 220.762782 79.796812 
z
" style="fill: #ffffff"/>
    </g>
    <!-- 0.8 -->
    <g style="fill: #fffebe" transform="translate(220.762782 78.440798) scale(0.07 -0.07)">
     <use xlink:href="#CMR17-30" transform="scale(0.996264)"/>
     <use xlink:href="#CMR17-2e" transform="translate(45.690477 0) scale(0.996264)"/>
     <use xlink:href="#CMR17-38" transform="translate(70.561536 0) scale(0.996264)"/>
    </g>
   </g>
   <g id="text_21">
    <g id="patch_15">
     <path d="M 220.762782 73.185028 
L 230.9607 73.185028 
Q 230.9607 73.185028 230.9607 73.185028 
L 230.9607 66.986075 
Q 230.9607 66.986075 230.9607 66.986075 
L 220.762782 66.986075 
Q 220.762782 66.986075 220.762782 66.986075 
L 220.762782 73.185028 
Q 220.762782 73.185028 220.762782 73.185028 
z
" style="fill: #ffffff"/>
    </g>
    <!-- 0.9 -->
    <g style="fill: #fee999" transform="translate(220.762782 71.829013) scale(0.07 -0.07)">
     <defs>
      <path id="CMR17-39" d="M 2253 1871 
C 2253 448 1670 25 1190 25 
C 1043 25 685 43 538 281 
C 704 256 826 345 826 505 
C 826 678 685 736 595 736 
C 538 736 365 710 365 492 
C 365 68 742 -128 1203 -128 
C 1939 -128 2688 665 2688 2090 
C 2688 3857 1971 4224 1485 4224 
C 851 4224 243 3664 243 2800 
C 243 2000 762 1408 1414 1408 
C 1952 1408 2189 1910 2253 2122 
L 2253 1871 
z
M 1427 1510 
C 1254 1510 1011 1542 813 1929 
C 678 2181 678 2477 678 2793 
C 678 3174 678 3438 858 3722 
C 947 3857 1114 4076 1485 4076 
C 2240 4076 2240 2909 2240 2651 
C 2240 2193 2035 1510 1427 1510 
z
" transform="scale(0.015625)"/>
     </defs>
     <use xlink:href="#CMR17-30" transform="scale(0.996264)"/>
     <use xlink:href="#CMR17-2e" transform="translate(45.690477 0) scale(0.996264)"/>
     <use xlink:href="#CMR17-39" transform="translate(70.561536 0) scale(0.996264)"/>
    </g>
   </g>
   <g id="text_22">
    <g id="patch_16">
     <path d="M 220.762782 66.468139 
L 230.9607 66.468139 
Q 230.9607 66.468139 230.9607 66.468139 
L 230.9607 60.269187 
Q 230.9607 60.269187 230.9607 60.269187 
L 220.762782 60.269187 
Q 220.762782 60.269187 220.762782 60.269187 
L 220.762782 66.468139 
Q 220.762782 66.468139 220.762782 66.468139 
z
" style="fill: #ffffff"/>
    </g>
    <!-- 1.0 -->
    <g style="fill: #feca79" transform="translate(220.762782 65.112125) scale(0.07 -0.07)">
     <use xlink:href="#CMR17-31" transform="scale(0.996264)"/>
     <use xlink:href="#CMR17-2e" transform="translate(45.690477 0) scale(0.996264)"/>
     <use xlink:href="#CMR17-30" transform="translate(70.561536 0) scale(0.996264)"/>
    </g>
   </g>
   <g id="text_23">
    <g id="patch_17">
     <path d="M 220.762782 59.631209 
L 230.9607 59.631209 
Q 230.9607 59.631209 230.9607 59.631209 
L 230.9607 53.432257 
Q 230.9607 53.432257 230.9607 53.432257 
L 220.762782 53.432257 
Q 220.762782 53.432257 220.762782 53.432257 
L 220.762782 59.631209 
Q 220.762782 59.631209 220.762782 59.631209 
z
" style="fill: #ffffff"/>
    </g>
    <!-- 1.1 -->
    <g style="fill: #fca55d" transform="translate(220.762782 58.275195) scale(0.07 -0.07)">
     <use xlink:href="#CMR17-31" transform="scale(0.996264)"/>
     <use xlink:href="#CMR17-2e" transform="translate(45.690477 0) scale(0.996264)"/>
     <use xlink:href="#CMR17-31" transform="translate(70.561536 0) scale(0.996264)"/>
    </g>
   </g>
   <g id="text_24">
    <g id="patch_18">
     <path d="M 220.762782 52.658713 
L 230.9607 52.658713 
Q 230.9607 52.658713 230.9607 52.658713 
L 230.9607 46.45976 
Q 230.9607 46.45976 230.9607 46.45976 
L 220.762782 46.45976 
Q 220.762782 46.45976 220.762782 46.45976 
L 220.762782 52.658713 
Q 220.762782 52.658713 220.762782 52.658713 
z
" style="fill: #ffffff"/>
    </g>
    <!-- 1.2 -->
    <g style="fill: #f57547" transform="translate(220.762782 51.302698) scale(0.07 -0.07)">
     <use xlink:href="#CMR17-31" transform="scale(0.996264)"/>
     <use xlink:href="#CMR17-2e" transform="translate(45.690477 0) scale(0.996264)"/>
     <use xlink:href="#CMR17-32" transform="translate(70.561536 0) scale(0.996264)"/>
    </g>
   </g>
   <g id="text_25">
    <g id="patch_19">
     <path d="M 220.762782 45.534491 
L 230.9607 45.534491 
Q 230.9607 45.534491 230.9607 45.534491 
L 230.9607 39.335539 
Q 230.9607 39.335539 230.9607 39.335539 
L 220.762782 39.335539 
Q 220.762782 39.335539 220.762782 39.335539 
L 220.762782 45.534491 
Q 220.762782 45.534491 220.762782 45.534491 
z
" style="fill: #ffffff"/>
    </g>
    <!-- 1.3 -->
    <g style="fill: #e2514a" transform="translate(220.762782 44.178477) scale(0.07 -0.07)">
     <use xlink:href="#CMR17-31" transform="scale(0.996264)"/>
     <use xlink:href="#CMR17-2e" transform="translate(45.690477 0) scale(0.996264)"/>
     <use xlink:href="#CMR17-33" transform="translate(70.561536 0) scale(0.996264)"/>
    </g>
   </g>
   <g id="text_26">
    <g id="patch_20">
     <path d="M 220.762782 38.241722 
L 230.9607 38.241722 
Q 230.9607 38.241722 230.9607 38.241722 
L 230.9607 32.04277 
Q 230.9607 32.04277 230.9607 32.04277 
L 220.762782 32.04277 
Q 220.762782 32.04277 220.762782 32.04277 
L 220.762782 38.241722 
Q 220.762782 38.241722 220.762782 38.241722 
z
" style="fill: #ffffff"/>
    </g>
    <!-- 1.4 -->
    <g style="fill: #c52c4b" transform="translate(220.762782 36.885708) scale(0.07 -0.07)">
     <use xlink:href="#CMR17-31" transform="scale(0.996264)"/>
     <use xlink:href="#CMR17-2e" transform="translate(45.690477 0) scale(0.996264)"/>
     <use xlink:href="#CMR17-34" transform="translate(70.561536 0) scale(0.996264)"/>
    </g>
   </g>
   <g id="text_27">
    <g id="patch_21">
     <path d="M 220.762782 30.762902 
L 230.9607 30.762902 
Q 230.9607 30.762902 230.9607 30.762902 
L 230.9607 24.563949 
Q 230.9607 24.563949 230.9607 24.563949 
L 220.762782 24.563949 
Q 220.762782 24.563949 220.762782 24.563949 
L 220.762782 30.762902 
Q 220.762782 30.762902 220.762782 30.762902 
z
" style="fill: #ffffff"/>
    </g>
    <!-- 1.5 -->
    <g style="fill: #9e0142" transform="translate(220.762782 29.406887) scale(0.07 -0.07)">
     <use xlink:href="#CMR17-31" transform="scale(0.996264)"/>
     <use xlink:href="#CMR17-2e" transform="translate(45.690477 0) scale(0.996264)"/>
     <use xlink:href="#CMR17-35" transform="translate(70.561536 0) scale(0.996264)"/>
    </g>
   </g>
   <g id="text_28">
    <path d="M 217.548871 14.581007 
C 217.47742 14.428299 217.442395 14.428299 217.369543 14.428299 
C 217.263068 14.428299 217.253261 14.446512 217.190216 14.572601 
L 214.285951 20.643118 
C 214.276144 20.65993 214.241119 20.741188 214.241119 20.749594 
C 214.241119 20.78602 214.249525 20.794426 214.410639 20.794426 
L 220.320042 20.794426 
C 220.481156 20.794426 220.490963 20.78602 220.490963 20.749594 
C 220.490963 20.741188 220.454537 20.65993 220.446131 20.643118 
L 217.548871 14.581007 
z
M 217.145384 15.111985 
L 219.62935 20.292869 
L 214.653012 20.292869 
L 217.145384 15.111985 
z
M 223.485333 17.961611 
L 224.992805 17.961611 
C 226.229884 17.961611 227.466964 17.049563 227.466964 16.031038 
C 227.466964 15.333342 226.875744 14.69729 225.74514 14.69729 
L 222.97537 14.69729 
C 222.804448 14.69729 222.723191 14.69729 222.723191 14.868212 
C 222.723191 14.957875 222.804448 14.957875 222.938944 14.957875 
C 223.485333 14.957875 223.485333 15.029326 223.485333 15.127396 
C 223.485333 15.145609 223.485333 15.198847 223.450308 15.333342 
L 222.239847 20.134556 
C 222.158589 20.445578 222.140376 20.535241 221.51273 20.535241 
C 221.343209 20.535241 221.253546 20.535241 221.253546 20.696356 
C 221.253546 20.794426 221.333402 20.794426 221.388041 20.794426 
C 221.557562 20.794426 221.736889 20.777614 221.907811 20.777614 
L 222.957157 20.777614 
C 223.126678 20.777614 223.315812 20.794426 223.485333 20.794426 
C 223.558184 20.794426 223.656254 20.794426 223.656254 20.624905 
C 223.656254 20.535241 223.574996 20.535241 223.440501 20.535241 
C 222.902518 20.535241 222.894112 20.472197 222.894112 20.383934 
C 222.894112 20.339102 222.902518 20.277458 222.912325 20.232626 
L 223.485333 17.961611 
z
M 224.131192 15.306723 
C 224.21245 14.976088 224.247475 14.957875 224.597724 14.957875 
L 225.485955 14.957875 
C 226.158434 14.957875 226.713228 15.172228 226.713228 15.843305 
C 226.713228 16.074469 226.596945 16.83521 226.185052 17.245702 
C 226.032344 17.406817 225.602238 17.745858 224.785457 17.745858 
L 223.521759 17.745858 
L 224.131192 15.306723 
z
M 231.069556 14.40168 
C 231.069556 14.393274 231.122794 14.258778 231.122794 14.240565 
C 231.122794 14.132688 231.03313 14.069644 230.961679 14.069644 
C 230.916848 14.069644 230.83559 14.069644 230.764139 14.267184 
L 227.760403 22.705385 
C 227.760403 22.713791 227.707165 22.848286 227.707165 22.866499 
C 227.707165 22.974376 227.796829 23.03602 227.86828 23.03602 
C 227.921518 23.03602 228.002775 23.027614 228.06582 22.83988 
L 231.069556 14.40168 
z
M 234.26565 17.961611 
L 235.773122 17.961611 
C 237.010202 17.961611 238.247281 17.049563 238.247281 16.031038 
C 238.247281 15.333342 237.656061 14.69729 236.525457 14.69729 
L 233.755687 14.69729 
C 233.584766 14.69729 233.503508 14.69729 233.503508 14.868212 
C 233.503508 14.957875 233.584766 14.957875 233.719261 14.957875 
C 234.26565 14.957875 234.26565 15.029326 234.26565 15.127396 
C 234.26565 15.145609 234.26565 15.198847 234.230625 15.333342 
L 233.020164 20.134556 
C 232.938907 20.445578 232.920694 20.535241 232.293047 20.535241 
C 232.123527 20.535241 232.033863 20.535241 232.033863 20.696356 
C 232.033863 20.794426 232.11372 20.794426 232.168359 20.794426 
C 232.337879 20.794426 232.517207 20.777614 232.688128 20.777614 
L 233.737474 20.777614 
C 233.906995 20.777614 234.096129 20.794426 234.26565 20.794426 
C 234.338502 20.794426 234.436572 20.794426 234.436572 20.624905 
C 234.436572 20.535241 234.355314 20.535241 234.220818 20.535241 
C 233.682836 20.535241 233.67443 20.472197 233.67443 20.383934 
C 233.67443 20.339102 233.682836 20.277458 233.692643 20.232626 
L 234.26565 17.961611 
z
M 234.911509 15.306723 
C 234.992767 14.976088 235.027792 14.957875 235.378041 14.957875 
L 236.266273 14.957875 
C 236.938751 14.957875 237.493545 15.172228 237.493545 15.843305 
C 237.493545 16.074469 237.377263 16.83521 236.96537 17.245702 
C 236.812661 17.406817 236.382555 17.745858 235.565775 17.745858 
L 234.302076 17.745858 
L 234.911509 15.306723 
z
M 240.216507 14.831924 
C 240.222391 14.742681 240.222391 14.590673 240.059596 14.590673 
C 239.959565 14.590673 239.877187 14.673052 239.896801 14.75543 
L 239.896801 14.838789 
L 239.984083 15.834192 
L 239.180895 15.23695 
C 239.124015 15.204587 239.112246 15.191838 239.068115 15.191838 
C 238.979853 15.191838 238.898455 15.282062 238.898455 15.371305 
C 238.898455 15.474278 238.96122 15.499776 239.023984 15.532139 
L 239.915434 15.968547 
L 239.049482 16.399071 
C 238.948471 16.450067 238.898455 16.476546 238.898455 16.572654 
C 238.898455 16.668762 238.979853 16.752121 239.068115 16.752121 
C 239.112246 16.752121 239.124015 16.752121 239.280926 16.630515 
L 239.984083 16.109767 
L 239.889936 17.188529 
C 239.889936 17.320923 240.002716 17.352305 240.053712 17.352305 
C 240.128244 17.352305 240.222391 17.309155 240.222391 17.188529 
L 240.128244 16.109767 
L 240.932413 16.707009 
C 240.988312 16.739372 241.001061 16.752121 241.045193 16.752121 
C 241.132474 16.752121 241.214852 16.661897 241.214852 16.572654 
C 241.214852 16.476546 241.157972 16.444183 241.082459 16.405936 
C 240.705873 16.21274 240.693124 16.21274 240.197874 15.975412 
L 241.063826 15.544888 
C 241.163856 15.493892 241.214852 15.468394 241.214852 15.371305 
C 241.214852 15.275197 241.132474 15.191838 241.045193 15.191838 
C 241.001061 15.191838 240.988312 15.191838 240.831401 15.313444 
L 240.128244 15.834192 
L 240.216507 14.831924 
z
" style="opacity: 0.5"/>
    <path d="M 217.528871 14.561007 
C 217.45742 14.408299 217.422395 14.408299 217.349543 14.408299 
C 217.243068 14.408299 217.233261 14.426512 217.170216 14.552601 
L 214.265951 20.623118 
C 214.256144 20.63993 214.221119 20.721188 214.221119 20.729594 
C 214.221119 20.76602 214.229525 20.774426 214.390639 20.774426 
L 220.300042 20.774426 
C 220.461156 20.774426 220.470963 20.76602 220.470963 20.729594 
C 220.470963 20.721188 220.434537 20.63993 220.426131 20.623118 
L 217.528871 14.561007 
z
M 217.125384 15.091985 
L 219.60935 20.272869 
L 214.633012 20.272869 
L 217.125384 15.091985 
z
M 223.465333 17.941611 
L 224.972805 17.941611 
C 226.209884 17.941611 227.446964 17.029563 227.446964 16.011038 
C 227.446964 15.313342 226.855744 14.67729 225.72514 14.67729 
L 222.95537 14.67729 
C 222.784448 14.67729 222.703191 14.67729 222.703191 14.848212 
C 222.703191 14.937875 222.784448 14.937875 222.918944 14.937875 
C 223.465333 14.937875 223.465333 15.009326 223.465333 15.107396 
C 223.465333 15.125609 223.465333 15.178847 223.430308 15.313342 
L 222.219847 20.114556 
C 222.138589 20.425578 222.120376 20.515241 221.49273 20.515241 
C 221.323209 20.515241 221.233546 20.515241 221.233546 20.676356 
C 221.233546 20.774426 221.313402 20.774426 221.368041 20.774426 
C 221.537562 20.774426 221.716889 20.757614 221.887811 20.757614 
L 222.937157 20.757614 
C 223.106678 20.757614 223.295812 20.774426 223.465333 20.774426 
C 223.538184 20.774426 223.636254 20.774426 223.636254 20.604905 
C 223.636254 20.515241 223.554996 20.515241 223.420501 20.515241 
C 222.882518 20.515241 222.874112 20.452197 222.874112 20.363934 
C 222.874112 20.319102 222.882518 20.257458 222.892325 20.212626 
L 223.465333 17.941611 
z
M 224.111192 15.286723 
C 224.19245 14.956088 224.227475 14.937875 224.577724 14.937875 
L 225.465955 14.937875 
C 226.138434 14.937875 226.693228 15.152228 226.693228 15.823305 
C 226.693228 16.054469 226.576945 16.81521 226.165052 17.225702 
C 226.012344 17.386817 225.582238 17.725858 224.765457 17.725858 
L 223.501759 17.725858 
L 224.111192 15.286723 
z
M 231.049556 14.38168 
C 231.049556 14.373274 231.102794 14.238778 231.102794 14.220565 
C 231.102794 14.112688 231.01313 14.049644 230.941679 14.049644 
C 230.896848 14.049644 230.81559 14.049644 230.744139 14.247184 
L 227.740403 22.685385 
C 227.740403 22.693791 227.687165 22.828286 227.687165 22.846499 
C 227.687165 22.954376 227.776829 23.01602 227.84828 23.01602 
C 227.901518 23.01602 227.982775 23.007614 228.04582 22.81988 
L 231.049556 14.38168 
z
M 234.24565 17.941611 
L 235.753122 17.941611 
C 236.990202 17.941611 238.227281 17.029563 238.227281 16.011038 
C 238.227281 15.313342 237.636061 14.67729 236.505457 14.67729 
L 233.735687 14.67729 
C 233.564766 14.67729 233.483508 14.67729 233.483508 14.848212 
C 233.483508 14.937875 233.564766 14.937875 233.699261 14.937875 
C 234.24565 14.937875 234.24565 15.009326 234.24565 15.107396 
C 234.24565 15.125609 234.24565 15.178847 234.210625 15.313342 
L 233.000164 20.114556 
C 232.918907 20.425578 232.900694 20.515241 232.273047 20.515241 
C 232.103527 20.515241 232.013863 20.515241 232.013863 20.676356 
C 232.013863 20.774426 232.09372 20.774426 232.148359 20.774426 
C 232.317879 20.774426 232.497207 20.757614 232.668128 20.757614 
L 233.717474 20.757614 
C 233.886995 20.757614 234.076129 20.774426 234.24565 20.774426 
C 234.318502 20.774426 234.416572 20.774426 234.416572 20.604905 
C 234.416572 20.515241 234.335314 20.515241 234.200818 20.515241 
C 233.662836 20.515241 233.65443 20.452197 233.65443 20.363934 
C 233.65443 20.319102 233.662836 20.257458 233.672643 20.212626 
L 234.24565 17.941611 
z
M 234.891509 15.286723 
C 234.972767 14.956088 235.007792 14.937875 235.358041 14.937875 
L 236.246273 14.937875 
C 236.918751 14.937875 237.473545 15.152228 237.473545 15.823305 
C 237.473545 16.054469 237.357263 16.81521 236.94537 17.225702 
C 236.792661 17.386817 236.362555 17.725858 235.545775 17.725858 
L 234.282076 17.725858 
L 234.891509 15.286723 
z
M 240.196507 14.811924 
C 240.202391 14.722681 240.202391 14.570673 240.039596 14.570673 
C 239.939565 14.570673 239.857187 14.653052 239.876801 14.73543 
L 239.876801 14.818789 
L 239.964083 15.814192 
L 239.160895 15.21695 
C 239.104015 15.184587 239.092246 15.171838 239.048115 15.171838 
C 238.959853 15.171838 238.878455 15.262062 238.878455 15.351305 
C 238.878455 15.454278 238.94122 15.479776 239.003984 15.512139 
L 239.895434 15.948547 
L 239.029482 16.379071 
C 238.928471 16.430067 238.878455 16.456546 238.878455 16.552654 
C 238.878455 16.648762 238.959853 16.732121 239.048115 16.732121 
C 239.092246 16.732121 239.104015 16.732121 239.260926 16.610515 
L 239.964083 16.089767 
L 239.869936 17.168529 
C 239.869936 17.300923 239.982716 17.332305 240.033712 17.332305 
C 240.108244 17.332305 240.202391 17.289155 240.202391 17.168529 
L 240.108244 16.089767 
L 240.912413 16.687009 
C 240.968312 16.719372 240.981061 16.732121 241.025193 16.732121 
C 241.112474 16.732121 241.194852 16.641897 241.194852 16.552654 
C 241.194852 16.456546 241.137972 16.424183 241.062459 16.385936 
C 240.685873 16.19274 240.673124 16.19274 240.177874 15.955412 
L 241.043826 15.524888 
C 241.143856 15.473892 241.194852 15.448394 241.194852 15.351305 
C 241.194852 15.255197 241.112474 15.171838 241.025193 15.171838 
C 240.981061 15.171838 240.968312 15.171838 240.811401 15.293444 
L 240.108244 15.814192 
L 240.196507 14.811924 
z
"/>
   </g>
   <g id="axes_2">
    <g id="patch_22">
     <path d="M 44.147988 46.648256 
L 107.471943 46.648256 
L 107.471943 3.127401 
L 44.147988 3.127401 
L 44.147988 46.648256 
z
" style="fill: none"/>
    </g>
    <g id="matplotlib.axis_3">
     <g id="xtick_6">
      <g id="line2d_26">
       <g>
        <use xlink:href="#mb581b48d01" x="74.953125" y="46.648256" style="stroke: #000000; stroke-width: 0.35"/>
       </g>
      </g>
      <g id="text_29">
       <!-- $\mathdefault{1}$ -->
       <g transform="translate(72.836033 56.183057) scale(0.08 -0.08)">
        <use xlink:href="#CMR17-31" transform="scale(0.996264)"/>
       </g>
      </g>
     </g>
    </g>
    <g id="matplotlib.axis_4">
     <g id="ytick_6">
      <g id="line2d_27">
       <g>
        <use xlink:href="#mc0f5be458e" x="44.147988" y="46.648256" style="stroke: #000000; stroke-width: 0.35"/>
       </g>
      </g>
      <g id="text_30">
       <!-- $\mathdefault{0.0}$ -->
       <g transform="translate(29.327299 49.415657) scale(0.08 -0.08)">
        <use xlink:href="#CMR17-30" transform="scale(0.996264)"/>
        <use xlink:href="#CMMI12-3a" transform="translate(45.690477 0) scale(0.996264)"/>
        <use xlink:href="#CMR17-30" transform="translate(72.787654 0) scale(0.996264)"/>
       </g>
      </g>
     </g>
     <g id="ytick_7">
      <g id="line2d_28">
       <g>
        <use xlink:href="#mc0f5be458e" x="44.147988" y="9.766175" style="stroke: #000000; stroke-width: 0.35"/>
       </g>
      </g>
      <g id="text_31">
       <!-- $\mathdefault{0.1}$ -->
       <g transform="translate(29.327299 12.533576) scale(0.08 -0.08)">
        <use xlink:href="#CMR17-30" transform="scale(0.996264)"/>
        <use xlink:href="#CMMI12-3a" transform="translate(45.690477 0) scale(0.996264)"/>
        <use xlink:href="#CMR17-31" transform="translate(72.787654 0) scale(0.996264)"/>
       </g>
      </g>
     </g>
    </g>
    <g id="line2d_29">
     <path d="M 44.136085 35.992894 
L 45.784152 34.138515 
L 47.766005 32.250572 
L 50.123368 30.319733 
L 52.897962 28.339588 
L 56.173235 26.281793 
L 59.990911 24.152621 
L 64.392711 21.956974 
L 69.462083 19.680957 
L 75.282473 17.316606 
L 81.895605 14.874569 
L 89.405786 12.342784 
L 97.875601 9.72627 
L 107.409358 7.018096 
L 107.492804 6.995338 
L 107.492804 6.995338 
" clip-path="url(#p9a8f02c545)" style="fill: none; stroke-dasharray: 0.75,1.2375; stroke-dashoffset: 0; stroke: #5e4fa2; stroke-width: 0.75; stroke-linecap: round"/>
    </g>
    <g id="line2d_30">
     <path d="M 44.136085 38.870529 
L 45.805014 37.412071 
L 47.870313 35.910426 
L 50.41543 34.341732 
L 53.523811 32.695154 
L 57.258039 30.975719 
L 61.722425 29.171983 
L 67.000413 27.286094 
L 73.196312 25.31466 
L 80.41443 23.257191 
L 88.759076 21.114803 
L 98.376279 18.880233 
L 107.492804 16.940019 
L 107.492804 16.940019 
" clip-path="url(#p9a8f02c545)" style="fill: none; stroke: #5e4fa2; stroke-width: 0.75; stroke-linecap: round"/>
    </g>
    <g id="line2d_31">
     <path d="M 44.136085 42.857577 
L 46.159661 41.964 
L 48.955117 40.985436 
L 52.689346 39.925316 
L 57.570964 38.780365 
L 63.850309 37.545457 
L 71.777722 36.221895 
L 81.645265 34.808084 
L 93.765863 33.303723 
L 107.492804 31.80927 
L 107.492804 31.80927 
" clip-path="url(#p9a8f02c545)" style="fill: none; stroke-dasharray: 2.775,1.2; stroke-dashoffset: 0; stroke: #5e4fa2; stroke-width: 0.75; stroke-linecap: round"/>
    </g>
    <g id="line2d_32">
     <path d="M 44.136085 45.142637 
L 47.348773 44.604424 
L 52.522453 43.981299 
L 60.408143 43.271062 
L 71.902892 42.47268 
L 88.070642 41.584901 
L 107.492804 40.714354 
L 107.492804 40.714354 
" clip-path="url(#p9a8f02c545)" style="fill: none; stroke-dasharray: 5.25,5.25; stroke-dashoffset: 0; stroke: #5e4fa2; stroke-width: 0.75; stroke-linecap: round"/>
    </g>
    <g id="patch_23">
     <path d="M 44.147988 46.648256 
L 44.147988 3.127401 
" style="fill: none; stroke: #000000; stroke-width: 0.35; stroke-linejoin: miter; stroke-linecap: square"/>
    </g>
    <g id="patch_24">
     <path d="M 44.147988 46.648256 
L 107.471943 46.648256 
" style="fill: none; stroke: #000000; stroke-width: 0.35; stroke-linejoin: miter; stroke-linecap: square"/>
    </g>
    <g id="text_32">
     <g id="patch_25">
      <path d="M 89.587964 7.887578 
L 118.642066 7.887578 
Q 118.642066 7.887578 118.642066 7.887578 
L 118.642066 1.688625 
Q 118.642066 1.688625 118.642066 1.688625 
L 89.587964 1.688625 
Q 89.587964 1.688625 89.587964 1.688625 
L 89.587964 7.887578 
Q 89.587964 7.887578 89.587964 7.887578 
z
" style="fill: #ffffff"/>
     </g>
     <!-- $N_c = $ 15 -->
     <g style="fill: #5e4fa2" transform="translate(89.587964 6.531564) scale(0.07 -0.07)">
      <defs>
       <path id="CMMI12-4e" d="M 4736 3682 
C 4806 3956 4909 4147 5395 4166 
C 5414 4166 5491 4172 5491 4281 
C 5491 4352 5434 4352 5408 4352 
C 5280 4352 4954 4339 4826 4339 
L 4518 4339 
C 4429 4339 4314 4352 4224 4352 
C 4186 4352 4109 4352 4109 4230 
C 4109 4166 4160 4166 4205 4166 
C 4589 4153 4614 4007 4614 3892 
C 4614 3835 4608 3816 4589 3726 
L 3866 854 
L 2496 4243 
C 2451 4345 2445 4352 2304 4352 
L 1523 4352 
C 1395 4352 1338 4352 1338 4230 
C 1338 4166 1382 4166 1504 4166 
C 1536 4166 1914 4166 1914 4109 
C 1914 4096 1901 4045 1894 4026 
L 1043 650 
C 966 338 813 204 390 185 
C 358 185 294 179 294 64 
C 294 0 358 0 378 0 
C 506 0 832 12 960 12 
L 1267 12 
C 1357 12 1466 0 1555 0 
C 1600 0 1670 0 1670 121 
C 1670 179 1606 185 1581 185 
C 1370 191 1165 230 1165 459 
C 1165 510 1178 567 1190 618 
L 2054 4026 
C 2093 3962 2093 3949 2118 3892 
L 3642 115 
C 3674 38 3686 0 3744 0 
C 3808 0 3814 19 3840 128 
L 4736 3682 
z
" transform="scale(0.015625)"/>
       <path id="CMMI12-63" d="M 2502 2432 
C 2381 2432 2323 2432 2234 2355 
C 2195 2323 2125 2227 2125 2124 
C 2125 1996 2221 1919 2342 1919 
C 2496 1919 2669 2047 2669 2303 
C 2669 2591 2374 2816 1933 2816 
C 1094 2816 256 1932 256 1011 
C 256 446 602 -64 1254 -64 
C 2125 -64 2675 622 2675 706 
C 2675 745 2637 777 2611 777 
C 2592 777 2586 771 2528 712 
C 2118 161 1510 64 1267 64 
C 826 64 685 453 685 777 
C 685 1004 794 1634 1024 2073 
C 1190 2374 1536 2687 1939 2687 
C 2022 2687 2374 2676 2502 2432 
z
" transform="scale(0.015625)"/>
       <path id="CMR17-3d" d="M 4115 2048 
C 4211 2048 4307 2048 4307 2156 
C 4307 2272 4198 2272 4090 2272 
L 512 2272 
C 403 2272 294 2272 294 2156 
C 294 2048 390 2048 486 2048 
L 4115 2048 
z
M 4090 927 
C 4198 927 4307 927 4307 1043 
C 4307 1152 4211 1152 4115 1152 
L 486 1152 
C 390 1152 294 1152 294 1043 
C 294 927 403 927 512 927 
L 4090 927 
z
" transform="scale(0.015625)"/>
      </defs>
      <use xlink:href="#CMMI12-4e" transform="scale(0.996264)"/>
      <use xlink:href="#CMMI12-63" transform="translate(78.115119 -14.943915) scale(0.697382)"/>
      <use xlink:href="#CMR17-3d" transform="translate(135.675391 0) scale(0.996264)"/>
      <use xlink:href="#CMR17-31" transform="translate(237.466146 0) scale(0.996264)"/>
      <use xlink:href="#CMR17-35" transform="translate(283.156623 0) scale(0.996264)"/>
     </g>
    </g>
    <g id="text_33">
     <g id="patch_26">
      <path d="M 110.80928 20.043768 
L 118.751755 20.043768 
Q 118.751755 20.043768 118.751755 20.043768 
L 118.751755 13.844815 
Q 118.751755 13.844815 118.751755 13.844815 
L 110.80928 13.844815 
Q 110.80928 13.844815 110.80928 13.844815 
L 110.80928 20.043768 
Q 110.80928 20.043768 110.80928 20.043768 
z
" style="fill: #ffffff"/>
     </g>
     <!--  20 -->
     <g style="fill: #5e4fa2" transform="translate(110.80928 18.687754) scale(0.07 -0.07)">
      <use xlink:href="#CMR17-32" transform="scale(0.996264)"/>
      <use xlink:href="#CMR17-30" transform="translate(45.690477 0) scale(0.996264)"/>
     </g>
    </g>
    <g id="text_34">
     <g id="patch_27">
      <path d="M 110.80928 34.910885 
L 118.751755 34.910885 
Q 118.751755 34.910885 118.751755 34.910885 
L 118.751755 28.711933 
Q 118.751755 28.711933 118.751755 28.711933 
L 110.80928 28.711933 
Q 110.80928 28.711933 110.80928 28.711933 
L 110.80928 34.910885 
Q 110.80928 34.910885 110.80928 34.910885 
z
" style="fill: #ffffff"/>
     </g>
     <!--  40 -->
     <g style="fill: #5e4fa2" transform="translate(110.80928 33.554871) scale(0.07 -0.07)">
      <use xlink:href="#CMR17-34" transform="scale(0.996264)"/>
      <use xlink:href="#CMR17-30" transform="translate(45.690477 0) scale(0.996264)"/>
     </g>
    </g>
    <g id="text_35">
     <g id="patch_28">
      <path d="M 110.80928 43.814686 
L 122.722993 43.814686 
Q 122.722993 43.814686 122.722993 43.814686 
L 122.722993 37.615734 
Q 122.722993 37.615734 122.722993 37.615734 
L 110.80928 37.615734 
Q 110.80928 37.615734 110.80928 37.615734 
L 110.80928 43.814686 
Q 110.80928 43.814686 110.80928 43.814686 
z
" style="fill: #ffffff"/>
     </g>
     <!-- 100 -->
     <g style="fill: #5e4fa2" transform="translate(110.80928 42.458672) scale(0.07 -0.07)">
      <use xlink:href="#CMR17-31" transform="scale(0.996264)"/>
      <use xlink:href="#CMR17-30" transform="translate(45.690477 0) scale(0.996264)"/>
      <use xlink:href="#CMR17-30" transform="translate(91.380954 0) scale(0.996264)"/>
     </g>
    </g>
   </g>
  </g>
 </g>
 <defs>
  <clipPath id="p0454f62ddf">
   <rect x="25.150802" y="0.734661" width="218.158492" height="126.73804"/>
  </clipPath>
  <clipPath id="p9a8f02c545">
   <rect x="44.147988" y="3.127401" width="63.323955" height="43.520855"/>
  </clipPath>
 </defs>
</svg>
