<?xml version="1.0" encoding="utf-8" standalone="no"?>
<!DOCTYPE svg PUBLIC "-//W3C//DTD SVG 1.1//EN"
  "http://www.w3.org/Graphics/SVG/1.1/DTD/svg11.dtd">
<svg xmlns:xlink="http://www.w3.org/1999/xlink" width="244.170721pt" height="148.88736pt" viewBox="0 0 244.170721 148.88736" xmlns="http://www.w3.org/2000/svg" version="1.1">
 <metadata>
  <rdf:RDF xmlns:dc="http://purl.org/dc/elements/1.1/" xmlns:cc="http://creativecommons.org/ns#" xmlns:rdf="http://www.w3.org/1999/02/22-rdf-syntax-ns#">
   <cc:Work>
    <dc:type rdf:resource="http://purl.org/dc/dcmitype/StillImage"/>
    <dc:date>2026-01-11T17:08:31.821802</dc:date>
    <dc:format>image/svg+xml</dc:format>
    <dc:creator>
     <cc:Agent>
      <dc:title>Matplotlib v3.7.1, https://matplotlib.org/</dc:title>
     </cc:Agent>
    </dc:creator>
   </cc:Work>
  </rdf:RDF>
 </metadata>
 <defs>
  <style type="text/css">*{stroke-linejoin: round; stroke-linecap: butt}</style>
 </defs>
 <g id="figure_1">
  <g id="patch_1">
   <path d="M 0 148.88736 
L 244.170721 148.88736 
L 244.170721 0 
L 0 0 
L 0 148.88736 
z
" style="fill: none"/>
  </g>
  <g id="axes_1">
   <g id="patch_2">
    <path d="M 25.150802 127.4727 
L 243.309294 127.4727 
L 243.309294 0.36 
L 25.150802 0.36 
L 25.150802 127.4727 
z
" style="fill: none"/>
   </g>
   <g id="matplotlib.axis_1">
    <g id="xtick_1">
     <g id="line2d_1">
      <defs>
       <path id="me210f353ea" d="M 0 0 
L 0 2 
" style="stroke: #000000; stroke-width: 0.35"/>
      </defs>
      <g>
       <use xlink:href="#me210f353ea" x="25.150802" y="127.4727" style="stroke: #000000; stroke-width: 0.35"/>
      </g>
     </g>
     <g id="text_1">
      <!-- $\mathdefault{0.0}$ -->
      <g transform="translate(19.740457 137.007502) scale(0.08 -0.08)">
       <defs>
        <path id="CMR17-30" d="M 2688 2025 
C 2688 2416 2682 3080 2413 3591 
C 2176 4039 1798 4198 1466 4198 
C 1158 4198 768 4058 525 3597 
C 269 3118 243 2524 243 2025 
C 243 1661 250 1106 448 619 
C 723 -39 1216 -128 1466 -128 
C 1760 -128 2208 -7 2470 600 
C 2662 1042 2688 1559 2688 2025 
z
M 1466 -26 
C 1056 -26 813 325 723 812 
C 653 1188 653 1738 653 2096 
C 653 2588 653 2997 736 3387 
C 858 3929 1216 4096 1466 4096 
C 1728 4096 2067 3923 2189 3400 
C 2272 3036 2278 2607 2278 2096 
C 2278 1680 2278 1169 2202 792 
C 2067 95 1690 -26 1466 -26 
z
" transform="scale(0.015625)"/>
        <path id="CMMI12-3a" d="M 1178 307 
C 1178 492 1024 619 870 619 
C 685 619 557 466 557 313 
C 557 128 710 0 864 0 
C 1050 0 1178 153 1178 307 
z
" transform="scale(0.015625)"/>
       </defs>
       <use xlink:href="#CMR17-30" transform="scale(0.996264)"/>
       <use xlink:href="#CMMI12-3a" transform="translate(45.690477 0) scale(0.996264)"/>
       <use xlink:href="#CMR17-30" transform="translate(72.787654 0) scale(0.996264)"/>
      </g>
     </g>
    </g>
    <g id="xtick_2">
     <g id="line2d_2">
      <g>
       <use xlink:href="#me210f353ea" x="77.920764" y="127.4727" style="stroke: #000000; stroke-width: 0.35"/>
      </g>
     </g>
     <g id="text_2">
      <!-- $\mathdefault{0.5}$ -->
      <g transform="translate(72.510419 137.007502) scale(0.08 -0.08)">
       <defs>
        <path id="CMR17-35" d="M 730 3692 
C 794 3666 1056 3584 1325 3584 
C 1920 3584 2246 3911 2432 4100 
C 2432 4157 2432 4192 2394 4192 
C 2387 4192 2374 4192 2323 4163 
C 2099 4058 1837 3973 1517 3973 
C 1325 3973 1037 3999 723 4139 
C 653 4171 640 4171 634 4171 
C 602 4171 595 4164 595 4037 
L 595 2203 
C 595 2089 595 2057 659 2057 
C 691 2057 704 2070 736 2114 
C 941 2401 1222 2522 1542 2522 
C 1766 2522 2246 2382 2246 1289 
C 2246 1085 2246 715 2054 421 
C 1894 159 1645 25 1370 25 
C 947 25 518 320 403 814 
C 429 807 480 795 506 795 
C 589 795 749 840 749 1038 
C 749 1210 627 1280 506 1280 
C 358 1280 262 1190 262 1011 
C 262 454 704 -128 1382 -128 
C 2042 -128 2669 440 2669 1264 
C 2669 2030 2170 2624 1549 2624 
C 1222 2624 947 2503 730 2274 
L 730 3692 
z
" transform="scale(0.015625)"/>
       </defs>
       <use xlink:href="#CMR17-30" transform="scale(0.996264)"/>
       <use xlink:href="#CMMI12-3a" transform="translate(45.690477 0) scale(0.996264)"/>
       <use xlink:href="#CMR17-35" transform="translate(72.787654 0) scale(0.996264)"/>
      </g>
     </g>
    </g>
    <g id="xtick_3">
     <g id="line2d_3">
      <g>
       <use xlink:href="#me210f353ea" x="130.690726" y="127.4727" style="stroke: #000000; stroke-width: 0.35"/>
      </g>
     </g>
     <g id="text_3">
      <!-- $\mathdefault{1.0}$ -->
      <g transform="translate(125.280382 137.007502) scale(0.08 -0.08)">
       <defs>
        <path id="CMR17-31" d="M 1702 4058 
C 1702 4192 1696 4192 1606 4192 
C 1357 3916 979 3827 621 3827 
C 602 3827 570 3827 563 3808 
C 557 3795 557 3782 557 3648 
C 755 3648 1088 3686 1344 3839 
L 1344 461 
C 1344 236 1331 160 781 160 
L 589 160 
L 589 0 
C 896 0 1216 0 1523 0 
C 1830 0 2150 0 2458 0 
L 2458 160 
L 2266 160 
C 1715 160 1702 230 1702 458 
L 1702 4058 
z
" transform="scale(0.015625)"/>
       </defs>
       <use xlink:href="#CMR17-31" transform="scale(0.996264)"/>
       <use xlink:href="#CMMI12-3a" transform="translate(45.690477 0) scale(0.996264)"/>
       <use xlink:href="#CMR17-30" transform="translate(72.787654 0) scale(0.996264)"/>
      </g>
     </g>
    </g>
    <g id="xtick_4">
     <g id="line2d_4">
      <g>
       <use xlink:href="#me210f353ea" x="183.460689" y="127.4727" style="stroke: #000000; stroke-width: 0.35"/>
      </g>
     </g>
     <g id="text_4">
      <!-- $\mathdefault{1.5}$ -->
      <g transform="translate(178.050344 137.007502) scale(0.08 -0.08)">
       <use xlink:href="#CMR17-31" transform="scale(0.996264)"/>
       <use xlink:href="#CMMI12-3a" transform="translate(45.690477 0) scale(0.996264)"/>
       <use xlink:href="#CMR17-35" transform="translate(72.787654 0) scale(0.996264)"/>
      </g>
     </g>
    </g>
    <g id="xtick_5">
     <g id="line2d_5">
      <g>
       <use xlink:href="#me210f353ea" x="236.230651" y="127.4727" style="stroke: #000000; stroke-width: 0.35"/>
      </g>
     </g>
     <g id="text_5">
      <!-- $\mathdefault{2.0}$ -->
      <g transform="translate(230.820306 137.007502) scale(0.08 -0.08)">
       <defs>
        <path id="CMR17-32" d="M 2669 989 
L 2554 989 
C 2490 536 2438 459 2413 420 
C 2381 369 1920 369 1830 369 
L 602 369 
C 832 619 1280 1072 1824 1597 
C 2214 1967 2669 2402 2669 3035 
C 2669 3790 2067 4224 1395 4224 
C 691 4224 262 3604 262 3030 
C 262 2780 448 2748 525 2748 
C 589 2748 781 2787 781 3010 
C 781 3207 614 3264 525 3264 
C 486 3264 448 3258 422 3245 
C 544 3790 915 4058 1306 4058 
C 1862 4058 2227 3617 2227 3035 
C 2227 2479 1901 2000 1536 1584 
L 262 146 
L 262 0 
L 2515 0 
L 2669 989 
z
" transform="scale(0.015625)"/>
       </defs>
       <use xlink:href="#CMR17-32" transform="scale(0.996264)"/>
       <use xlink:href="#CMMI12-3a" transform="translate(45.690477 0) scale(0.996264)"/>
       <use xlink:href="#CMR17-30" transform="translate(72.787654 0) scale(0.996264)"/>
      </g>
     </g>
    </g>
    <g id="text_6">
     <!-- $T/T^\ast$ -->
     <g transform="translate(124.214718 146.534832) scale(0.08 -0.08)">
      <defs>
       <path id="CMMI12-54" d="M 2669 3910 
C 2707 4064 2720 4121 2816 4147 
C 2867 4160 3078 4160 3213 4160 
C 3853 4160 4154 4134 4154 3634 
C 4154 3537 4128 3295 4090 3057 
L 4083 2980 
C 4083 2954 4109 2916 4147 2916 
C 4211 2916 4211 2948 4230 3050 
L 4416 4184 
C 4429 4243 4429 4256 4429 4275 
C 4429 4345 4390 4345 4262 4345 
L 762 4345 
C 614 4345 608 4339 570 4224 
L 179 3070 
C 173 3056 154 2986 154 2980 
C 154 2948 179 2916 218 2916 
C 269 2916 282 2941 307 3024 
C 576 3801 710 4160 1562 4160 
L 1990 4160 
C 2144 4160 2208 4160 2208 4089 
C 2208 4069 2208 4057 2176 3941 
L 1318 499 
C 1254 249 1242 185 563 185 
C 403 185 358 185 358 64 
C 358 0 429 0 461 0 
C 621 0 787 0 947 0 
L 1946 0 
C 2106 0 2278 0 2438 0 
C 2509 0 2573 0 2573 121 
C 2573 185 2528 185 2362 185 
C 1786 185 1786 243 1786 339 
C 1786 346 1786 391 1811 494 
L 2669 3910 
z
" transform="scale(0.015625)"/>
       <path id="CMMI12-3d" d="M 2746 4562 
C 2746 4569 2784 4666 2784 4678 
C 2784 4755 2720 4800 2669 4800 
C 2637 4800 2579 4800 2528 4659 
L 384 -1363 
C 384 -1370 346 -1465 346 -1478 
C 346 -1555 410 -1600 461 -1600 
C 499 -1600 557 -1593 602 -1459 
L 2746 4562 
z
" transform="scale(0.015625)"/>
       <path id="CMSY10-3" d="M 1760 2719 
C 1766 2808 1766 2962 1600 2962 
C 1498 2962 1414 2879 1434 2795 
L 1434 2712 
L 1523 1720 
L 704 2316 
C 646 2348 634 2360 589 2360 
C 499 2360 416 2271 416 2181 
C 416 2079 480 2053 544 2021 
L 1453 1586 
L 570 1158 
C 467 1107 416 1081 416 985 
C 416 889 499 806 589 806 
C 634 806 646 806 806 928 
L 1523 1446 
L 1427 371 
C 1427 236 1542 204 1594 204 
C 1670 204 1766 248 1766 371 
L 1670 1446 
L 2490 851 
C 2547 819 2560 806 2605 806 
C 2694 806 2778 896 2778 985 
C 2778 1081 2720 1113 2643 1152 
C 2259 1343 2246 1343 1741 1580 
L 2624 2008 
C 2726 2060 2778 2085 2778 2181 
C 2778 2277 2694 2360 2605 2360 
C 2560 2360 2547 2360 2387 2239 
L 1670 1720 
L 1760 2719 
z
" transform="scale(0.015625)"/>
      </defs>
      <use xlink:href="#CMMI12-54" transform="scale(0.996264)"/>
      <use xlink:href="#CMMI12-3d" transform="translate(68.013914 0) scale(0.996264)"/>
      <use xlink:href="#CMMI12-54" transform="translate(116.788833 0) scale(0.996264)"/>
      <use xlink:href="#CMSY10-3" transform="translate(187.512465 36.153639) scale(0.697382)"/>
     </g>
    </g>
   </g>
   <g id="matplotlib.axis_2">
    <g id="ytick_1">
     <g id="line2d_6">
      <defs>
       <path id="m29d4ab833a" d="M 0 0 
L -2 0 
" style="stroke: #000000; stroke-width: 0.35"/>
      </defs>
      <g>
       <use xlink:href="#m29d4ab833a" x="25.150802" y="127.4727" style="stroke: #000000; stroke-width: 0.35"/>
      </g>
     </g>
     <g id="text_7">
      <!-- $\mathdefault{0.0}$ -->
      <g transform="translate(10.330112 130.240101) scale(0.08 -0.08)">
       <use xlink:href="#CMR17-30" transform="scale(0.996264)"/>
       <use xlink:href="#CMMI12-3a" transform="translate(45.690477 0) scale(0.996264)"/>
       <use xlink:href="#CMR17-30" transform="translate(72.787654 0) scale(0.996264)"/>
      </g>
     </g>
    </g>
    <g id="ytick_2">
     <g id="line2d_7">
      <g>
       <use xlink:href="#m29d4ab833a" x="25.150802" y="101.457073" style="stroke: #000000; stroke-width: 0.35"/>
      </g>
     </g>
     <g id="text_8">
      <!-- $\mathdefault{0.2}$ -->
      <g transform="translate(10.330112 104.224474) scale(0.08 -0.08)">
       <use xlink:href="#CMR17-30" transform="scale(0.996264)"/>
       <use xlink:href="#CMMI12-3a" transform="translate(45.690477 0) scale(0.996264)"/>
       <use xlink:href="#CMR17-32" transform="translate(72.787654 0) scale(0.996264)"/>
      </g>
     </g>
    </g>
    <g id="ytick_3">
     <g id="line2d_8">
      <g>
       <use xlink:href="#m29d4ab833a" x="25.150802" y="75.441446" style="stroke: #000000; stroke-width: 0.35"/>
      </g>
     </g>
     <g id="text_9">
      <!-- $\mathdefault{0.4}$ -->
      <g transform="translate(10.330112 78.208847) scale(0.08 -0.08)">
       <defs>
        <path id="CMR17-34" d="M 2150 4122 
C 2150 4256 2144 4256 2029 4256 
L 128 1254 
L 128 1088 
L 1779 1088 
L 1779 457 
C 1779 224 1766 160 1318 160 
L 1197 160 
L 1197 0 
C 1402 0 1747 0 1965 0 
C 2182 0 2528 0 2733 0 
L 2733 160 
L 2611 160 
C 2163 160 2150 224 2150 457 
L 2150 1088 
L 2803 1088 
L 2803 1254 
L 2150 1254 
L 2150 4122 
z
M 1798 3703 
L 1798 1254 
L 256 1254 
L 1798 3703 
z
" transform="scale(0.015625)"/>
       </defs>
       <use xlink:href="#CMR17-30" transform="scale(0.996264)"/>
       <use xlink:href="#CMMI12-3a" transform="translate(45.690477 0) scale(0.996264)"/>
       <use xlink:href="#CMR17-34" transform="translate(72.787654 0) scale(0.996264)"/>
      </g>
     </g>
    </g>
    <g id="ytick_4">
     <g id="line2d_9">
      <g>
       <use xlink:href="#m29d4ab833a" x="25.150802" y="49.425819" style="stroke: #000000; stroke-width: 0.35"/>
      </g>
     </g>
     <g id="text_10">
      <!-- $\mathdefault{0.6}$ -->
      <g transform="translate(10.330112 52.19322) scale(0.08 -0.08)">
       <defs>
        <path id="CMR17-36" d="M 678 2176 
C 678 3690 1395 4032 1811 4032 
C 1946 4032 2272 4009 2400 3776 
C 2298 3776 2106 3776 2106 3553 
C 2106 3381 2246 3323 2336 3323 
C 2394 3323 2566 3348 2566 3560 
C 2566 3954 2246 4179 1805 4179 
C 1043 4179 243 3390 243 1984 
C 243 253 966 -128 1478 -128 
C 2099 -128 2688 427 2688 1283 
C 2688 2081 2170 2662 1517 2662 
C 1126 2662 838 2407 678 1960 
L 678 2176 
z
M 1478 25 
C 691 25 691 1200 691 1436 
C 691 1896 909 2560 1504 2560 
C 1613 2560 1926 2560 2138 2120 
C 2253 1870 2253 1609 2253 1289 
C 2253 944 2253 690 2118 434 
C 1978 171 1773 25 1478 25 
z
" transform="scale(0.015625)"/>
       </defs>
       <use xlink:href="#CMR17-30" transform="scale(0.996264)"/>
       <use xlink:href="#CMMI12-3a" transform="translate(45.690477 0) scale(0.996264)"/>
       <use xlink:href="#CMR17-36" transform="translate(72.787654 0) scale(0.996264)"/>
      </g>
     </g>
    </g>
    <g id="ytick_5">
     <g id="line2d_10">
      <g>
       <use xlink:href="#m29d4ab833a" x="25.150802" y="23.410192" style="stroke: #000000; stroke-width: 0.35"/>
      </g>
     </g>
     <g id="text_11">
      <!-- $\mathdefault{0.8}$ -->
      <g transform="translate(10.330112 26.177593) scale(0.08 -0.08)">
       <defs>
        <path id="CMR17-38" d="M 1741 2264 
C 2144 2467 2554 2773 2554 3263 
C 2554 3841 1990 4179 1472 4179 
C 890 4179 378 3759 378 3180 
C 378 3021 416 2747 666 2505 
C 730 2442 998 2251 1171 2130 
C 883 1983 211 1634 211 934 
C 211 279 838 -128 1459 -128 
C 2144 -128 2720 362 2720 1010 
C 2720 1590 2330 1857 2074 2029 
L 1741 2264 
z
M 902 2822 
C 851 2854 595 3051 595 3351 
C 595 3739 998 4032 1459 4032 
C 1965 4032 2336 3676 2336 3262 
C 2336 2669 1670 2331 1638 2331 
C 1632 2331 1626 2331 1574 2370 
L 902 2822 
z
M 2080 1519 
C 2176 1449 2483 1240 2483 851 
C 2483 381 2010 25 1472 25 
C 890 25 448 438 448 940 
C 448 1443 838 1862 1280 2060 
L 2080 1519 
z
" transform="scale(0.015625)"/>
       </defs>
       <use xlink:href="#CMR17-30" transform="scale(0.996264)"/>
       <use xlink:href="#CMMI12-3a" transform="translate(45.690477 0) scale(0.996264)"/>
       <use xlink:href="#CMR17-38" transform="translate(72.787654 0) scale(0.996264)"/>
      </g>
     </g>
    </g>
    <g id="text_12">
     <!-- $v_s/v^\ast$ -->
     <g transform="translate(6.337584 74.205388) rotate(-90) scale(0.08 -0.08)">
      <defs>
       <path id="CMMI12-76" d="M 2925 2389 
C 2925 2791 2720 2816 2669 2816 
C 2515 2816 2374 2663 2374 2535 
C 2374 2459 2419 2414 2445 2389 
C 2509 2331 2675 2159 2675 1827 
C 2675 1558 2291 64 1523 64 
C 1133 64 1056 390 1056 626 
C 1056 945 1203 1392 1376 1852 
C 1478 2114 1504 2178 1504 2305 
C 1504 2574 1312 2816 998 2816 
C 410 2816 173 1890 173 1839 
C 173 1814 198 1782 243 1782 
C 301 1782 307 1807 333 1897 
C 486 2446 736 2689 979 2689 
C 1037 2689 1146 2689 1146 2478 
C 1146 2312 1075 2127 979 1884 
C 672 1067 672 869 672 715 
C 672 575 691 313 890 134 
C 1120 -64 1440 -64 1498 -64 
C 2560 -64 2925 2024 2925 2389 
z
" transform="scale(0.015625)"/>
       <path id="CMMI12-73" d="M 1459 1280 
C 1568 1261 1741 1223 1779 1216 
C 1862 1192 2150 1090 2150 783 
C 2150 586 1971 70 1229 70 
C 1094 70 614 70 486 436 
C 742 404 870 603 870 745 
C 870 880 781 950 653 950 
C 512 950 326 841 326 552 
C 326 173 710 -64 1222 -64 
C 2195 -64 2483 651 2483 984 
C 2483 1079 2483 1258 2278 1462 
C 2118 1616 1965 1648 1619 1718 
C 1446 1756 1171 1814 1171 2101 
C 1171 2229 1286 2689 1894 2689 
C 2163 2689 2426 2589 2490 2368 
C 2208 2368 2195 2125 2195 2119 
C 2195 1984 2317 1946 2374 1946 
C 2464 1946 2643 2015 2643 2281 
C 2643 2545 2400 2816 1901 2816 
C 1062 2816 838 2160 838 1899 
C 838 1414 1312 1312 1459 1280 
z
" transform="scale(0.015625)"/>
      </defs>
      <use xlink:href="#CMMI12-76" transform="scale(0.996264)"/>
      <use xlink:href="#CMMI12-73" transform="translate(47.160581 -14.943915) scale(0.697382)"/>
      <use xlink:href="#CMMI12-3d" transform="translate(79.823602 0) scale(0.996264)"/>
      <use xlink:href="#CMMI12-76" transform="translate(128.59852 0) scale(0.996264)"/>
      <use xlink:href="#CMSY10-3" transform="translate(179.333694 36.153639) scale(0.697382)"/>
     </g>
    </g>
   </g>
   <g id="line2d_11">
    <path d="M 25.311664 126.977535 
L 26.340874 126.832042 
L 29.299853 126.434196 
L 34.510229 125.988602 
L 43.580143 125.457349 
L 58.246386 124.839799 
L 80.631705 124.135533 
L 113.37345 123.341987 
L 159.494926 122.459214 
L 222.534043 121.486363 
L 243.311221 121.203579 
L 243.311221 121.203579 
" clip-path="url(#p88bb907fa0)" style="fill: none; stroke: #5e4fa2; stroke-linecap: round"/>
   </g>
   <g id="line2d_12">
    <path d="M 25.311664 125.690531 
L 27.048456 125.569668 
L 41.328746 123.594492 
L 50.848939 122.725679 
L 63.842716 121.774651 
L 81.274961 120.732607 
L 104.11056 119.600653 
L 133.443046 118.37865 
L 170.494609 117.066114 
L 216.68041 115.660626 
L 243.311221 114.932191 
L 243.311221 114.932191 
" clip-path="url(#p88bb907fa0)" style="fill: none; stroke: #3f77b5; stroke-linecap: round"/>
   </g>
   <g id="line2d_13">
    <path d="M 25.311664 123.697391 
L 28.077666 123.575239 
L 30.586366 123.213683 
L 42.615258 121.259189 
L 51.492195 120.125109 
L 62.74918 118.920631 
L 76.965144 117.632357 
L 94.719018 116.255675 
L 116.589732 114.790886 
L 143.220542 113.237235 
L 175.383357 111.590506 
L 213.785757 109.853258 
L 243.311221 108.642278 
L 243.311221 108.642278 
" clip-path="url(#p88bb907fa0)" style="fill: none; stroke: #47a0b3; stroke-linecap: round"/>
   </g>
   <g id="line2d_14">
    <path d="M 25.311664 121.044932 
L 29.106876 120.923633 
L 31.937204 120.615325 
L 36.632975 119.829831 
L 48.340239 117.857423 
L 58.503689 116.397649 
L 70.596907 114.892743 
L 85.134499 113.31504 
L 102.566744 111.653985 
L 123.343923 109.904616 
L 147.851987 108.070239 
L 176.669869 106.142215 
L 210.247848 104.124108 
L 243.311221 102.31752 
L 243.311221 102.31752 
" clip-path="url(#p88bb907fa0)" style="fill: none; stroke: #6ec5a5; stroke-linecap: round"/>
   </g>
   <g id="line2d_15">
    <path d="M 25.311664 117.764653 
L 30.07176 117.645689 
L 33.60967 117.349151 
L 37.662185 116.766377 
L 47.632657 115.018851 
L 59.597224 113.039863 
L 71.947745 111.231452 
L 86.035058 109.399085 
L 102.438093 107.495624 
L 121.478479 105.515502 
L 143.54217 103.449871 
L 169.015119 101.293947 
L 198.218955 99.050449 
L 231.603956 96.713746 
L 243.311221 95.941399 
L 243.311221 95.941399 
" clip-path="url(#p88bb907fa0)" style="fill: none; stroke: #a2d9a4; stroke-linecap: round"/>
   </g>
   <g id="line2d_16">
    <path d="M 25.311664 113.880681 
L 30.972319 113.764382 
L 35.410788 113.466998 
L 39.656279 112.949705 
L 45.83154 111.946285 
L 73.234258 107.287969 
L 87.707524 105.146434 
L 103.917583 102.978212 
L 122.250387 100.755032 
L 143.091891 98.455985 
L 166.763722 96.07295 
L 193.58751 93.600874 
L 223.820555 91.0423 
L 243.311221 89.497068 
L 243.311221 89.497068 
" clip-path="url(#p88bb907fa0)" style="fill: none; stroke: #cdeb9d; stroke-linecap: round"/>
   </g>
   <g id="line2d_17">
    <path d="M 25.311664 109.412716 
L 31.872878 109.297313 
L 37.276231 108.995566 
L 41.972002 108.508048 
L 47.696983 107.673898 
L 57.538804 105.975722 
L 79.538169 102.172442 
L 95.490925 99.665706 
L 112.665868 97.195576 
L 131.706254 94.685712 
L 152.998038 92.107994 
L 176.79852 89.455209 
L 203.365005 86.722102 
L 232.954795 83.905245 
L 243.311221 82.967218 
L 243.311221 82.967218 
" clip-path="url(#p88bb907fa0)" style="fill: none; stroke: #edf8a3; stroke-linecap: round"/>
   </g>
   <g id="line2d_18">
    <path d="M 25.311664 104.377492 
L 32.773437 104.262191 
L 39.206 103.952143 
L 44.545027 103.471709 
L 50.334334 102.717467 
L 58.246386 101.443558 
L 79.859797 97.631299 
L 98.385579 94.518516 
L 116.589732 91.689944 
L 136.080397 88.889969 
L 157.436506 86.050321 
L 180.979686 83.148072 
L 206.96724 80.172352 
L 235.656471 77.114918 
L 243.311221 76.333959 
L 243.311221 76.333959 
" clip-path="url(#p88bb907fa0)" style="fill: none; stroke: #fffebe; stroke-linecap: round"/>
   </g>
   <g id="line2d_19">
    <path d="M 25.311664 98.789613 
L 33.673996 98.674017 
L 41.135769 98.356317 
L 47.182378 97.879658 
L 53.293313 97.167729 
L 60.755086 96.060723 
L 72.205048 94.108819 
L 110.478797 87.463267 
L 130.484067 84.279204 
L 151.518548 81.158962 
L 174.225495 78.018256 
L 198.990862 74.820838 
L 226.007627 71.560242 
L 243.311221 69.578701 
L 243.311221 69.578701 
" clip-path="url(#p88bb907fa0)" style="fill: none; stroke: #fee999; stroke-linecap: round"/>
   </g>
   <g id="line2d_20">
    <path d="M 25.311664 92.662087 
L 34.510229 92.547578 
L 42.936886 92.227687 
L 49.755403 91.755011 
L 56.316617 91.073083 
L 63.714064 90.070525 
L 73.427234 88.513328 
L 90.988131 85.429856 
L 120.577921 80.271037 
L 142.577286 76.675424 
L 165.155582 73.213295 
L 189.149041 69.762231 
L 214.943618 66.279553 
L 242.860941 62.737442 
L 243.311221 62.682048 
L 243.311221 62.682048 
" clip-path="url(#p88bb907fa0)" style="fill: none; stroke: #feca79; stroke-linecap: round"/>
   </g>
   <g id="line2d_21">
    <path d="M 25.311664 86.006672 
L 35.410788 85.891384 
L 44.80233 85.566719 
L 52.521405 85.08596 
L 59.597224 84.421622 
L 67.187648 83.478727 
L 76.386213 82.099461 
L 89.444316 79.895461 
L 153.126689 68.875257 
L 177.2488 65.056619 
L 202.464446 61.292194 
L 229.288234 57.515031 
L 243.311221 55.623703 
L 243.311221 55.623703 
" clip-path="url(#p88bb907fa0)" style="fill: none; stroke: #fca55d; stroke-linecap: round"/>
   </g>
   <g id="line2d_22">
    <path d="M 25.311664 78.834123 
L 36.247021 78.719349 
L 46.539122 78.393923 
L 55.223081 77.90532 
L 62.942157 77.2483 
L 70.854209 76.346754 
L 79.859797 75.089308 
L 91.438411 73.233839 
L 109.771215 70.041013 
L 155.828365 61.969685 
L 181.880245 57.668154 
L 208.189427 53.551032 
L 235.720797 49.469918 
L 243.311221 48.382393 
L 243.311221 48.382393 
" clip-path="url(#p88bb907fa0)" style="fill: none; stroke: #f57547; stroke-linecap: round"/>
   </g>
   <g id="line2d_23">
    <path d="M 25.311664 71.154374 
L 37.083254 71.039892 
L 48.275914 70.712931 
L 57.924758 70.217027 
L 66.351415 69.562628 
L 74.649421 68.69334 
L 83.783661 67.50634 
L 94.719018 65.85064 
L 109.578238 63.358261 
L 140.132912 57.94699 
L 174.16117 52.017488 
L 202.27147 47.348987 
L 230.446095 42.896554 
L 243.311221 40.935827 
L 243.311221 40.935827 
" clip-path="url(#p88bb907fa0)" style="fill: none; stroke: #e2514a; stroke-linecap: round"/>
   </g>
   <g id="line2d_24">
    <path d="M 25.311664 62.976672 
L 37.919487 62.862317 
L 50.012705 62.533355 
L 60.626434 62.030241 
L 69.760674 61.379386 
L 78.573285 60.528182 
L 87.900501 59.400031 
L 98.578555 57.877584 
L 111.958286 55.733455 
L 131.577603 52.341535 
L 201.885516 40.029859 
L 231.861259 35.088703 
L 243.311221 33.260686 
L 243.311221 33.260686 
" clip-path="url(#p88bb907fa0)" style="fill: none; stroke: #c52c4b; stroke-linecap: round"/>
   </g>
   <g id="line2d_25">
    <path d="M 25.311664 54.309682 
L 38.691395 54.196412 
L 51.685172 53.866307 
L 63.263785 53.357209 
L 73.234258 52.701413 
L 82.625799 51.860988 
L 92.274644 50.771964 
L 102.952698 49.338009 
L 115.624847 47.40386 
L 132.285185 44.621588 
L 160.459811 39.65502 
L 210.054871 30.931637 
L 242.603639 25.449269 
L 243.311221 25.332666 
L 243.311221 25.332666 
" clip-path="url(#p88bb907fa0)" style="fill: none; stroke: #9e0142; stroke-linecap: round"/>
   </g>
   <g id="patch_3">
    <path d="M 25.150802 127.4727 
L 25.150802 0.36 
" style="fill: none; stroke: #000000; stroke-width: 0.35; stroke-linejoin: miter; stroke-linecap: square"/>
   </g>
   <g id="patch_4">
    <path d="M 243.309294 127.4727 
L 243.309294 0.36 
" style="fill: none; stroke: #000000; stroke-width: 0.35; stroke-linejoin: miter; stroke-linecap: square"/>
   </g>
   <g id="patch_5">
    <path d="M 25.150802 127.4727 
L 243.309294 127.4727 
" style="fill: none; stroke: #000000; stroke-width: 0.35; stroke-linejoin: miter; stroke-linecap: square"/>
   </g>
   <g id="patch_6">
    <path d="M 25.150802 0.36 
L 243.309294 0.36 
" style="fill: none; stroke: #000000; stroke-width: 0.35; stroke-linejoin: miter; stroke-linecap: square"/>
   </g>
   <g id="text_13">
    <g id="patch_7">
     <path d="M 220.762782 124.456305 
L 230.9607 124.456305 
Q 230.9607 124.456305 230.9607 124.456305 
L 230.9607 118.257352 
Q 230.9607 118.257352 230.9607 118.257352 
L 220.762782 118.257352 
Q 220.762782 118.257352 220.762782 118.257352 
L 220.762782 124.456305 
Q 220.762782 124.456305 220.762782 124.456305 
z
" style="fill: #ffffff"/>
    </g>
    <!-- 0.1 -->
    <g style="fill: #5e4fa2" transform="translate(220.762782 123.10029) scale(0.07 -0.07)">
     <defs>
      <path id="CMR17-2e" d="M 1062 261 
C 1062 420 934 522 800 522 
C 672 522 538 420 538 261 
C 538 102 666 0 800 0 
C 928 0 1062 102 1062 261 
z
" transform="scale(0.015625)"/>
     </defs>
     <use xlink:href="#CMR17-30" transform="scale(0.996264)"/>
     <use xlink:href="#CMR17-2e" transform="translate(45.690477 0) scale(0.996264)"/>
     <use xlink:href="#CMR17-31" transform="translate(70.561536 0) scale(0.996264)"/>
    </g>
   </g>
   <g id="text_14">
    <g id="patch_8">
     <path d="M 220.762782 118.350202 
L 230.9607 118.350202 
Q 230.9607 118.350202 230.9607 118.350202 
L 230.9607 112.15125 
Q 230.9607 112.15125 230.9607 112.15125 
L 220.762782 112.15125 
Q 220.762782 112.15125 220.762782 112.15125 
L 220.762782 118.350202 
Q 220.762782 118.350202 220.762782 118.350202 
z
" style="fill: #ffffff"/>
    </g>
    <!-- 0.2 -->
    <g style="fill: #3f77b5" transform="translate(220.762782 116.994188) scale(0.07 -0.07)">
     <use xlink:href="#CMR17-30" transform="scale(0.996264)"/>
     <use xlink:href="#CMR17-2e" transform="translate(45.690477 0) scale(0.996264)"/>
     <use xlink:href="#CMR17-32" transform="translate(70.561536 0) scale(0.996264)"/>
    </g>
   </g>
   <g id="text_15">
    <g id="patch_9">
     <path d="M 220.762782 112.224002 
L 230.9607 112.224002 
Q 230.9607 112.224002 230.9607 112.224002 
L 230.9607 106.025049 
Q 230.9607 106.025049 230.9607 106.025049 
L 220.762782 106.025049 
Q 220.762782 106.025049 220.762782 106.025049 
L 220.762782 112.224002 
Q 220.762782 112.224002 220.762782 112.224002 
z
" style="fill: #ffffff"/>
    </g>
    <!-- 0.3 -->
    <g style="fill: #47a0b3" transform="translate(220.762782 110.867988) scale(0.07 -0.07)">
     <defs>
      <path id="CMR17-33" d="M 1414 2157 
C 1984 2157 2234 1662 2234 1090 
C 2234 320 1824 25 1453 25 
C 1114 25 563 194 390 693 
C 422 680 454 680 486 680 
C 640 680 755 782 755 948 
C 755 1133 614 1216 486 1216 
C 378 1216 211 1165 211 926 
C 211 335 787 -128 1466 -128 
C 2176 -128 2720 430 2720 1085 
C 2720 1707 2208 2157 1600 2227 
C 2086 2328 2554 2756 2554 3329 
C 2554 3820 2048 4179 1472 4179 
C 890 4179 378 3829 378 3329 
C 378 3110 544 3072 627 3072 
C 762 3072 877 3155 877 3321 
C 877 3486 762 3569 627 3569 
C 602 3569 570 3569 544 3557 
C 730 3959 1235 4032 1459 4032 
C 1683 4032 2106 3925 2106 3320 
C 2106 3143 2080 2828 1862 2550 
C 1670 2304 1453 2304 1242 2284 
C 1210 2284 1062 2269 1037 2269 
C 992 2263 966 2257 966 2208 
C 966 2163 973 2157 1101 2157 
L 1414 2157 
z
" transform="scale(0.015625)"/>
     </defs>
     <use xlink:href="#CMR17-30" transform="scale(0.996264)"/>
     <use xlink:href="#CMR17-2e" transform="translate(45.690477 0) scale(0.996264)"/>
     <use xlink:href="#CMR17-33" transform="translate(70.561536 0) scale(0.996264)"/>
    </g>
   </g>
   <g id="text_16">
    <g id="patch_10">
     <path d="M 220.762782 106.060761 
L 230.9607 106.060761 
Q 230.9607 106.060761 230.9607 106.060761 
L 230.9607 99.861808 
Q 230.9607 99.861808 230.9607 99.861808 
L 220.762782 99.861808 
Q 220.762782 99.861808 220.762782 99.861808 
L 220.762782 106.060761 
Q 220.762782 106.060761 220.762782 106.060761 
z
" style="fill: #ffffff"/>
    </g>
    <!-- 0.4 -->
    <g style="fill: #6ec5a5" transform="translate(220.762782 104.704746) scale(0.07 -0.07)">
     <use xlink:href="#CMR17-30" transform="scale(0.996264)"/>
     <use xlink:href="#CMR17-2e" transform="translate(45.690477 0) scale(0.996264)"/>
     <use xlink:href="#CMR17-34" transform="translate(70.561536 0) scale(0.996264)"/>
    </g>
   </g>
   <g id="text_17">
    <g id="patch_11">
     <path d="M 220.762782 99.843302 
L 230.9607 99.843302 
Q 230.9607 99.843302 230.9607 99.843302 
L 230.9607 93.64435 
Q 230.9607 93.64435 230.9607 93.64435 
L 220.762782 93.64435 
Q 220.762782 93.64435 220.762782 93.64435 
L 220.762782 99.843302 
Q 220.762782 99.843302 220.762782 99.843302 
z
" style="fill: #ffffff"/>
    </g>
    <!-- 0.5 -->
    <g style="fill: #a2d9a4" transform="translate(220.762782 98.487288) scale(0.07 -0.07)">
     <use xlink:href="#CMR17-30" transform="scale(0.996264)"/>
     <use xlink:href="#CMR17-2e" transform="translate(45.690477 0) scale(0.996264)"/>
     <use xlink:href="#CMR17-35" transform="translate(70.561536 0) scale(0.996264)"/>
    </g>
   </g>
   <g id="text_18">
    <g id="patch_12">
     <path d="M 220.762782 93.554072 
L 230.9607 93.554072 
Q 230.9607 93.554072 230.9607 93.554072 
L 230.9607 87.35512 
Q 230.9607 87.35512 230.9607 87.35512 
L 220.762782 87.35512 
Q 220.762782 87.35512 220.762782 87.35512 
L 220.762782 93.554072 
Q 220.762782 93.554072 220.762782 93.554072 
z
" style="fill: #ffffff"/>
    </g>
    <!-- 0.6 -->
    <g style="fill: #cdeb9d" transform="translate(220.762782 92.198058) scale(0.07 -0.07)">
     <use xlink:href="#CMR17-30" transform="scale(0.996264)"/>
     <use xlink:href="#CMR17-2e" transform="translate(45.690477 0) scale(0.996264)"/>
     <use xlink:href="#CMR17-36" transform="translate(70.561536 0) scale(0.996264)"/>
    </g>
   </g>
   <g id="text_19">
    <g id="patch_13">
     <path d="M 220.762782 87.174993 
L 230.9607 87.174993 
Q 230.9607 87.174993 230.9607 87.174993 
L 230.9607 80.97604 
Q 230.9607 80.97604 230.9607 80.97604 
L 220.762782 80.97604 
Q 220.762782 80.97604 220.762782 80.97604 
L 220.762782 87.174993 
Q 220.762782 87.174993 220.762782 87.174993 
z
" style="fill: #ffffff"/>
    </g>
    <!-- 0.7 -->
    <g style="fill: #edf8a3" transform="translate(220.762782 85.818979) scale(0.07 -0.07)">
     <defs>
      <path id="CMR17-37" d="M 2886 3941 
L 2886 4081 
L 1382 4081 
C 634 4081 621 4165 595 4288 
L 480 4288 
L 294 3094 
L 410 3094 
C 429 3215 474 3540 550 3661 
C 589 3712 1062 3712 1171 3712 
L 2579 3712 
L 1869 2661 
C 1395 1954 1069 999 1069 165 
C 1069 89 1069 -128 1299 -128 
C 1530 -128 1530 89 1530 171 
L 1530 465 
C 1530 1508 1709 2196 2003 2636 
L 2886 3941 
z
" transform="scale(0.015625)"/>
     </defs>
     <use xlink:href="#CMR17-30" transform="scale(0.996264)"/>
     <use xlink:href="#CMR17-2e" transform="translate(45.690477 0) scale(0.996264)"/>
     <use xlink:href="#CMR17-37" transform="translate(70.561536 0) scale(0.996264)"/>
    </g>
   </g>
   <g id="text_20">
    <g id="patch_14">
     <path d="M 220.762782 80.687332 
L 230.9607 80.687332 
Q 230.9607 80.687332 230.9607 80.687332 
L 230.9607 74.488379 
Q 230.9607 74.488379 230.9607 74.488379 
L 220.762782 74.488379 
Q 220.762782 74.488379 220.762782 74.488379 
L 220.762782 80.687332 
Q 220.762782 80.687332 220.762782 80.687332 
z
" style="fill: #ffffff"/>
    </g>
    <!-- 0.8 -->
    <g style="fill: #fffebe" transform="translate(220.762782 79.331318) scale(0.07 -0.07)">
     <use xlink:href="#CMR17-30" transform="scale(0.996264)"/>
     <use xlink:href="#CMR17-2e" transform="translate(45.690477 0) scale(0.996264)"/>
     <use xlink:href="#CMR17-38" transform="translate(70.561536 0) scale(0.996264)"/>
    </g>
   </g>
   <g id="text_21">
    <g id="patch_15">
     <path d="M 220.762782 74.071571 
L 230.9607 74.071571 
Q 230.9607 74.071571 230.9607 74.071571 
L 230.9607 67.872619 
Q 230.9607 67.872619 230.9607 67.872619 
L 220.762782 67.872619 
Q 220.762782 67.872619 220.762782 67.872619 
L 220.762782 74.071571 
Q 220.762782 74.071571 220.762782 74.071571 
z
" style="fill: #ffffff"/>
    </g>
    <!-- 0.9 -->
    <g style="fill: #fee999" transform="translate(220.762782 72.715557) scale(0.07 -0.07)">
     <defs>
      <path id="CMR17-39" d="M 2253 1864 
C 2253 464 1670 31 1190 31 
C 1043 31 685 31 538 294 
C 704 268 826 357 826 518 
C 826 692 685 749 595 749 
C 538 749 365 723 365 506 
C 365 71 742 -128 1203 -128 
C 1939 -128 2688 674 2688 2073 
C 2688 3817 1971 4179 1485 4179 
C 851 4179 243 3628 243 2778 
C 243 1991 762 1408 1414 1408 
C 1952 1408 2189 1903 2253 2112 
L 2253 1864 
z
M 1427 1510 
C 1254 1510 1011 1542 813 1922 
C 678 2169 678 2461 678 2771 
C 678 3146 678 3405 858 3684 
C 947 3817 1114 4032 1485 4032 
C 2240 4032 2240 2885 2240 2632 
C 2240 2182 2035 1510 1427 1510 
z
" transform="scale(0.015625)"/>
     </defs>
     <use xlink:href="#CMR17-30" transform="scale(0.996264)"/>
     <use xlink:href="#CMR17-2e" transform="translate(45.690477 0) scale(0.996264)"/>
     <use xlink:href="#CMR17-39" transform="translate(70.561536 0) scale(0.996264)"/>
    </g>
   </g>
   <g id="text_22">
    <g id="patch_16">
     <path d="M 220.762782 67.307292 
L 230.9607 67.307292 
Q 230.9607 67.307292 230.9607 67.307292 
L 230.9607 61.108339 
Q 230.9607 61.108339 230.9607 61.108339 
L 220.762782 61.108339 
Q 220.762782 61.108339 220.762782 61.108339 
L 220.762782 67.307292 
Q 220.762782 67.307292 220.762782 67.307292 
z
" style="fill: #ffffff"/>
    </g>
    <!-- 1.0 -->
    <g style="fill: #feca79" transform="translate(220.762782 65.951278) scale(0.07 -0.07)">
     <use xlink:href="#CMR17-31" transform="scale(0.996264)"/>
     <use xlink:href="#CMR17-2e" transform="translate(45.690477 0) scale(0.996264)"/>
     <use xlink:href="#CMR17-30" transform="translate(70.561536 0) scale(0.996264)"/>
    </g>
   </g>
   <g id="text_23">
    <g id="patch_17">
     <path d="M 220.762782 60.373075 
L 230.9607 60.373075 
Q 230.9607 60.373075 230.9607 60.373075 
L 230.9607 54.174123 
Q 230.9607 54.174123 230.9607 54.174123 
L 220.762782 54.174123 
Q 220.762782 54.174123 220.762782 54.174123 
L 220.762782 60.373075 
Q 220.762782 60.373075 220.762782 60.373075 
z
" style="fill: #ffffff"/>
    </g>
    <!-- 1.1 -->
    <g style="fill: #fca55d" transform="translate(220.762782 59.017061) scale(0.07 -0.07)">
     <use xlink:href="#CMR17-31" transform="scale(0.996264)"/>
     <use xlink:href="#CMR17-2e" transform="translate(45.690477 0) scale(0.996264)"/>
     <use xlink:href="#CMR17-31" transform="translate(70.561536 0) scale(0.996264)"/>
    </g>
   </g>
   <g id="text_24">
    <g id="patch_18">
     <path d="M 220.762782 53.246429 
L 230.9607 53.246429 
Q 230.9607 53.246429 230.9607 53.246429 
L 230.9607 47.047476 
Q 230.9607 47.047476 230.9607 47.047476 
L 220.762782 47.047476 
Q 220.762782 47.047476 220.762782 47.047476 
L 220.762782 53.246429 
Q 220.762782 53.246429 220.762782 53.246429 
z
" style="fill: #ffffff"/>
    </g>
    <!-- 1.2 -->
    <g style="fill: #f57547" transform="translate(220.762782 51.890414) scale(0.07 -0.07)">
     <use xlink:href="#CMR17-31" transform="scale(0.996264)"/>
     <use xlink:href="#CMR17-2e" transform="translate(45.690477 0) scale(0.996264)"/>
     <use xlink:href="#CMR17-32" transform="translate(70.561536 0) scale(0.996264)"/>
    </g>
   </g>
   <g id="text_25">
    <g id="patch_19">
     <path d="M 220.762782 45.903748 
L 230.9607 45.903748 
Q 230.9607 45.903748 230.9607 45.903748 
L 230.9607 39.704796 
Q 230.9607 39.704796 230.9607 39.704796 
L 220.762782 39.704796 
Q 220.762782 39.704796 220.762782 39.704796 
L 220.762782 45.903748 
Q 220.762782 45.903748 220.762782 45.903748 
z
" style="fill: #ffffff"/>
    </g>
    <!-- 1.3 -->
    <g style="fill: #e2514a" transform="translate(220.762782 44.547734) scale(0.07 -0.07)">
     <use xlink:href="#CMR17-31" transform="scale(0.996264)"/>
     <use xlink:href="#CMR17-2e" transform="translate(45.690477 0) scale(0.996264)"/>
     <use xlink:href="#CMR17-33" transform="translate(70.561536 0) scale(0.996264)"/>
    </g>
   </g>
   <g id="text_26">
    <g id="patch_20">
     <path d="M 220.762782 38.320327 
L 230.9607 38.320327 
Q 230.9607 38.320327 230.9607 38.320327 
L 230.9607 32.121374 
Q 230.9607 32.121374 230.9607 32.121374 
L 220.762782 32.121374 
Q 220.762782 32.121374 220.762782 32.121374 
L 220.762782 38.320327 
Q 220.762782 38.320327 220.762782 38.320327 
z
" style="fill: #ffffff"/>
    </g>
    <!-- 1.4 -->
    <g style="fill: #c52c4b" transform="translate(220.762782 36.964313) scale(0.07 -0.07)">
     <use xlink:href="#CMR17-31" transform="scale(0.996264)"/>
     <use xlink:href="#CMR17-2e" transform="translate(45.690477 0) scale(0.996264)"/>
     <use xlink:href="#CMR17-34" transform="translate(70.561536 0) scale(0.996264)"/>
    </g>
   </g>
   <g id="text_27">
    <g id="patch_21">
     <path d="M 220.762782 30.470428 
L 230.9607 30.470428 
Q 230.9607 30.470428 230.9607 30.470428 
L 230.9607 24.271476 
Q 230.9607 24.271476 230.9607 24.271476 
L 220.762782 24.271476 
Q 220.762782 24.271476 220.762782 24.271476 
L 220.762782 30.470428 
Q 220.762782 30.470428 220.762782 30.470428 
z
" style="fill: #ffffff"/>
    </g>
    <!-- 1.5 -->
    <g style="fill: #9e0142" transform="translate(220.762782 29.114414) scale(0.07 -0.07)">
     <use xlink:href="#CMR17-31" transform="scale(0.996264)"/>
     <use xlink:href="#CMR17-2e" transform="translate(45.690477 0) scale(0.996264)"/>
     <use xlink:href="#CMR17-35" transform="translate(70.561536 0) scale(0.996264)"/>
    </g>
   </g>
   <g id="text_28">
    <path d="M 217.548871 15.091435 
C 217.47742 14.938727 217.442395 14.938727 217.369543 14.938727 
C 217.263068 14.938727 217.253261 14.95694 217.190216 15.083029 
L 214.285951 21.107313 
C 214.276144 21.125526 214.241119 21.206784 214.241119 21.21519 
C 214.241119 21.251616 214.249525 21.260022 214.410639 21.260022 
L 220.320042 21.260022 
C 220.481156 21.260022 220.490963 21.251616 220.490963 21.21519 
C 220.490963 21.206784 220.454537 21.125526 220.446131 21.107313 
L 217.548871 15.091435 
z
M 217.145384 15.602799 
L 219.62935 20.758465 
L 214.653012 20.758465 
L 217.145384 15.602799 
z
M 223.485333 18.425806 
L 224.992805 18.425806 
C 226.229884 18.425806 227.466964 17.515159 227.466964 16.495234 
C 227.466964 15.798938 226.875744 15.162886 225.74514 15.162886 
L 222.97537 15.162886 
C 222.804448 15.162886 222.723191 15.162886 222.723191 15.332407 
C 222.723191 15.42207 222.804448 15.42207 222.938944 15.42207 
C 223.485333 15.42207 223.485333 15.493521 223.485333 15.591591 
C 223.485333 15.608403 223.485333 15.663042 223.450308 15.797537 
L 222.239847 20.598752 
C 222.158589 20.911174 222.140376 21.000838 221.51273 21.000838 
C 221.343209 21.000838 221.253546 21.000838 221.253546 21.161952 
C 221.253546 21.260022 221.333402 21.260022 221.388041 21.260022 
C 221.557562 21.260022 221.736889 21.260022 221.907811 21.260022 
L 222.957157 21.260022 
C 223.126678 21.260022 223.315812 21.260022 223.485333 21.260022 
C 223.558184 21.260022 223.656254 21.260022 223.656254 21.090501 
C 223.656254 21.000838 223.574996 21.000838 223.440501 21.000838 
C 222.902518 21.000838 222.894112 20.937793 222.894112 20.84953 
C 222.894112 20.804698 222.902518 20.743054 222.912325 20.698222 
L 223.485333 18.425806 
z
M 224.131192 15.754107 
C 224.21245 15.42207 224.247475 15.42207 224.597724 15.42207 
L 225.485955 15.42207 
C 226.158434 15.42207 226.713228 15.637824 226.713228 16.3075 
C 226.713228 16.540065 226.596945 17.299405 226.185052 17.709897 
C 226.032344 17.871012 225.602238 18.211454 224.785457 18.211454 
L 223.521759 18.211454 
L 224.131192 15.754107 
z
M 231.069556 14.868677 
C 231.069556 14.85887 231.122794 14.722973 231.122794 14.706161 
C 231.122794 14.598285 231.03313 14.53524 230.961679 14.53524 
C 230.916848 14.53524 230.83559 14.53524 230.764139 14.73278 
L 227.760403 23.16958 
C 227.760403 23.179387 227.707165 23.312481 227.707165 23.330694 
C 227.707165 23.438571 227.796829 23.501616 227.86828 23.501616 
C 227.921518 23.501616 228.002775 23.491809 228.06582 23.304075 
L 231.069556 14.868677 
z
M 234.26565 18.425806 
L 235.773122 18.425806 
C 237.010202 18.425806 238.247281 17.515159 238.247281 16.495234 
C 238.247281 15.798938 237.656061 15.162886 236.525457 15.162886 
L 233.755687 15.162886 
C 233.584766 15.162886 233.503508 15.162886 233.503508 15.332407 
C 233.503508 15.42207 233.584766 15.42207 233.719261 15.42207 
C 234.26565 15.42207 234.26565 15.493521 234.26565 15.591591 
C 234.26565 15.608403 234.26565 15.663042 234.230625 15.797537 
L 233.020164 20.598752 
C 232.938907 20.911174 232.920694 21.000838 232.293047 21.000838 
C 232.123527 21.000838 232.033863 21.000838 232.033863 21.161952 
C 232.033863 21.260022 232.11372 21.260022 232.168359 21.260022 
C 232.337879 21.260022 232.517207 21.260022 232.688128 21.260022 
L 233.737474 21.260022 
C 233.906995 21.260022 234.096129 21.260022 234.26565 21.260022 
C 234.338502 21.260022 234.436572 21.260022 234.436572 21.090501 
C 234.436572 21.000838 234.355314 21.000838 234.220818 21.000838 
C 233.682836 21.000838 233.67443 20.937793 233.67443 20.84953 
C 233.67443 20.804698 233.682836 20.743054 233.692643 20.698222 
L 234.26565 18.425806 
z
M 234.911509 15.754107 
C 234.992767 15.42207 235.027792 15.42207 235.378041 15.42207 
L 236.266273 15.42207 
C 236.938751 15.42207 237.493545 15.637824 237.493545 16.3075 
C 237.493545 16.540065 237.377263 17.299405 236.96537 17.709897 
C 236.812661 17.871012 236.382555 18.211454 235.565775 18.211454 
L 234.302076 18.211454 
L 234.911509 15.754107 
z
M 240.216507 15.33969 
C 240.222391 15.252408 240.222391 15.101381 240.059596 15.101381 
C 239.959565 15.101381 239.877187 15.182779 239.896801 15.265157 
L 239.896801 15.346555 
L 239.984083 16.319402 
L 239.180895 15.734909 
C 239.124015 15.703527 239.112246 15.691759 239.068115 15.691759 
C 238.979853 15.691759 238.898455 15.77904 238.898455 15.867303 
C 238.898455 15.967333 238.96122 15.992831 239.023984 16.024214 
L 239.915434 16.450815 
L 239.049482 16.870552 
C 238.948471 16.920567 238.898455 16.946065 238.898455 17.040212 
C 238.898455 17.134358 238.979853 17.215756 239.068115 17.215756 
C 239.112246 17.215756 239.124015 17.215756 239.280926 17.096111 
L 239.984083 16.588112 
L 239.889936 17.642357 
C 239.889936 17.774751 240.002716 17.806133 240.053712 17.806133 
C 240.128244 17.806133 240.222391 17.762982 240.222391 17.642357 
L 240.128244 16.588112 
L 240.932413 17.171625 
C 240.988312 17.203007 241.001061 17.215756 241.045193 17.215756 
C 241.132474 17.215756 241.214852 17.127493 241.214852 17.040212 
C 241.214852 16.946065 241.157972 16.914683 241.082459 16.876436 
C 240.705873 16.689124 240.693124 16.689124 240.197874 16.456699 
L 241.063826 16.036963 
C 241.163856 15.985967 241.214852 15.961449 241.214852 15.867303 
C 241.214852 15.773156 241.132474 15.691759 241.045193 15.691759 
C 241.001061 15.691759 240.988312 15.691759 240.831401 15.810422 
L 240.128244 16.319402 
L 240.216507 15.33969 
z
" style="opacity: 0.5"/>
    <path d="M 217.528871 15.071435 
C 217.45742 14.918727 217.422395 14.918727 217.349543 14.918727 
C 217.243068 14.918727 217.233261 14.93694 217.170216 15.063029 
L 214.265951 21.087313 
C 214.256144 21.105526 214.221119 21.186784 214.221119 21.19519 
C 214.221119 21.231616 214.229525 21.240022 214.390639 21.240022 
L 220.300042 21.240022 
C 220.461156 21.240022 220.470963 21.231616 220.470963 21.19519 
C 220.470963 21.186784 220.434537 21.105526 220.426131 21.087313 
L 217.528871 15.071435 
z
M 217.125384 15.582799 
L 219.60935 20.738465 
L 214.633012 20.738465 
L 217.125384 15.582799 
z
M 223.465333 18.405806 
L 224.972805 18.405806 
C 226.209884 18.405806 227.446964 17.495159 227.446964 16.475234 
C 227.446964 15.778938 226.855744 15.142886 225.72514 15.142886 
L 222.95537 15.142886 
C 222.784448 15.142886 222.703191 15.142886 222.703191 15.312407 
C 222.703191 15.40207 222.784448 15.40207 222.918944 15.40207 
C 223.465333 15.40207 223.465333 15.473521 223.465333 15.571591 
C 223.465333 15.588403 223.465333 15.643042 223.430308 15.777537 
L 222.219847 20.578752 
C 222.138589 20.891174 222.120376 20.980838 221.49273 20.980838 
C 221.323209 20.980838 221.233546 20.980838 221.233546 21.141952 
C 221.233546 21.240022 221.313402 21.240022 221.368041 21.240022 
C 221.537562 21.240022 221.716889 21.240022 221.887811 21.240022 
L 222.937157 21.240022 
C 223.106678 21.240022 223.295812 21.240022 223.465333 21.240022 
C 223.538184 21.240022 223.636254 21.240022 223.636254 21.070501 
C 223.636254 20.980838 223.554996 20.980838 223.420501 20.980838 
C 222.882518 20.980838 222.874112 20.917793 222.874112 20.82953 
C 222.874112 20.784698 222.882518 20.723054 222.892325 20.678222 
L 223.465333 18.405806 
z
M 224.111192 15.734107 
C 224.19245 15.40207 224.227475 15.40207 224.577724 15.40207 
L 225.465955 15.40207 
C 226.138434 15.40207 226.693228 15.617824 226.693228 16.2875 
C 226.693228 16.520065 226.576945 17.279405 226.165052 17.689897 
C 226.012344 17.851012 225.582238 18.191454 224.765457 18.191454 
L 223.501759 18.191454 
L 224.111192 15.734107 
z
M 231.049556 14.848677 
C 231.049556 14.83887 231.102794 14.702973 231.102794 14.686161 
C 231.102794 14.578285 231.01313 14.51524 230.941679 14.51524 
C 230.896848 14.51524 230.81559 14.51524 230.744139 14.71278 
L 227.740403 23.14958 
C 227.740403 23.159387 227.687165 23.292481 227.687165 23.310694 
C 227.687165 23.418571 227.776829 23.481616 227.84828 23.481616 
C 227.901518 23.481616 227.982775 23.471809 228.04582 23.284075 
L 231.049556 14.848677 
z
M 234.24565 18.405806 
L 235.753122 18.405806 
C 236.990202 18.405806 238.227281 17.495159 238.227281 16.475234 
C 238.227281 15.778938 237.636061 15.142886 236.505457 15.142886 
L 233.735687 15.142886 
C 233.564766 15.142886 233.483508 15.142886 233.483508 15.312407 
C 233.483508 15.40207 233.564766 15.40207 233.699261 15.40207 
C 234.24565 15.40207 234.24565 15.473521 234.24565 15.571591 
C 234.24565 15.588403 234.24565 15.643042 234.210625 15.777537 
L 233.000164 20.578752 
C 232.918907 20.891174 232.900694 20.980838 232.273047 20.980838 
C 232.103527 20.980838 232.013863 20.980838 232.013863 21.141952 
C 232.013863 21.240022 232.09372 21.240022 232.148359 21.240022 
C 232.317879 21.240022 232.497207 21.240022 232.668128 21.240022 
L 233.717474 21.240022 
C 233.886995 21.240022 234.076129 21.240022 234.24565 21.240022 
C 234.318502 21.240022 234.416572 21.240022 234.416572 21.070501 
C 234.416572 20.980838 234.335314 20.980838 234.200818 20.980838 
C 233.662836 20.980838 233.65443 20.917793 233.65443 20.82953 
C 233.65443 20.784698 233.662836 20.723054 233.672643 20.678222 
L 234.24565 18.405806 
z
M 234.891509 15.734107 
C 234.972767 15.40207 235.007792 15.40207 235.358041 15.40207 
L 236.246273 15.40207 
C 236.918751 15.40207 237.473545 15.617824 237.473545 16.2875 
C 237.473545 16.520065 237.357263 17.279405 236.94537 17.689897 
C 236.792661 17.851012 236.362555 18.191454 235.545775 18.191454 
L 234.282076 18.191454 
L 234.891509 15.734107 
z
M 240.196507 15.31969 
C 240.202391 15.232408 240.202391 15.081381 240.039596 15.081381 
C 239.939565 15.081381 239.857187 15.162779 239.876801 15.245157 
L 239.876801 15.326555 
L 239.964083 16.299402 
L 239.160895 15.714909 
C 239.104015 15.683527 239.092246 15.671759 239.048115 15.671759 
C 238.959853 15.671759 238.878455 15.75904 238.878455 15.847303 
C 238.878455 15.947333 238.94122 15.972831 239.003984 16.004214 
L 239.895434 16.430815 
L 239.029482 16.850552 
C 238.928471 16.900567 238.878455 16.926065 238.878455 17.020212 
C 238.878455 17.114358 238.959853 17.195756 239.048115 17.195756 
C 239.092246 17.195756 239.104015 17.195756 239.260926 17.076111 
L 239.964083 16.568112 
L 239.869936 17.622357 
C 239.869936 17.754751 239.982716 17.786133 240.033712 17.786133 
C 240.108244 17.786133 240.202391 17.742982 240.202391 17.622357 
L 240.108244 16.568112 
L 240.912413 17.151625 
C 240.968312 17.183007 240.981061 17.195756 241.025193 17.195756 
C 241.112474 17.195756 241.194852 17.107493 241.194852 17.020212 
C 241.194852 16.926065 241.137972 16.894683 241.062459 16.856436 
C 240.685873 16.669124 240.673124 16.669124 240.177874 16.436699 
L 241.043826 16.016963 
C 241.143856 15.965967 241.194852 15.941449 241.194852 15.847303 
C 241.194852 15.753156 241.112474 15.671759 241.025193 15.671759 
C 240.981061 15.671759 240.968312 15.671759 240.811401 15.790422 
L 240.108244 16.299402 
L 240.196507 15.31969 
z
"/>
   </g>
   <g id="axes_2">
    <g id="patch_22">
     <path d="M 44.147988 41.621131 
L 107.471943 41.621131 
L 107.471943 2.597691 
L 44.147988 2.597691 
z
" style="fill: #ffffff"/>
    </g>
    <g id="matplotlib.axis_3">
     <g id="xtick_6">
      <g id="line2d_26">
       <g>
        <use xlink:href="#me210f353ea" x="74.953125" y="41.621131" style="stroke: #000000; stroke-width: 0.35"/>
       </g>
      </g>
      <g id="text_29">
       <!-- $\mathdefault{1}$ -->
       <g transform="translate(72.836033 51.155933) scale(0.08 -0.08)">
        <use xlink:href="#CMR17-31" transform="scale(0.996264)"/>
       </g>
      </g>
     </g>
    </g>
    <g id="matplotlib.axis_4">
     <g id="ytick_6">
      <g id="line2d_27">
       <g>
        <use xlink:href="#m29d4ab833a" x="44.147988" y="41.621131" style="stroke: #000000; stroke-width: 0.35"/>
       </g>
      </g>
      <g id="text_30">
       <!-- $\mathdefault{0.0}$ -->
       <g transform="translate(29.327299 44.388532) scale(0.08 -0.08)">
        <use xlink:href="#CMR17-30" transform="scale(0.996264)"/>
        <use xlink:href="#CMMI12-3a" transform="translate(45.690477 0) scale(0.996264)"/>
        <use xlink:href="#CMR17-30" transform="translate(72.787654 0) scale(0.996264)"/>
       </g>
      </g>
     </g>
     <g id="ytick_7">
      <g id="line2d_28">
       <g>
        <use xlink:href="#m29d4ab833a" x="44.147988" y="4.45595" style="stroke: #000000; stroke-width: 0.35"/>
       </g>
      </g>
      <g id="text_31">
       <!-- $\mathdefault{0.2}$ -->
       <g transform="translate(29.327299 7.22335) scale(0.08 -0.08)">
        <use xlink:href="#CMR17-30" transform="scale(0.996264)"/>
        <use xlink:href="#CMMI12-3a" transform="translate(45.690477 0) scale(0.996264)"/>
        <use xlink:href="#CMR17-32" transform="translate(72.787654 0) scale(0.996264)"/>
       </g>
      </g>
     </g>
    </g>
    <g id="line2d_29">
     <path d="M 44.136085 30.913961 
L 48.35013 27.778328 
L 51.375064 25.859281 
L 54.838092 23.930874 
L 58.864384 21.948305 
L 63.558247 19.89098 
L 68.982266 17.761883 
L 75.24075 15.549547 
L 82.417145 13.253916 
L 90.594898 10.875972 
L 99.899177 8.406711 
L 107.492804 6.539091 
L 107.492804 6.539091 
" clip-path="url(#paf04034d87)" style="fill: none; stroke-dasharray: 0.75,1.2375; stroke-dashoffset: 0; stroke: #5e4fa2; stroke-width: 0.75; stroke-linecap: round"/>
    </g>
    <g id="line2d_30">
     <path d="M 44.136085 36.999657 
L 46.201384 35.977734 
L 48.934256 34.88492 
L 52.48073 33.716094 
L 57.028562 32.461011 
L 62.744644 31.122602 
L 69.858454 29.693549 
L 78.578608 28.176293 
L 89.155446 26.568821 
L 101.860169 24.86965 
L 107.492804 24.177244 
L 107.492804 24.177244 
" clip-path="url(#paf04034d87)" style="fill: none; stroke: #5e4fa2; stroke-width: 0.75; stroke-linecap: round"/>
    </g>
    <g id="line2d_31">
     <path d="M 44.136085 39.843338 
L 47.098434 39.257206 
L 51.729712 38.584451 
L 58.614044 37.824265 
L 68.439864 36.976218 
L 82.020774 36.039005 
L 100.295548 35.011465 
L 107.492804 34.654378 
L 107.492804 34.654378 
" clip-path="url(#paf04034d87)" style="fill: none; stroke-dasharray: 2.775,1.2; stroke-dashoffset: 0; stroke: #5e4fa2; stroke-width: 0.75; stroke-linecap: round"/>
    </g>
    <g id="line2d_32">
     <path d="M 44.136085 40.737079 
L 48.496162 40.329722 
L 56.381852 39.837507 
L 69.524668 39.258517 
L 90.073357 38.592062 
L 107.492804 38.138525 
L 107.492804 38.138525 
" clip-path="url(#paf04034d87)" style="fill: none; stroke-dasharray: 5.25,5.25; stroke-dashoffset: 0; stroke: #5e4fa2; stroke-width: 0.75; stroke-linecap: round"/>
    </g>
    <g id="patch_23">
     <path d="M 44.147988 41.621131 
L 44.147988 2.597691 
" style="fill: none; stroke: #000000; stroke-width: 0.35; stroke-linejoin: miter; stroke-linecap: square"/>
    </g>
    <g id="patch_24">
     <path d="M 44.147988 41.621131 
L 107.471943 41.621131 
" style="fill: none; stroke: #000000; stroke-width: 0.35; stroke-linejoin: miter; stroke-linecap: square"/>
    </g>
    <g id="text_32">
     <g id="patch_25">
      <path d="M 105.675091 8.156933 
L 130.757956 8.156933 
Q 130.757956 8.156933 130.757956 8.156933 
L 130.757956 1.957981 
Q 130.757956 1.957981 130.757956 1.957981 
L 105.675091 1.957981 
Q 105.675091 1.957981 105.675091 1.957981 
L 105.675091 8.156933 
Q 105.675091 8.156933 105.675091 8.156933 
z
" style="fill: #ffffff"/>
     </g>
     <!-- $N_c = $  1 -->
     <g style="fill: #5e4fa2" transform="translate(105.675091 6.800919) scale(0.07 -0.07)">
      <defs>
       <path id="CMMI12-4e" d="M 4736 3698 
C 4806 3974 4909 4166 5395 4166 
C 5414 4166 5491 4166 5491 4279 
C 5491 4352 5434 4352 5408 4352 
C 5280 4352 4954 4352 4826 4352 
L 4518 4352 
C 4429 4352 4314 4352 4224 4352 
C 4186 4352 4109 4352 4109 4230 
C 4109 4166 4160 4166 4205 4166 
C 4589 4166 4614 4019 4614 3903 
C 4614 3846 4608 3826 4589 3737 
L 3866 850 
L 2496 4249 
C 2451 4352 2445 4352 2304 4352 
L 1523 4352 
C 1395 4352 1338 4352 1338 4230 
C 1338 4166 1382 4166 1504 4166 
C 1536 4166 1914 4166 1914 4115 
C 1914 4102 1901 4051 1894 4032 
L 1043 635 
C 966 320 813 186 390 186 
C 358 186 294 186 294 67 
C 294 0 358 0 378 0 
C 506 0 832 0 960 0 
L 1267 0 
C 1357 0 1466 0 1555 0 
C 1600 0 1670 0 1670 122 
C 1670 180 1606 186 1581 186 
C 1370 186 1165 224 1165 454 
C 1165 505 1178 562 1190 613 
L 2054 4032 
C 2093 3968 2093 3956 2118 3898 
L 3642 115 
C 3674 38 3686 0 3744 0 
C 3808 0 3814 19 3840 128 
L 4736 3698 
z
" transform="scale(0.015625)"/>
       <path id="CMMI12-63" d="M 2502 2431 
C 2381 2431 2323 2431 2234 2355 
C 2195 2323 2125 2227 2125 2125 
C 2125 1997 2221 1920 2342 1920 
C 2496 1920 2669 2044 2669 2292 
C 2669 2588 2374 2816 1933 2816 
C 1094 2816 256 1903 256 996 
C 256 441 602 -64 1254 -64 
C 2125 -64 2675 622 2675 706 
C 2675 744 2637 776 2611 776 
C 2592 776 2586 770 2528 713 
C 2118 162 1510 64 1267 64 
C 826 64 685 446 685 764 
C 685 988 794 1605 1024 2039 
C 1190 2338 1536 2682 1939 2682 
C 2022 2682 2374 2682 2502 2431 
z
" transform="scale(0.015625)"/>
       <path id="CMR17-3d" d="M 4115 2017 
C 4211 2017 4307 2017 4307 2125 
C 4307 2240 4198 2240 4090 2240 
L 512 2240 
C 403 2240 294 2240 294 2125 
C 294 2017 390 2017 486 2017 
L 4115 2017 
z
M 4090 896 
C 4198 896 4307 896 4307 1011 
C 4307 1119 4211 1119 4115 1119 
L 486 1119 
C 390 1119 294 1119 294 1011 
C 294 896 403 896 512 896 
L 4090 896 
z
" transform="scale(0.015625)"/>
      </defs>
      <use xlink:href="#CMMI12-4e" transform="scale(0.996264)"/>
      <use xlink:href="#CMMI12-63" transform="translate(78.115119 -14.943915) scale(0.697382)"/>
      <use xlink:href="#CMR17-3d" transform="translate(135.675391 0) scale(0.996264)"/>
      <use xlink:href="#CMR17-31" transform="translate(237.466146 0) scale(0.996264)"/>
     </g>
    </g>
    <g id="text_33">
     <g id="patch_26">
      <path d="M 110.80928 27.279226 
L 114.780518 27.279226 
Q 114.780518 27.279226 114.780518 27.279226 
L 114.780518 21.080274 
Q 114.780518 21.080274 114.780518 21.080274 
L 110.80928 21.080274 
Q 110.80928 21.080274 110.80928 21.080274 
L 110.80928 27.279226 
Q 110.80928 27.279226 110.80928 27.279226 
z
" style="fill: #ffffff"/>
     </g>
     <!--   2 -->
     <g style="fill: #5e4fa2" transform="translate(110.80928 25.923212) scale(0.07 -0.07)">
      <use xlink:href="#CMR17-32" transform="scale(0.996264)"/>
     </g>
    </g>
    <g id="text_34">
     <g id="patch_27">
      <path d="M 110.80928 36.454077 
L 114.780518 36.454077 
Q 114.780518 36.454077 114.780518 36.454077 
L 114.780518 30.255125 
Q 114.780518 30.255125 114.780518 30.255125 
L 110.80928 30.255125 
Q 110.80928 30.255125 110.80928 30.255125 
L 110.80928 36.454077 
Q 110.80928 36.454077 110.80928 36.454077 
z
" style="fill: #ffffff"/>
     </g>
     <!--   5 -->
     <g style="fill: #5e4fa2" transform="translate(110.80928 35.098063) scale(0.07 -0.07)">
      <use xlink:href="#CMR17-35" transform="scale(0.996264)"/>
     </g>
    </g>
    <g id="text_35">
     <g id="patch_28">
      <path d="M 110.80928 41.981807 
L 118.751755 41.981807 
Q 118.751755 41.981807 118.751755 41.981807 
L 118.751755 35.782855 
Q 118.751755 35.782855 118.751755 35.782855 
L 110.80928 35.782855 
Q 110.80928 35.782855 110.80928 35.782855 
L 110.80928 41.981807 
Q 110.80928 41.981807 110.80928 41.981807 
z
" style="fill: #ffffff"/>
     </g>
     <!--  10 -->
     <g style="fill: #5e4fa2" transform="translate(110.80928 40.625793) scale(0.07 -0.07)">
      <use xlink:href="#CMR17-31" transform="scale(0.996264)"/>
      <use xlink:href="#CMR17-30" transform="translate(45.690477 0) scale(0.996264)"/>
     </g>
    </g>
   </g>
  </g>
 </g>
 <defs>
  <clipPath id="p88bb907fa0">
   <rect x="25.150802" y="0.36" width="218.158492" height="127.1127"/>
  </clipPath>
  <clipPath id="paf04034d87">
   <rect x="44.147988" y="2.597691" width="63.323955" height="39.023441"/>
  </clipPath>
 </defs>
</svg>
